SplineFontDB: 3.2
FontName: Multivers-Bold
FullName: Multivers Bold
FamilyName: Multivers
Weight: Bold
Copyright: 
Version: 0.2
ItalicAngle: 0
UnderlinePosition: -199
UnderlineWidth: 38
Ascent: 800
Descent: 200
InvalidEm: 0
sfntRevision: 0x00010000
LayerCount: 2
Layer: 0 1 "Back" 1
Layer: 1 1 "Fore" 0
XUID: [1021 473 -325923738 8474534]
StyleMap: 0x0040
FSType: 0
OS2Version: 4
OS2_WeightWidthSlopeOnly: 0
OS2_UseTypoMetrics: 0
CreationTime: 1659194366
ModificationTime: 1733162104
PfmFamily: 81
TTFWeight: 700
TTFWidth: 5
LineGap: 0
VLineGap: 0
Panose: 0 0 0 0 0 0 0 0 0 0
OS2TypoAscent: 970
OS2TypoAOffset: 0
OS2TypoDescent: -250
OS2TypoDOffset: 0
OS2TypoLinegap: 0
OS2WinAscent: 986
OS2WinAOffset: 0
OS2WinDescent: 350
OS2WinDOffset: 0
HheadAscent: 970
HheadAOffset: 0
HheadDescent: -250
HheadDOffset: 0
OS2SubXSize: 650
OS2SubYSize: 600
OS2SubXOff: 0
OS2SubYOff: 75
OS2SupXSize: 650
OS2SupYSize: 600
OS2SupXOff: 0
OS2SupYOff: 350
OS2StrikeYSize: 38
OS2StrikeYPos: 301
OS2CapHeight: 720
OS2XHeight: 510
OS2Vendor: 'NONE'
OS2CodePages: 00000093.00000000
OS2UnicodeRanges: a000006f.0000006a.00000000.00000000
Lookup: 1 0 0 "'aalt' Access All Alternates in Latin lookup 0" { "'aalt' Access All Alternates in Latin lookup 0 subtable"  } ['aalt' ('DFLT' <'dflt' > 'latn' <'AZE ' 'CAT ' 'CRT ' 'KAZ ' 'MOL ' 'ROM ' 'TAT ' 'TRK ' 'dflt' > ) ]
Lookup: 3 0 0 "'aalt' Access All Alternates in Latin lookup 1" { "'aalt' Access All Alternates in Latin lookup 1 subtable"  } ['aalt' ('DFLT' <'dflt' > 'latn' <'AZE ' 'CAT ' 'CRT ' 'KAZ ' 'MOL ' 'ROM ' 'TAT ' 'TRK ' 'dflt' > ) ]
Lookup: 6 0 0 "'ccmp' Glyph Composition/Decomposition in Latin lookup 2" { "'ccmp' Glyph Composition/Decomposition in Latin lookup 2 subtable"  } ['ccmp' ('DFLT' <'dflt' > 'latn' <'AZE ' 'CAT ' 'CRT ' 'KAZ ' 'MOL ' 'ROM ' 'TAT ' 'TRK ' 'dflt' > ) ]
Lookup: 1 0 0 "Single Substitution lookup 3" { "Single Substitution lookup 3 subtable"  } []

StartChar: .notdef
Encoding: 65536 -1 0
Width: 660
Flags: W
LayerCount: 2
Fore
SplineSet
50 0 m 1,0,-1
 50 720 l 1,1,-1
 610 720 l 1,2,-1
 610 0 l 1,3,-1
 50 0 l 1,0,-1
204 118 m 1,4,-1
 456 118 l 1,5,-1
 456 602 l 1,6,-1
 204 602 l 1,7,-1
 204 118 l 1,4,-1
EndSplineSet
Validated: 1
EndChar

StartChar: A
Encoding: 65 65 1
Width: 736
GlyphClass: 2
Flags: W
AnchorPoint: "Anchor-3" 712 0 basechar 0
AnchorPoint: "Anchor-2" 368 0 basechar 0
AnchorPoint: "Anchor-0" 368 720 basechar 0
LayerCount: 2
Fore
SplineSet
24 0 m 1,0,-1
 282 720 l 1,1,-1
 414 720 l 1,2,-1
 177 0 l 1,3,-1
 24 0 l 1,0,-1
552 0 m 1,4,-1
 316 720 l 1,5,-1
 454 720 l 1,6,-1
 712 0 l 1,7,-1
 552 0 l 1,4,-1
160 279 m 1,8,-1
 564 279 l 1,9,-1
 564 159 l 1,10,-1
 160 159 l 1,11,-1
 160 279 l 1,8,-1
EndSplineSet
Validated: 1048581
Substitution2: "Single Substitution lookup 17 subtable" ordfeminine
Substitution2: "'aalt' Access All Alternates in Latin lookup 0 subtable" ordfeminine
EndChar

StartChar: AE
Encoding: 198 198 12
Width: 983
Flags: W
LayerCount: 2
Fore
SplineSet
24 0 m 1,0,-1
 282 720 l 1,1,-1
 416 720 l 1,2,-1
 177 0 l 1,3,-1
 24 0 l 1,0,-1
487 0 m 1,4,-1
 487 720 l 1,5,-1
 641 720 l 1,6,-1
 641 0 l 1,7,-1
 487 0 l 1,4,-1
559 0 m 1,8,-1
 559 118 l 1,9,-1
 943 118 l 1,10,-1
 943 0 l 1,11,-1
 559 0 l 1,8,-1
240 310 m 1,12,-1
 240 426 l 1,13,-1
 908 426 l 1,14,-1
 908 310 l 1,15,-1
 240 310 l 1,12,-1
337 602 m 1,16,-1
 337 720 l 1,17,-1
 931 720 l 1,18,-1
 931 602 l 1,19,-1
 337 602 l 1,16,-1
EndSplineSet
Validated: 5
EndChar

StartChar: B
Encoding: 66 66 13
Width: 649
Flags: W
LayerCount: 2
Fore
SplineSet
176 0 m 1,0,-1
 176 110 l 1,1,-1
 362 110 l 2,2,3
 412 110 412 110 437.5 137.5 c 128,-1,4
 463 165 463 165 463 214 c 0,5,6
 463 264 463 264 435.5 293 c 128,-1,7
 408 322 408 322 357 322 c 2,8,-1
 176 322 l 1,9,-1
 176 432 l 1,10,-1
 349 432 l 2,11,12
 396 432 396 432 420.5 454.5 c 128,-1,13
 445 477 445 477 445 521 c 256,14,15
 445 565 445 565 421.5 587.5 c 128,-1,16
 398 610 398 610 352 610 c 2,17,-1
 176 610 l 1,18,-1
 176 720 l 1,19,-1
 385 720 l 2,20,21
 481 720 481 720 540 671 c 128,-1,22
 599 622 599 622 599 538 c 0,23,24
 599 485 599 485 574 447 c 128,-1,25
 549 409 549 409 507 389 c 128,-1,26
 465 369 465 369 413 369 c 1,27,-1
 418 390 l 1,28,29
 474 390 474 390 519.5 366 c 128,-1,30
 565 342 565 342 592 298.5 c 128,-1,31
 619 255 619 255 619 196 c 256,32,33
 619 137 619 137 591.5 92.5 c 128,-1,34
 564 48 564 48 514.5 24 c 128,-1,35
 465 0 465 0 398 0 c 2,36,-1
 176 0 l 1,0,-1
50 0 m 1,37,-1
 50 720 l 1,38,-1
 204 720 l 1,39,-1
 204 0 l 1,40,-1
 50 0 l 1,37,-1
EndSplineSet
Validated: 5
EndChar

StartChar: C
Encoding: 67 67 14
Width: 750
GlyphClass: 2
Flags: W
AnchorPoint: "Anchor-2" 385 0 basechar 0
AnchorPoint: "Anchor-0" 385 720 basechar 0
LayerCount: 2
Fore
SplineSet
391 -10 m 0,0,1
 313 -10 313 -10 247 17.5 c 128,-1,2
 181 45 181 45 132.5 95 c 128,-1,3
 84 145 84 145 57 213.5 c 128,-1,4
 30 282 30 282 30 363 c 256,5,6
 30 444 30 444 56.5 511 c 128,-1,7
 83 578 83 578 131.5 627.5 c 128,-1,8
 180 677 180 677 246 703.5 c 128,-1,9
 312 730 312 730 391 730 c 0,10,11
 480 730 480 730 551.5 695.5 c 128,-1,12
 623 661 623 661 668.5 598.5 c 128,-1,13
 714 536 714 536 724 452 c 1,14,-1
 574 452 l 1,15,16
 561 529 561 529 511 568.5 c 128,-1,17
 461 608 461 608 392 608 c 0,18,19
 331 608 331 608 284.5 579 c 128,-1,20
 238 550 238 550 212 495.5 c 128,-1,21
 186 441 186 441 186 364 c 0,22,23
 186 286 186 286 212.5 229.5 c 128,-1,24
 239 173 239 173 286 142.5 c 128,-1,25
 333 112 333 112 394 112 c 0,26,27
 459 112 459 112 509 151 c 128,-1,28
 559 190 559 190 574 267 c 1,29,-1
 726 267 l 1,30,31
 713 183 713 183 667 120.5 c 128,-1,32
 621 58 621 58 550 24 c 128,-1,33
 479 -10 479 -10 391 -10 c 0,0,1
EndSplineSet
Validated: 1048577
EndChar

StartChar: D
Encoding: 68 68 19
Width: 756
GlyphClass: 2
Flags: W
AnchorPoint: "Anchor-2" 380 0 basechar 0
AnchorPoint: "Anchor-0" 380 720 basechar 0
LayerCount: 2
Fore
SplineSet
144 0 m 1,0,-1
 144 120 l 1,1,-1
 326 120 l 2,2,3
 404 120 404 120 458.5 151.5 c 128,-1,4
 513 183 513 183 541.5 238 c 128,-1,5
 570 293 570 293 570 364 c 0,6,7
 570 434 570 434 542 487 c 128,-1,8
 514 540 514 540 459.5 570 c 128,-1,9
 405 600 405 600 326 600 c 2,10,-1
 147 600 l 1,11,-1
 147 720 l 1,12,-1
 326 720 l 2,13,14
 447 720 447 720 537 676.5 c 128,-1,15
 627 633 627 633 676.5 552.5 c 128,-1,16
 726 472 726 472 726 362 c 256,17,18
 726 252 726 252 676 170.5 c 128,-1,19
 626 89 626 89 536.5 44.5 c 128,-1,20
 447 0 447 0 327 0 c 2,21,-1
 144 0 l 1,0,-1
50 0 m 1,22,-1
 50 720 l 1,23,-1
 204 720 l 1,24,-1
 204 0 l 1,25,-1
 50 0 l 1,22,-1
EndSplineSet
Validated: 1048581
EndChar

StartChar: Eth
Encoding: 208 208 20
Width: 772
GlyphClass: 2
Flags: W
AnchorPoint: "Anchor-2" 400 0 basechar 0
AnchorPoint: "Anchor-0" 400 720 basechar 0
LayerCount: 2
Fore
SplineSet
10 302 m 1,0,-1
 10 422 l 1,1,-1
 397 422 l 1,2,-1
 397 302 l 1,3,-1
 10 302 l 1,0,-1
164 0 m 1,4,-1
 164 120 l 1,5,-1
 346 120 l 2,6,7
 424 120 424 120 478.5 151.5 c 128,-1,8
 533 183 533 183 561.5 238 c 128,-1,9
 590 293 590 293 590 364 c 0,10,11
 590 434 590 434 562 487 c 128,-1,12
 534 540 534 540 479.5 570 c 128,-1,13
 425 600 425 600 346 600 c 2,14,-1
 167 600 l 1,15,-1
 167 720 l 1,16,-1
 346 720 l 2,17,18
 467 720 467 720 557 676.5 c 128,-1,19
 647 633 647 633 696.5 552.5 c 128,-1,20
 746 472 746 472 746 362 c 256,21,22
 746 252 746 252 696 170.5 c 128,-1,23
 646 89 646 89 556.5 44.5 c 128,-1,24
 467 0 467 0 347 0 c 2,25,-1
 164 0 l 1,4,-1
70 0 m 1,26,-1
 70 720 l 1,27,-1
 224 720 l 1,28,-1
 224 0 l 1,29,-1
 70 0 l 1,26,-1
EndSplineSet
Validated: 1048581
EndChar

StartChar: E
Encoding: 69 69 23
Width: 626
GlyphClass: 2
Flags: W
AnchorPoint: "Anchor-3" 546 0 basechar 0
AnchorPoint: "Anchor-2" 315 0 basechar 0
AnchorPoint: "Anchor-0" 325 720 basechar 0
LayerCount: 2
Fore
SplineSet
50 0 m 1,0,-1
 50 720 l 1,1,-1
 204 720 l 1,2,-1
 204 0 l 1,3,-1
 50 0 l 1,0,-1
122 0 m 1,4,-1
 122 118 l 1,5,-1
 586 118 l 1,6,-1
 586 0 l 1,7,-1
 122 0 l 1,4,-1
122 310 m 1,8,-1
 122 426 l 1,9,-1
 551 426 l 1,10,-1
 551 310 l 1,11,-1
 122 310 l 1,8,-1
122 602 m 1,12,-1
 122 720 l 1,13,-1
 574 720 l 1,14,-1
 574 602 l 1,15,-1
 122 602 l 1,12,-1
EndSplineSet
Validated: 1048581
EndChar

StartChar: F
Encoding: 70 70 32
Width: 590
Flags: W
LayerCount: 2
Fore
SplineSet
50 0 m 1,0,-1
 50 720 l 1,1,-1
 204 720 l 1,2,-1
 204 0 l 1,3,-1
 50 0 l 1,0,-1
122 279 m 1,4,-1
 122 397 l 1,5,-1
 535 397 l 1,6,-1
 535 279 l 1,7,-1
 122 279 l 1,4,-1
122 602 m 1,8,-1
 122 720 l 1,9,-1
 558 720 l 1,10,-1
 558 602 l 1,11,-1
 122 602 l 1,8,-1
EndSplineSet
Validated: 5
EndChar

StartChar: G
Encoding: 71 71 33
Width: 763
GlyphClass: 2
Flags: W
AnchorPoint: "Anchor-2" 392 0 basechar 0
AnchorPoint: "Anchor-0" 392 720 basechar 0
LayerCount: 2
Fore
SplineSet
406 -10 m 0,0,1
 288 -9 288 -9 205 36 c 0,2,3
 121 82 121 82 75.5 165 c 128,-1,4
 30 248 30 248 30 359 c 0,5,6
 30 469 30 469 76 552.5 c 128,-1,7
 122 636 122 636 203.5 683 c 128,-1,8
 285 730 285 730 393 730 c 0,9,10
 482 730 482 730 552.5 698 c 128,-1,11
 623 666 623 666 666.5 610.5 c 128,-1,12
 710 555 710 555 718 482 c 1,13,-1
 564 482 l 1,14,15
 554 541 554 541 508.5 574.5 c 128,-1,16
 463 608 463 608 395 608 c 0,17,18
 332 608 332 608 285 578.5 c 128,-1,19
 238 549 238 549 212 494 c 128,-1,20
 186 439 186 439 186 362 c 0,21,22
 186 282 186 282 212 225.5 c 128,-1,23
 238 169 238 169 288.5 139.5 c 0,24,25
 327.622565233 117.214994487 327.622565233 117.214994487 413 110 c 4,26,27
 494 104 494 104 571 126.223632812 c 5,28,-1
 571 276 l 1,29,-1
 412 276 l 1,30,-1
 412 394 l 1,31,-1
 725 394 l 1,32,-1
 725 69 l 1,33,34
 587 -12 587 -12 406 -10 c 0,0,1
EndSplineSet
Validated: 1572897
Substitution2: "'ss07' Style Set 7 in Latin lookup 28 subtable" G.ss07
Substitution2: "'aalt' Access All Alternates in Latin lookup 0 subtable" G.ss07
EndChar

StartChar: H
Encoding: 72 72 37
Width: 720
GlyphClass: 2
Flags: W
AnchorPoint: "Anchor-2" 360 0 basechar 0
AnchorPoint: "Anchor-0" 360 720 basechar 0
LayerCount: 2
Fore
SplineSet
50 0 m 1,0,-1
 50 720 l 1,1,-1
 204 720 l 1,2,-1
 204 0 l 1,3,-1
 50 0 l 1,0,-1
516 0 m 1,4,-1
 516 720 l 1,5,-1
 670 720 l 1,6,-1
 670 0 l 1,7,-1
 516 0 l 1,4,-1
122 434 m 1,8,-1
 586 434 l 1,9,-1
 586 316 l 1,10,-1
 122 316 l 1,11,-1
 122 434 l 1,8,-1
EndSplineSet
Validated: 1048581
EndChar

StartChar: Hbar
Encoding: 294 294 38
Width: 752
GlyphClass: 2
Flags: W
AnchorPoint: "Anchor-2" 376 0 basechar 0
AnchorPoint: "Anchor-0" 376 720 basechar 0
LayerCount: 2
Fore
SplineSet
10 522 m 1,0,-1
 10 642 l 1,1,-1
 742 642 l 1,2,-1
 742 522 l 1,3,-1
 10 522 l 1,0,-1
66 0 m 1,4,-1
 66 720 l 1,5,-1
 220 720 l 1,6,-1
 220 0 l 1,7,-1
 66 0 l 1,4,-1
532 0 m 1,8,-1
 532 720 l 1,9,-1
 686 720 l 1,10,-1
 686 0 l 1,11,-1
 532 0 l 1,8,-1
138 434 m 1,12,-1
 602 434 l 1,13,-1
 602 316 l 1,14,-1
 138 316 l 1,15,-1
 138 434 l 1,12,-1
EndSplineSet
Validated: 1048581
EndChar

StartChar: I
Encoding: 73 73 39
Width: 254
GlyphClass: 2
Flags: W
AnchorPoint: "Anchor-3" 184 0 basechar 0
AnchorPoint: "Anchor-2" 127 0 basechar 0
AnchorPoint: "Anchor-0" 127 720 basechar 0
LayerCount: 2
Fore
SplineSet
50 0 m 1,0,-1
 50 720 l 1,1,-1
 204 720 l 1,2,-1
 204 0 l 1,3,-1
 50 0 l 1,0,-1
EndSplineSet
Validated: 1048577
EndChar

StartChar: J
Encoding: 74 74 48
Width: 413
Flags: W
LayerCount: 2
Fore
SplineSet
134 -10 m 0,0,1
 58 -10 58 -10 10 1 c 1,2,-1
 10 119 l 1,3,4
 64 104 64 104 112 107 c 128,-1,5
 160 110 160 110 185.5 128.5 c 128,-1,6
 211 147 211 147 211 196 c 2,7,-1
 211 720 l 1,8,-1
 365 720 l 1,9,-1
 365 189 l 2,10,11
 365 89 365 89 306 39.5 c 128,-1,12
 247 -10 247 -10 134 -10 c 0,0,1
EndSplineSet
Validated: 33
Substitution2: "'ss08' Style Set 8 in Latin lookup 29 subtable" J.ss08
Substitution2: "'aalt' Access All Alternates in Latin lookup 0 subtable" J.ss08
EndChar

StartChar: K
Encoding: 75 75 49
Width: 722
GlyphClass: 2
Flags: W
AnchorPoint: "Anchor-2" 363 0 basechar 0
AnchorPoint: "Anchor-0" 363 720 basechar 0
LayerCount: 2
Fore
SplineSet
50 0 m 1,0,-1
 50 720 l 1,1,-1
 204 720 l 1,2,-1
 204 0 l 1,3,-1
 50 0 l 1,0,-1
155 374 m 1,4,-1
 479 720 l 1,5,-1
 684 720 l 1,6,-1
 342 374 l 1,7,-1
 155 374 l 1,4,-1
495 0 m 1,8,-1
 153 374 l 1,9,-1
 342 374 l 1,10,-1
 704 0 l 1,11,-1
 495 0 l 1,8,-1
EndSplineSet
Validated: 1048581
Substitution2: "'ss04' Style Set 4 in Latin lookup 25 subtable" K.ss04
Substitution2: "'aalt' Access All Alternates in Latin lookup 0 subtable" K.ss04
EndChar

StartChar: L
Encoding: 76 76 51
Width: 590
GlyphClass: 2
Flags: W
AnchorPoint: "Anchor-2" 314 0 basechar 0
AnchorPoint: "Anchor-1" 360 720 basechar 0
AnchorPoint: "Anchor-0" 127 720 basechar 0
LayerCount: 2
Fore
SplineSet
50 0 m 1,0,-1
 50 720 l 1,1,-1
 204 720 l 1,2,-1
 204 0 l 1,3,-1
 50 0 l 1,0,-1
122 0 m 1,4,-1
 122 118 l 1,5,-1
 550 118 l 1,6,-1
 550 0 l 1,7,-1
 122 0 l 1,4,-1
EndSplineSet
Validated: 1048581
EndChar

StartChar: Lslash
Encoding: 321 321 55
Width: 596
GlyphClass: 2
Flags: W
AnchorPoint: "Anchor-2" 324 0 basechar 0
AnchorPoint: "Anchor-1" 370 720 basechar 0
AnchorPoint: "Anchor-0" 137 720 basechar 0
LayerCount: 2
Fore
SplineSet
161 325 m 1,0,-1
 0 259 l 1,1,-1
 0 367 l 1,2,-1
 161 433 l 1,3,-1
 161 325 l 1,0,-1
161 443 m 1,4,-1
 366 529 l 1,5,-1
 366 421 l 1,6,-1
 161 335 l 1,7,-1
 161 443 l 1,4,-1
60 0 m 1,8,-1
 60 720 l 1,9,-1
 214 720 l 1,10,-1
 214 0 l 1,11,-1
 60 0 l 1,8,-1
132 0 m 1,12,-1
 132 118 l 1,13,-1
 560 118 l 1,14,-1
 560 0 l 1,15,-1
 132 0 l 1,12,-1
EndSplineSet
Validated: 1048581
EndChar

StartChar: M
Encoding: 77 77 56
Width: 894
Flags: W
LayerCount: 2
Fore
SplineSet
50 0 m 1,0,-1
 50 720 l 1,1,-1
 290 720 l 1,2,-1
 490 26 l 1,3,-1
 403 26 l 1,4,-1
 603 720 l 1,5,-1
 844 720 l 1,6,-1
 844 0 l 1,7,-1
 692 0 l 1,8,-1
 692 677 l 1,9,-1
 718 677 l 1,10,-1
 523 0 l 1,11,-1
 364 0 l 1,12,-1
 171 671 l 1,13,-1
 196 671 l 1,14,-1
 196 0 l 1,15,-1
 50 0 l 1,0,-1
EndSplineSet
Validated: 5
Substitution2: "'ss06' Style Set 6 in Latin lookup 27 subtable" M.ss06
Substitution2: "'aalt' Access All Alternates in Latin lookup 0 subtable" M.ss06
EndChar

StartChar: N
Encoding: 78 78 57
Width: 720
GlyphClass: 2
Flags: W
AnchorPoint: "Anchor-2" 360 0 basechar 0
AnchorPoint: "Anchor-0" 360 720 basechar 0
LayerCount: 2
Fore
SplineSet
50 0 m 1,0,-1
 50 720 l 1,1,-1
 249 720 l 1,2,-1
 569 84 l 1,3,-1
 520 72 l 1,4,-1
 520 720 l 1,5,-1
 670 720 l 1,6,-1
 670 0 l 1,7,-1
 471 0 l 1,8,-1
 151 636 l 1,9,-1
 200 648 l 1,10,-1
 200 0 l 1,11,-1
 50 0 l 1,0,-1
EndSplineSet
Validated: 1048581
EndChar

StartChar: Eng
Encoding: 330 330 62
Width: 712
Flags: W
LayerCount: 2
Fore
SplineSet
46 0 m 1,0,-1
 46 720 l 1,1,-1
 245 720 l 1,2,-1
 615 94 l 1,3,-1
 516 112 l 1,4,-1
 516 720 l 1,5,-1
 666 720 l 1,6,-1
 666 0 l 1,7,-1
 517 0 l 1,8,-1
 147 626 l 1,9,-1
 196 638 l 1,10,-1
 196 0 l 1,11,-1
 46 0 l 1,0,-1
476 -215 m 0,12,13
 451 -215 451 -215 430 -212 c 128,-1,14
 409 -209 409 -209 394 -205 c 1,15,-1
 394 -86 l 1,16,17
 405 -90 405 -90 419.5 -92.5 c 128,-1,18
 434 -95 434 -95 450 -95 c 0,19,20
 483 -95 483 -95 498.5 -81 c 128,-1,21
 514 -67 514 -67 514 -35 c 2,22,-1
 514 50 l 1,23,-1
 666 50 l 1,24,-1
 666 -39 l 2,25,26
 666 -124 666 -124 621 -169.5 c 128,-1,27
 576 -215 576 -215 476 -215 c 0,12,13
EndSplineSet
Validated: 5
EndChar

StartChar: O
Encoding: 79 79 63
Width: 798
GlyphClass: 2
Flags: W
AnchorPoint: "Anchor-3" 553 20 basechar 0
AnchorPoint: "Anchor-2" 399 0 basechar 0
AnchorPoint: "Anchor-1" 778 720 basechar 0
AnchorPoint: "Anchor-0" 399 720 basechar 0
LayerCount: 2
Fore
SplineSet
399 -10 m 256,0,1
 319 -10 319 -10 251.5 17 c 128,-1,2
 184 44 184 44 134.5 93.5 c 128,-1,3
 85 143 85 143 57.5 211.5 c 128,-1,4
 30 280 30 280 30 363 c 0,5,6
 30 473 30 473 77 555.5 c 128,-1,7
 124 638 124 638 207.5 684 c 128,-1,8
 291 730 291 730 398 730 c 0,9,10
 507 730 507 730 590 684 c 128,-1,11
 673 638 673 638 720.5 555 c 128,-1,12
 768 472 768 472 768 362 c 0,13,14
 768 280 768 280 740.5 211.5 c 128,-1,15
 713 143 713 143 663.5 93.5 c 128,-1,16
 614 44 614 44 546.5 17 c 128,-1,17
 479 -10 479 -10 399 -10 c 256,0,1
398 112 m 0,18,19
 461 112 461 112 509 144 c 128,-1,20
 557 176 557 176 584.5 232.5 c 128,-1,21
 612 289 612 289 612 364 c 0,22,23
 612 438 612 438 585 493 c 128,-1,24
 558 548 558 548 510 578 c 128,-1,25
 462 608 462 608 398 608 c 0,26,27
 335 608 335 608 287 578 c 128,-1,28
 239 548 239 548 212.5 493.5 c 128,-1,29
 186 439 186 439 186 364 c 0,30,31
 186 288 186 288 213 231.5 c 128,-1,32
 240 175 240 175 288 143.5 c 128,-1,33
 336 112 336 112 398 112 c 0,18,19
EndSplineSet
Validated: 1
Substitution2: "Single Substitution lookup 17 subtable" ordmasculine
Substitution2: "'aalt' Access All Alternates in Latin lookup 0 subtable" ordmasculine
EndChar

StartChar: Oslash
Encoding: 216 216 70
Width: 798
GlyphClass: 2
Flags: W
AnchorPoint: "Anchor-3" 553 20 basechar 0
AnchorPoint: "Anchor-2" 399 0 basechar 0
AnchorPoint: "Anchor-1" 778 720 basechar 0
AnchorPoint: "Anchor-0" 399 720 basechar 0
LayerCount: 2
Fore
SplineSet
122 -10 m 1,0,-1
 43 63 l 1,1,-1
 664 730 l 1,2,-1
 743 657 l 1,3,-1
 122 -10 l 1,0,-1
399 -10 m 256,4,5
 319 -10 319 -10 251.5 17 c 128,-1,6
 184 44 184 44 134.5 93.5 c 128,-1,7
 85 143 85 143 57.5 211.5 c 128,-1,8
 30 280 30 280 30 363 c 0,9,10
 30 473 30 473 77 555.5 c 128,-1,11
 124 638 124 638 207.5 684 c 128,-1,12
 291 730 291 730 398 730 c 0,13,14
 507 730 507 730 590 684 c 128,-1,15
 673 638 673 638 720.5 555 c 128,-1,16
 768 472 768 472 768 362 c 0,17,18
 768 280 768 280 740.5 211.5 c 128,-1,19
 713 143 713 143 663.5 93.5 c 128,-1,20
 614 44 614 44 546.5 17 c 128,-1,21
 479 -10 479 -10 399 -10 c 256,4,5
398 112 m 0,22,23
 461 112 461 112 509 144 c 128,-1,24
 557 176 557 176 584.5 232.5 c 128,-1,25
 612 289 612 289 612 364 c 0,26,27
 612 438 612 438 585 493 c 128,-1,28
 558 548 558 548 510 578 c 128,-1,29
 462 608 462 608 398 608 c 0,30,31
 335 608 335 608 287 578 c 128,-1,32
 239 548 239 548 212.5 493.5 c 128,-1,33
 186 439 186 439 186 364 c 0,34,35
 186 288 186 288 213 231.5 c 128,-1,36
 240 175 240 175 288 143.5 c 128,-1,37
 336 112 336 112 398 112 c 0,22,23
EndSplineSet
Validated: 5
EndChar

StartChar: OE
Encoding: 338 338 72
Width: 1090
Flags: W
LayerCount: 2
Fore
SplineSet
430 -10 m 0,0,1
 312 -10 312 -10 221.5 36.5 c 128,-1,2
 131 83 131 83 80.5 166.5 c 128,-1,3
 30 250 30 250 30 361 c 256,4,5
 30 472 30 472 80.5 555 c 128,-1,6
 131 638 131 638 221.5 684 c 128,-1,7
 312 730 312 730 430 730 c 0,8,9
 474 730 474 730 509.5 727 c 128,-1,10
 545 724 545 724 576 719 c 1,11,-1
 576 587 l 1,12,13
 545 598 545 598 511 603 c 128,-1,14
 477 608 477 608 430 608 c 0,15,16
 350 608 350 608 295.5 578 c 128,-1,17
 241 548 241 548 213.5 492.5 c 128,-1,18
 186 437 186 437 186 361 c 0,19,20
 186 284 186 284 213.5 228 c 128,-1,21
 241 172 241 172 295.5 142 c 128,-1,22
 350 112 350 112 430 112 c 0,23,24
 477 112 477 112 511 117.5 c 128,-1,25
 545 123 545 123 576 133 c 1,26,-1
 576 1 l 1,27,28
 545 -4 545 -4 509.5 -7 c 128,-1,29
 474 -10 474 -10 430 -10 c 0,0,1
554 0 m 1,30,-1
 554 720 l 1,31,-1
 1038 720 l 1,32,-1
 1038 602 l 1,33,-1
 708 602 l 1,34,-1
 708 426 l 1,35,-1
 1015 426 l 1,36,-1
 1015 310 l 1,37,-1
 708 310 l 1,38,-1
 708 118 l 1,39,-1
 1050 118 l 1,40,-1
 1050 0 l 1,41,-1
 554 0 l 1,30,-1
EndSplineSet
Validated: 5
EndChar

StartChar: P
Encoding: 80 80 73
Width: 672
Flags: W
LayerCount: 2
Fore
SplineSet
50 0 m 1,0,-1
 50 720 l 1,1,-1
 392 720 l 2,2,3
 472 720 472 720 529.5 692 c 128,-1,4
 587 664 587 664 618.5 614 c 128,-1,5
 650 564 650 564 650 497 c 256,6,7
 650 430 650 430 618 379 c 128,-1,8
 586 328 586 328 528.5 299.5 c 128,-1,9
 471 271 471 271 392 271 c 2,10,-1
 172 271 l 1,11,-1
 172 389 l 1,12,-1
 384 389 l 2,13,14
 437 389 437 389 466.5 418.5 c 128,-1,15
 496 448 496 448 496 496 c 256,16,17
 496 544 496 544 466.5 573 c 128,-1,18
 437 602 437 602 384 602 c 2,19,-1
 204 602 l 1,20,-1
 204 0 l 1,21,-1
 50 0 l 1,0,-1
EndSplineSet
Validated: 5
EndChar

StartChar: Thorn
Encoding: 222 222 74
Width: 668
Flags: W
LayerCount: 2
Fore
SplineSet
168 150 m 1,0,-1
 168 268 l 1,1,-1
 378 268 l 2,2,3
 431 268 431 268 461.5 297 c 128,-1,4
 492 326 492 326 492 370 c 256,5,6
 492 414 492 414 461.5 443 c 128,-1,7
 431 472 431 472 378 472 c 2,8,-1
 168 472 l 1,9,-1
 168 590 l 1,10,-1
 388 590 l 2,11,12
 467 590 467 590 524.5 562 c 128,-1,13
 582 534 582 534 614 484.5 c 128,-1,14
 646 435 646 435 646 370 c 0,15,16
 646 306 646 306 614 256 c 128,-1,17
 582 206 582 206 524.5 178 c 128,-1,18
 467 150 467 150 388 150 c 2,19,-1
 168 150 l 1,0,-1
46 0 m 1,20,-1
 46 720 l 1,21,-1
 200 720 l 1,22,-1
 200 0 l 1,23,-1
 46 0 l 1,20,-1
EndSplineSet
Validated: 5
EndChar

StartChar: Q
Encoding: 81 81 75
Width: 815
Flags: W
LayerCount: 2
Fore
SplineSet
399 -10 m 1,0,1
 292 -10 292 -10 208.5 37 c 128,-1,2
 125 84 125 84 77.5 168 c 128,-1,3
 30 252 30 252 30 363 c 0,4,5
 30 473 30 473 77 555.5 c 128,-1,6
 124 638 124 638 207.5 684 c 128,-1,7
 291 730 291 730 398 730 c 0,8,9
 507 730 507 730 590 684 c 128,-1,10
 673 638 673 638 720.5 555 c 128,-1,11
 768 472 768 472 768 362 c 0,12,13
 768 292 768 292 745.5 230 c 128,-1,14
 723 168 723 168 673.5 123 c 128,-1,15
 624 78 624 78 543 56 c 1,16,-1
 399 -10 l 1,0,1
398 106 m 0,17,18
 461 106 461 106 509 137 c 128,-1,19
 557 168 557 168 584.5 226 c 128,-1,20
 612 284 612 284 612 364 c 0,21,22
 612 438 612 438 585 493 c 128,-1,23
 558 548 558 548 510 578 c 128,-1,24
 462 608 462 608 398 608 c 0,25,26
 335 608 335 608 287 578 c 128,-1,27
 239 548 239 548 212.5 493.5 c 128,-1,28
 186 439 186 439 186 364 c 0,29,30
 186 283 186 283 213 225.5 c 128,-1,31
 240 168 240 168 288 137 c 128,-1,32
 336 106 336 106 398 106 c 0,17,18
399 -10 m 1,33,-1
 399 84 l 1,34,-1
 805 122 l 5,35,-1
 805 0 l 1,36,37
 741 0 741 0 690.5 -1.5 c 128,-1,38
 640 -3 640 -3 595 -5 c 128,-1,39
 550 -7 550 -7 503 -8.5 c 128,-1,40
 456 -10 456 -10 399 -10 c 1,33,-1
EndSplineSet
Validated: 5
Substitution2: "'ss09' Style Set 9 in Latin lookup 30 subtable" Q.ss09
Substitution2: "'aalt' Access All Alternates in Latin lookup 0 subtable" Q.ss09
EndChar

StartChar: R
Encoding: 65537 -1 76
Width: 668
GlyphClass: 2
Flags: W
AnchorPoint: "Anchor-2" 334 0 basechar 0
AnchorPoint: "Anchor-0" 334 720 basechar 0
LayerCount: 2
Fore
SplineSet
46 0 m 1,0,-1
 46 720 l 1,1,-1
 368 720 l 2,2,3
 446 720 446 720 504 693.5 c 128,-1,4
 562 667 562 667 594 619 c 128,-1,5
 626 571 626 571 626 507 c 0,6,7
 626 444 626 444 594 396.5 c 128,-1,8
 562 349 562 349 504 322.5 c 128,-1,9
 446 296 446 296 368 296 c 2,10,-1
 168 296 l 1,11,-1
 168 409 l 1,12,-1
 364 409 l 2,13,14
 419 409 419 409 448.5 434.5 c 128,-1,15
 478 460 478 460 478 506 c 0,16,17
 478 553 478 553 449 577.5 c 128,-1,18
 420 602 420 602 364 602 c 2,19,-1
 200 602 l 1,20,-1
 200 0 l 1,21,-1
 46 0 l 1,0,-1
452 0 m 1,22,-1
 163 374 l 1,23,-1
 326 374 l 1,24,-1
 660 0 l 1,25,-1
 452 0 l 1,22,-1
EndSplineSet
Validated: 1048581
Substitution2: "'calt' Contextual Alternates in Latin lookup 26 subtable" R.ss05
Substitution2: "'aalt' Access All Alternates in Latin lookup 0 subtable" R.ss05
EndChar

StartChar: S
Encoding: 83 83 80
Width: 652
GlyphClass: 2
Flags: W
AnchorPoint: "Anchor-2" 346 0 basechar 0
AnchorPoint: "Anchor-0" 336 720 basechar 0
LayerCount: 2
Fore
SplineSet
346 -9 m 0,0,1
 206 -9 206 -9 122 53.5 c 128,-1,2
 38 116 38 116 24 230 c 1,3,-1
 172 230 l 1,4,5
 179 172 179 172 228 138.5 c 128,-1,6
 277 105 277 105 353 105 c 0,7,8
 415 105 415 105 448.5 127 c 128,-1,9
 482 149 482 149 482 186 c 0,10,11
 482 221 482 221 462 242.5 c 128,-1,12
 442 264 442 264 393 277 c 2,13,-1
 259 314 l 2,14,15
 156 343 156 343 108.5 393.5 c 128,-1,16
 61 444 61 444 61 520 c 0,17,18
 61 585 61 585 94.5 632.5 c 128,-1,19
 128 680 128 680 189 705.5 c 128,-1,20
 250 731 250 731 332 731 c 0,21,22
 458 731 458 731 533 671.5 c 128,-1,23
 608 612 608 612 618 514 c 1,24,-1
 470 514 l 1,25,26
 460 567 460 567 421.5 592 c 128,-1,27
 383 617 383 617 323 617 c 0,28,29
 271 617 271 617 240 597 c 128,-1,30
 209 577 209 577 209 543 c 0,31,32
 209 517 209 517 226 495.5 c 128,-1,33
 243 474 243 474 297 459 c 2,34,-1
 431 422 l 2,35,36
 537 393 537 393 583.5 342.5 c 128,-1,37
 630 292 630 292 630 215 c 0,38,39
 630 107 630 107 555 49 c 128,-1,40
 480 -9 480 -9 346 -9 c 0,0,1
EndSplineSet
Validated: 1048577
EndChar

StartChar: uni1E9E
Encoding: 7838 7838 85
Width: 717
Flags: W
LayerCount: 2
Fore
SplineSet
414 -9 m 0,0,1
 380 -9 380 -9 346.5 -4.5 c 128,-1,2
 313 0 313 0 281 9 c 1,3,-1
 281 133 l 1,4,5
 310 121 310 121 337 116 c 128,-1,6
 364 111 364 111 397 111 c 0,7,8
 470 111 470 111 504.5 135.5 c 128,-1,9
 539 160 539 160 539 213 c 0,10,11
 539 263 539 263 501 295.5 c 128,-1,12
 463 328 463 328 377 353 c 2,13,-1
 331 366 l 1,14,-1
 530 630 l 1,15,-1
 510 557 l 1,16,17
 485 584 485 584 449.5 597.5 c 128,-1,18
 414 611 414 611 369 611 c 0,19,20
 289 611 289 611 246.5 566 c 128,-1,21
 204 521 204 521 204 436 c 2,22,-1
 204 0 l 1,23,-1
 50 0 l 1,24,-1
 50 420 l 2,25,26
 50 572 50 572 134.5 651.5 c 128,-1,27
 219 731 219 731 379 731 c 0,28,29
 472 731 472 731 549 703.5 c 128,-1,30
 626 676 626 676 687 620 c 1,31,-1
 500 381 l 1,32,-1
 440 449 l 1,33,34
 575 406 575 406 635 348 c 128,-1,35
 695 290 695 290 695 202 c 0,36,37
 695 137 695 137 661 89.5 c 128,-1,38
 627 42 627 42 564 16.5 c 128,-1,39
 501 -9 501 -9 414 -9 c 0,0,1
EndSplineSet
Validated: 5
EndChar

StartChar: T
Encoding: 84 84 86
Width: 672
GlyphClass: 2
Flags: W
AnchorPoint: "Anchor-2" 336 0 basechar 0
AnchorPoint: "Anchor-0" 336 720 basechar 0
LayerCount: 2
Fore
SplineSet
259 0 m 1,0,-1
 259 602 l 1,1,-1
 24 602 l 1,2,-1
 24 720 l 1,3,-1
 648 720 l 1,4,-1
 648 602 l 1,5,-1
 413 602 l 1,6,-1
 413 0 l 1,7,-1
 259 0 l 1,0,-1
EndSplineSet
Validated: 1048577
EndChar

StartChar: U
Encoding: 85 85 89
Width: 700
GlyphClass: 2
Flags: W
AnchorPoint: "Anchor-3" 505 20 basechar 0
AnchorPoint: "Anchor-2" 350 0 basechar 0
AnchorPoint: "Anchor-1" 686 720 basechar 0
AnchorPoint: "Anchor-0" 350 720 basechar 0
LayerCount: 2
Fore
SplineSet
349 -10 m 0,0,1
 195 -10 195 -10 118.5 74.5 c 128,-1,2
 42 159 42 159 42 321 c 2,3,-1
 42 720 l 1,4,-1
 196 720 l 1,5,-1
 196 294 l 2,6,7
 196 200 196 200 237 156 c 128,-1,8
 278 112 278 112 350 112 c 256,9,10
 422 112 422 112 463 156 c 128,-1,11
 504 200 504 200 504 293 c 2,12,-1
 504 720 l 1,13,-1
 658 720 l 1,14,-1
 658 319 l 2,15,16
 658 159 658 159 581 74.5 c 128,-1,17
 504 -10 504 -10 349 -10 c 0,0,1
EndSplineSet
Validated: 1
EndChar

StartChar: V
Encoding: 86 86 99
Width: 736
Flags: W
LayerCount: 2
Fore
SplineSet
282 0 m 1,0,-1
 24 720 l 1,1,-1
 184 720 l 1,2,-1
 381 120 l 1,3,-1
 362 120 l 1,4,-1
 560 720 l 1,5,-1
 712 720 l 1,6,-1
 454 0 l 1,7,-1
 282 0 l 1,0,-1
EndSplineSet
Validated: 5
EndChar

StartChar: W
Encoding: 87 87 100
Width: 1086
GlyphClass: 2
Flags: W
AnchorPoint: "Anchor-2" 543 0 basechar 0
AnchorPoint: "Anchor-0" 543 720 basechar 0
LayerCount: 2
Fore
SplineSet
237 0 m 1,0,-1
 34 720 l 1,1,-1
 190 720 l 1,2,-1
 358 61 l 1,3,-1
 309 61 l 1,4,-1
 459 720 l 1,5,-1
 634 720 l 1,6,-1
 782 61 l 1,7,-1
 734 61 l 1,8,-1
 903 720 l 1,9,-1
 1052 720 l 1,10,-1
 849 0 l 1,11,-1
 677 0 l 1,12,-1
 524 646 l 1,13,-1
 564 646 l 1,14,-1
 409 0 l 1,15,-1
 237 0 l 1,0,-1
EndSplineSet
Validated: 1048581
EndChar

StartChar: X
Encoding: 88 88 105
Width: 716
Flags: W
LayerCount: 2
Fore
SplineSet
516 0 m 1,0,-1
 317 315 l 1,1,-1
 39 720 l 1,2,-1
 219 720 l 1,3,-1
 406 423 l 1,4,-1
 696 0 l 1,5,-1
 516 0 l 1,0,-1
339 424 m 1,6,-1
 533 720 l 1,7,-1
 696 720 l 1,8,-1
 390 295 l 1,9,-1
 339 424 l 1,6,-1
374 291 m 1,10,-1
 183 0 l 1,11,-1
 20 0 l 1,12,-1
 323 420 l 1,13,-1
 374 291 l 1,10,-1
EndSplineSet
Validated: 5
EndChar

StartChar: Y
Encoding: 89 89 106
Width: 712
GlyphClass: 2
Flags: W
AnchorPoint: "Anchor-2" 356 0 basechar 0
AnchorPoint: "Anchor-0" 356 720 basechar 0
LayerCount: 2
Fore
SplineSet
279 0 m 1,0,-1
 279 291 l 1,1,-1
 11 720 l 1,2,-1
 196 720 l 1,3,-1
 408 339 l 1,4,-1
 321 339 l 1,5,-1
 532 720 l 1,6,-1
 701 720 l 1,7,-1
 433 291 l 1,8,-1
 433 0 l 1,9,-1
 279 0 l 1,0,-1
EndSplineSet
Validated: 1048581
EndChar

StartChar: Z
Encoding: 90 90 111
Width: 635
GlyphClass: 2
Flags: W
AnchorPoint: "Anchor-2" 318 0 basechar 0
AnchorPoint: "Anchor-0" 318 720 basechar 0
LayerCount: 2
Fore
SplineSet
40 0 m 1,0,-1
 40 104 l 1,1,-1
 438 659 l 1,2,-1
 475 602 l 1,3,-1
 54 602 l 1,4,-1
 54 720 l 1,5,-1
 595 720 l 1,6,-1
 595 616 l 1,7,-1
 203 68 l 1,8,-1
 168 118 l 1,9,-1
 599 118 l 1,10,-1
 599 0 l 1,11,-1
 40 0 l 1,0,-1
EndSplineSet
Validated: 1048581
EndChar

StartChar: K.ss04
Encoding: 65559 -1 133
Width: 722
GlyphClass: 2
Flags: W
AnchorPoint: "Anchor-2" 363 0 basechar 0
AnchorPoint: "Anchor-0" 363 720 basechar 0
LayerCount: 2
Fore
SplineSet
50 0 m 1,0,-1
 50 720 l 1,1,-1
 204 720 l 1,2,-1
 204 0 l 1,3,-1
 50 0 l 1,0,-1
155 324 m 1,4,-1
 490 720 l 1,5,-1
 684 720 l 1,6,-1
 351 334 l 1,7,-1
 327 327 l 1,8,-1
 158 132 l 1,9,-1
 155 324 l 1,4,-1
515 0 m 1,10,-1
 251 396 l 1,11,-1
 386 456 l 1,12,-1
 704 0 l 1,13,-1
 515 0 l 1,10,-1
EndSplineSet
Validated: 1048581
EndChar

StartChar: R.ss05
Encoding: 82 82 135
Width: 662
GlyphClass: 2
Flags: W
AnchorPoint: "Anchor-2" 336 0 basechar 0
AnchorPoint: "Anchor-0" 331 720 basechar 0
LayerCount: 2
Fore
SplineSet
50 0 m 1,0,-1
 50 720 l 1,1,-1
 382 720 l 2,2,3
 460 720 460 720 515.5 696 c 128,-1,4
 571 672 571 672 600.5 627.5 c 128,-1,5
 630 583 630 583 630 520 c 0,6,7
 630 445 630 445 583 400 c 128,-1,8
 536 355 536 355 438 335 c 1,9,-1
 438 362 l 1,10,11
 524 364 524 364 571 322.5 c 128,-1,12
 618 281 618 281 622 164 c 148,-1,13
 626 47 626 47 640 0 c 5,14,-1
 471 0 l 1,15,16
 469 52 469 52 466.5 141.5 c 152,-1,17
 464 231 464 231 434 263.5 c 128,-1,18
 404 296 404 296 341 296 c 2,19,-1
 110 296 l 1,20,-1
 110 409 l 1,21,-1
 362 409 l 2,22,23
 417 409 417 409 446.5 434.5 c 128,-1,24
 476 460 476 460 476 506 c 0,25,26
 476 553 476 553 447 577.5 c 128,-1,27
 418 602 418 602 362 602 c 2,28,-1
 204 602 l 1,29,-1
 204 0 l 1,30,-1
 50 0 l 1,0,-1
EndSplineSet
Validated: 1048613
EndChar

StartChar: M.ss06
Encoding: 65561 -1 139
Width: 874
Flags: W
LayerCount: 2
Fore
SplineSet
30 0 m 1,0,-1
 107 720 l 1,1,-1
 301 720 l 1,2,-1
 478 6 l 1,3,-1
 395 6 l 1,4,-1
 571 720 l 1,5,-1
 766 720 l 1,6,-1
 844 0 l 1,7,-1
 692 0 l 1,8,-1
 620 697 l 1,9,-1
 676 697 l 1,10,-1
 513 0 l 1,11,-1
 354 0 l 1,12,-1
 193 691 l 1,13,-1
 247 691 l 1,14,-1
 176 0 l 1,15,-1
 30 0 l 1,0,-1
EndSplineSet
Validated: 5
EndChar

StartChar: G.ss07
Encoding: 65562 -1 140
Width: 776
GlyphClass: 2
Flags: W
AnchorPoint: "Anchor-2" 392 0 basechar 0
AnchorPoint: "Anchor-0" 392 720 basechar 0
LayerCount: 2
Fore
SplineSet
400 -10 m 0,0,1
 292 -10 292 -10 208.5 37.5 c 128,-1,2
 125 85 125 85 77.5 169 c 128,-1,3
 30 253 30 253 30 361 c 256,4,5
 30 469 30 469 77.5 552 c 128,-1,6
 125 635 125 635 208.5 682.5 c 128,-1,7
 292 730 292 730 401 730 c 0,8,9
 488 730 488 730 559 698 c 128,-1,10
 630 666 630 666 676.5 610.5 c 128,-1,11
 723 555 723 555 734 482 c 1,12,-1
 584 482 l 1,13,14
 575 521 575 521 549.5 549 c 128,-1,15
 524 577 524 577 486.5 592.5 c 128,-1,16
 449 608 449 608 402 608 c 0,17,18
 336 608 336 608 287.5 578 c 128,-1,19
 239 548 239 548 212.5 493 c 128,-1,20
 186 438 186 438 186 362 c 256,21,22
 186 286 186 286 212.5 229.5 c 128,-1,23
 239 173 239 173 288 142.5 c 128,-1,24
 337 112 337 112 403 112 c 0,25,26
 466 112 466 112 511 139 c 128,-1,27
 556 166 556 166 580 216 c 128,-1,28
 604 266 604 266 604 335 c 1,29,-1
 746 335 l 1,30,31
 746 230 746 230 703 152.5 c 128,-1,32
 660 75 660 75 582.5 32.5 c 128,-1,33
 505 -10 505 -10 400 -10 c 0,0,1
632 274 m 1,34,-1
 412 274 l 1,35,-1
 412 392 l 1,36,-1
 746 392 l 1,37,-1
 746 335 l 1,38,-1
 632 274 l 1,34,-1
EndSplineSet
Validated: 1048581
EndChar

StartChar: J.ss08
Encoding: 65566 -1 144
Width: 640
Flags: W
LayerCount: 2
Fore
SplineSet
312 -10 m 0,0,1
 220 -10 220 -10 157.5 27.5 c 128,-1,2
 95 65 95 65 63.5 127 c 128,-1,3
 32 189 32 189 32 263 c 1,4,-1
 182 263 l 1,5,6
 182 193 182 193 219.5 152.5 c 128,-1,7
 257 112 257 112 313 112 c 0,8,9
 350 112 350 112 379.5 126.5 c 128,-1,10
 409 141 409 141 426.5 176.5 c 128,-1,11
 444 212 444 212 444 273 c 2,12,-1
 444 720 l 1,13,-1
 598 720 l 1,14,-1
 598 299 l 2,15,16
 598 197 598 197 566.5 128.5 c 128,-1,17
 535 60 535 60 471.5 25 c 128,-1,18
 408 -10 408 -10 312 -10 c 0,0,1
EndSplineSet
Validated: 1
EndChar

StartChar: Q.ss09
Encoding: 65567 -1 145
Width: 798
Flags: W
LayerCount: 2
Fore
SplineSet
399 -10 m 256,0,1
 319 -10 319 -10 251.5 17 c 128,-1,2
 184 44 184 44 134.5 93.5 c 128,-1,3
 85 143 85 143 57.5 211.5 c 128,-1,4
 30 280 30 280 30 363 c 0,5,6
 30 473 30 473 77 555.5 c 128,-1,7
 124 638 124 638 207.5 684 c 128,-1,8
 291 730 291 730 398 730 c 0,9,10
 507 730 507 730 590 684 c 128,-1,11
 673 638 673 638 720.5 555 c 128,-1,12
 768 472 768 472 768 362 c 0,13,14
 768 280 768 280 740.5 211.5 c 128,-1,15
 713 143 713 143 663.5 93.5 c 128,-1,16
 614 44 614 44 546.5 17 c 128,-1,17
 479 -10 479 -10 399 -10 c 256,0,1
398 112 m 0,18,19
 445 112 445 112 484 130 c 128,-1,20
 523 148 523 148 552 181.5 c 128,-1,21
 581 215 581 215 596.5 261.5 c 128,-1,22
 612 308 612 308 612 364 c 0,23,24
 612 438 612 438 585 493 c 128,-1,25
 558 548 558 548 510 578 c 128,-1,26
 462 608 462 608 398 608 c 0,27,28
 335 608 335 608 287 578 c 128,-1,29
 239 548 239 548 212.5 493.5 c 128,-1,30
 186 439 186 439 186 364 c 0,31,32
 186 288 186 288 213 231.5 c 128,-1,33
 240 175 240 175 288 143.5 c 128,-1,34
 336 112 336 112 398 112 c 0,18,19
361 255 m 1,35,-1
 463 314 l 1,36,-1
 700 -97 l 1,37,-1
 598 -156 l 1,38,-1
 361 255 l 1,35,-1
EndSplineSet
Validated: 5
EndChar

StartChar: a
Encoding: 97 97 150
Width: 571
GlyphClass: 2
Flags: W
AnchorPoint: "Anchor-3" 533 0 basechar 0
AnchorPoint: "Anchor-2" 294 0 basechar 0
AnchorPoint: "Anchor-0" 298 510 basechar 0
LayerCount: 2
Fore
SplineSet
381 0 m 1,0,1
 375 22 375 22 372.5 47 c 128,-1,2
 370 72 370 72 370 105 c 1,3,-1
 366 105 l 1,4,-1
 366 346 l 2,5,6
 366 377 366 377 347.5 394.5 c 128,-1,7
 329 412 329 412 289 412 c 0,8,9
 257 412 257 412 232.5 399 c 0,10,11
 211 389 211 389 204 361 c 1,12,-1
 61 361 l 1,13,14
 71 430 71 430 132.5 475 c 128,-1,15
 194 520 194 520 294 520 c 0,16,17
 404 520 404 520 460 471 c 128,-1,18
 516 422 516 422 516 330 c 2,19,-1
 516 105 l 2,20,21
 516 80 516 80 519.5 54.5 c 128,-1,22
 523 29 523 29 531 0 c 1,23,-1
 381 0 l 1,0,1
203 -10 m 0,24,25
 127 -10 127 -10 82 28.5 c 128,-1,26
 37 67 37 67 37 131 c 0,27,28
 37 202 37 202 90.5 245.5 c 0,29,30
 147.018756743 292.015436966 147.018756743 292.015436966 240 302 c 2,31,-1
 389 318 l 5,32,-1
 389 231 l 5,33,-1
 265 217 l 2,34,35
 227 213 227 213 206 195 c 0,36,37
 187 179 187 179 187 151 c 0,38,39
 187 126 187 126 205 113 c 128,-1,40
 223 100 223 100 253 100 c 0,41,42
 300 100 300 100 333 125.5 c 128,-1,43
 366 151 366 151 366 185 c 1,44,-1
 380 105 l 1,45,46
 358 48 358 48 313 19 c 128,-1,47
 268 -10 268 -10 203 -10 c 0,24,25
EndSplineSet
Validated: 1572869
Substitution2: "'ss02' Style Set 2 in Latin lookup 23 subtable" a.ss02
Substitution2: "Single Substitution lookup 17 subtable" ordfeminine
AlternateSubs2: "'aalt' Access All Alternates in Latin lookup 1 subtable" a.ss02 ordfeminine
EndChar

StartChar: ae
Encoding: 230 230 161
Width: 887
Flags: W
LayerCount: 2
Fore
SplineSet
365 145 m 1,0,-1
 365 346 l 2,1,2
 365 377 365 377 343 394.5 c 128,-1,3
 321 412 321 412 283 412 c 0,4,5
 250 412 250 412 225.5 399 c 128,-1,6
 201 386 201 386 194 361 c 1,7,-1
 51 361 l 1,8,9
 61 430 61 430 119.5 475 c 128,-1,10
 178 520 178 520 281 520 c 0,11,12
 388 520 388 520 445 471 c 128,-1,13
 502 422 502 422 502 330 c 2,14,-1
 502 145 l 1,15,-1
 365 145 l 1,0,-1
213 -10 m 0,16,17
 135 -10 135 -10 86 29 c 128,-1,18
 37 68 37 68 37 136 c 0,19,20
 37 196 37 196 82.5 239.5 c 128,-1,21
 128 283 128 283 233 298 c 2,22,-1
 370 318 l 1,23,-1
 370 231 l 1,24,-1
 269 214 l 2,25,26
 223 207 223 207 204.5 190.5 c 128,-1,27
 186 174 186 174 186 150 c 256,28,29
 186 126 186 126 204 113 c 128,-1,30
 222 100 222 100 257 100 c 0,31,32
 280 100 280 100 305 112 c 128,-1,33
 330 124 330 124 347.5 143.5 c 128,-1,34
 365 163 365 163 365 185 c 1,35,-1
 444 145 l 1,36,37
 408 58 408 58 352 24 c 128,-1,38
 296 -10 296 -10 213 -10 c 0,16,17
623 -10 m 0,39,40
 543 -10 543 -10 484.5 23.5 c 128,-1,41
 426 57 426 57 394.5 117 c 128,-1,42
 363 177 363 177 363 255 c 0,43,44
 363 334 363 334 394.5 393.5 c 128,-1,45
 426 453 426 453 483.5 486.5 c 128,-1,46
 541 520 541 520 618 520 c 0,47,48
 692 520 692 520 748 488 c 128,-1,49
 804 456 804 456 835.5 399 c 128,-1,50
 867 342 867 342 867 265 c 0,51,52
 867 249 867 249 866 235.5 c 128,-1,53
 865 222 865 222 863 210 c 1,54,-1
 441 210 l 1,55,-1
 441 309 l 1,56,-1
 752 309 l 1,57,-1
 729 291 l 1,58,59
 729 353 729 353 701 382.5 c 128,-1,60
 673 412 673 412 624 412 c 0,61,62
 586 412 586 412 558.5 396.5 c 128,-1,63
 531 381 531 381 516.5 346 c 128,-1,64
 502 311 502 311 502 252 c 0,65,66
 502 174 502 174 533 136 c 128,-1,67
 564 98 564 98 622 98 c 0,68,69
 658 98 658 98 678.5 110 c 128,-1,70
 699 122 699 122 710 149 c 1,71,-1
 854 149 l 1,72,73
 829 75 829 75 770 32.5 c 128,-1,74
 711 -10 711 -10 623 -10 c 0,39,40
EndSplineSet
Validated: 5
EndChar

StartChar: b
Encoding: 98 98 162
Width: 628
Flags: W
LayerCount: 2
Fore
SplineSet
371 -10 m 0,0,1
 298 -10 298 -10 252.5 24 c 128,-1,2
 207 58 207 58 199 117 c 1,3,-1
 207 118 l 1,4,-1
 207 0 l 1,5,-1
 60 0 l 1,6,-1
 60 720 l 1,7,-1
 210 720 l 1,8,-1
 210 397 l 1,9,-1
 201 399 l 1,10,11
 212 455 212 455 259.5 487.5 c 128,-1,12
 307 520 307 520 379 520 c 0,13,14
 448 520 448 520 498.5 487.5 c 128,-1,15
 549 455 549 455 576.5 396 c 128,-1,16
 604 337 604 337 604 257 c 0,17,18
 604 176 604 176 575 116 c 128,-1,19
 546 56 546 56 494 23 c 128,-1,20
 442 -10 442 -10 371 -10 c 0,0,1
329 110 m 0,21,22
 382 110 382 110 415 148 c 128,-1,23
 448 186 448 186 448 256 c 256,24,25
 448 326 448 326 414.5 363 c 128,-1,26
 381 400 381 400 327 400 c 0,27,28
 275 400 275 400 241.5 362.5 c 128,-1,29
 208 325 208 325 208 255 c 256,30,31
 208 185 208 185 241.5 147.5 c 128,-1,32
 275 110 275 110 329 110 c 0,21,22
EndSplineSet
Validated: 5
EndChar

StartChar: c
Encoding: 99 99 163
Width: 562
GlyphClass: 2
Flags: W
AnchorPoint: "Anchor-2" 283 0 basechar 0
AnchorPoint: "Anchor-0" 295 510 basechar 0
LayerCount: 2
Fore
SplineSet
291 -10 m 0,0,1
 211 -10 211 -10 150 24 c 128,-1,2
 89 58 89 58 54.5 118 c 128,-1,3
 20 178 20 178 20 255 c 256,4,5
 20 332 20 332 54.5 392 c 128,-1,6
 89 452 89 452 150 486 c 128,-1,7
 211 520 211 520 291 520 c 0,8,9
 358 520 358 520 411.5 495.5 c 128,-1,10
 465 471 465 471 499.5 428 c 128,-1,11
 534 385 534 385 544 327 c 1,12,-1
 399 327 l 1,13,14
 388 364 388 364 359.5 383 c 128,-1,15
 331 402 331 402 293 402 c 0,16,17
 257 402 257 402 230.5 384 c 128,-1,18
 204 366 204 366 190 333 c 128,-1,19
 176 300 176 300 176 255 c 256,20,21
 176 210 176 210 190 177 c 128,-1,22
 204 144 204 144 230.5 126 c 128,-1,23
 257 108 257 108 293 108 c 0,24,25
 331 108 331 108 359.5 127 c 128,-1,26
 388 146 388 146 399 183 c 1,27,-1
 544 183 l 1,28,29
 534 125 534 125 499.5 82 c 128,-1,30
 465 39 465 39 411.5 14.5 c 128,-1,31
 358 -10 358 -10 291 -10 c 0,0,1
EndSplineSet
Validated: 1048577
EndChar

StartChar: d
Encoding: 100 100 168
Width: 628
GlyphClass: 2
Flags: W
AnchorPoint: "Anchor-2" 314 0 basechar 0
AnchorPoint: "Anchor-1" 618 720 basechar 0
AnchorPoint: "Anchor-0" 314 740 basechar 0
LayerCount: 2
Fore
SplineSet
421 0 m 1,0,-1
 421 113 l 1,1,-1
 431 111 l 1,2,3
 421 56 421 56 371.5 23 c 128,-1,4
 322 -10 322 -10 253 -10 c 0,5,6
 183 -10 183 -10 131.5 22.5 c 128,-1,7
 80 55 80 55 52 114 c 128,-1,8
 24 173 24 173 24 253 c 0,9,10
 24 334 24 334 53 394 c 128,-1,11
 82 454 82 454 134.5 487 c 128,-1,12
 187 520 187 520 257 520 c 0,13,14
 330 520 330 520 375.5 486 c 128,-1,15
 421 452 421 452 429 393 c 1,16,-1
 418 392 l 1,17,-1
 418 720 l 1,18,-1
 568 720 l 1,19,-1
 568 0 l 1,20,-1
 421 0 l 1,0,-1
301 110 m 0,21,22
 354 110 354 110 387 147.5 c 128,-1,23
 420 185 420 185 420 255 c 256,24,25
 420 325 420 325 386.5 362.5 c 128,-1,26
 353 400 353 400 299 400 c 0,27,28
 247 400 247 400 213.5 362 c 128,-1,29
 180 324 180 324 180 254 c 256,30,31
 180 184 180 184 213.5 147 c 128,-1,32
 247 110 247 110 301 110 c 0,21,22
EndSplineSet
Validated: 1048581
EndChar

StartChar: eth
Encoding: 240 240 169
Width: 616
Flags: W
LayerCount: 2
Fore
SplineSet
303 -10 m 0,0,1
 225 -10 225 -10 163 20 c 128,-1,2
 101 50 101 50 65.5 107 c 128,-1,3
 30 164 30 164 30 245 c 0,4,5
 30 324 30 324 66.5 379.5 c 128,-1,6
 103 435 103 435 161.5 464.5 c 128,-1,7
 220 494 220 494 287 494 c 0,8,9
 343 494 343 494 383.5 475 c 128,-1,10
 424 456 424 456 448.5 421 c 128,-1,11
 473 386 473 386 479 338 c 1,12,-1
 440 289 l 1,13,-1
 440 354 l 2,14,15
 440 442 440 442 405.5 504 c 128,-1,16
 371 566 371 566 298 599 c 128,-1,17
 225 632 225 632 110 632 c 1,18,-1
 134 730 l 1,19,20
 244 730 244 730 329 702.5 c 128,-1,21
 414 675 414 675 472.5 622 c 128,-1,22
 531 569 531 569 561.5 491.5 c 128,-1,23
 592 414 592 414 592 314 c 0,24,25
 592 161 592 161 520.5 75.5 c 128,-1,26
 449 -10 449 -10 303 -10 c 0,0,1
308 108 m 0,27,28
 340 108 340 108 368.5 122.5 c 128,-1,29
 397 137 397 137 415 168 c 128,-1,30
 433 199 433 199 433 246 c 256,31,32
 433 293 433 293 416 322 c 128,-1,33
 399 351 399 351 371 364.5 c 128,-1,34
 343 378 343 378 310 378 c 0,35,36
 262 378 262 378 227 345.5 c 128,-1,37
 192 313 192 313 192 244 c 0,38,39
 192 196 192 196 208 166 c 128,-1,40
 224 136 224 136 250.5 122 c 128,-1,41
 277 108 277 108 308 108 c 0,27,28
211 503 m 1,42,-1
 165 576 l 1,43,-1
 453 756 l 1,44,-1
 499 683 l 1,45,-1
 211 503 l 1,42,-1
EndSplineSet
Validated: 5
EndChar

StartChar: dcroat
Encoding: 273 273 171
Width: 628
GlyphClass: 2
Flags: W
AnchorPoint: "Anchor-2" 314 0 basechar 0
AnchorPoint: "Anchor-1" 618 720 basechar 0
AnchorPoint: "Anchor-0" 314 740 basechar 0
LayerCount: 2
Fore
SplineSet
242 578 m 1,0,-1
 242 676 l 1,1,-1
 628 676 l 1,2,-1
 628 578 l 1,3,-1
 242 578 l 1,0,-1
421 0 m 1,4,-1
 421 113 l 1,5,-1
 431 111 l 1,6,7
 421 56 421 56 371.5 23 c 128,-1,8
 322 -10 322 -10 253 -10 c 0,9,10
 183 -10 183 -10 131.5 22.5 c 128,-1,11
 80 55 80 55 52 114 c 128,-1,12
 24 173 24 173 24 253 c 0,13,14
 24 334 24 334 53 394 c 128,-1,15
 82 454 82 454 134.5 487 c 128,-1,16
 187 520 187 520 257 520 c 0,17,18
 330 520 330 520 375.5 486 c 128,-1,19
 421 452 421 452 429 393 c 1,20,-1
 418 392 l 1,21,-1
 418 720 l 1,22,-1
 568 720 l 1,23,-1
 568 0 l 1,24,-1
 421 0 l 1,4,-1
301 110 m 0,25,26
 354 110 354 110 387 147.5 c 128,-1,27
 420 185 420 185 420 255 c 256,28,29
 420 325 420 325 386.5 362.5 c 128,-1,30
 353 400 353 400 299 400 c 0,31,32
 247 400 247 400 213.5 362 c 128,-1,33
 180 324 180 324 180 254 c 256,34,35
 180 184 180 184 213.5 147 c 128,-1,36
 247 110 247 110 301 110 c 0,25,26
EndSplineSet
Validated: 1048581
EndChar

StartChar: e
Encoding: 101 101 172
Width: 574
GlyphClass: 2
Flags: W
AnchorPoint: "Anchor-3" 435 20 basechar 0
AnchorPoint: "Anchor-2" 287 0 basechar 0
AnchorPoint: "Anchor-0" 297 510 basechar 0
LayerCount: 2
Fore
SplineSet
300 -10 m 0,0,1
 215 -10 215 -10 152 23.5 c 128,-1,2
 89 57 89 57 54.5 117 c 128,-1,3
 20 177 20 177 20 255 c 0,4,5
 20 334 20 334 54.5 393.5 c 128,-1,6
 89 453 89 453 151 486.5 c 128,-1,7
 213 520 213 520 295 520 c 0,8,9
 374 520 374 520 432 488 c 128,-1,10
 490 456 490 456 522 399 c 128,-1,11
 554 342 554 342 554 265 c 0,12,13
 554 249 554 249 553 235.5 c 128,-1,14
 552 222 552 222 550 210 c 1,15,-1
 108 210 l 1,16,-1
 108 309 l 1,17,-1
 429 309 l 1,18,-1
 403 291 l 1,19,20
 403 353 403 353 373.5 382.5 c 128,-1,21
 344 412 344 412 293 412 c 0,22,23
 234 412 234 412 201.5 372 c 128,-1,24
 169 332 169 332 169 252 c 0,25,26
 169 174 169 174 201.5 136 c 128,-1,27
 234 98 234 98 299 98 c 0,28,29
 335 98 335 98 361 110 c 128,-1,30
 387 122 387 122 400 149 c 1,31,-1
 541 149 l 1,32,33
 516 75 516 75 455.5 32.5 c 128,-1,34
 395 -10 395 -10 300 -10 c 0,0,1
EndSplineSet
Validated: 1048581
EndChar

StartChar: f
Encoding: 102 102 181
Width: 378
Flags: W
LayerCount: 2
Fore
SplineSet
99 0 m 1,0,-1
 99 544 l 2,1,2
 99 636 99 636 149 683 c 128,-1,3
 199 730 199 730 297 730 c 0,4,5
 318 730 318 730 333.5 728 c 128,-1,6
 349 726 349 726 364 721 c 1,7,-1
 364 606 l 1,8,9
 357 609 357 609 347 610.5 c 128,-1,10
 337 612 337 612 323 612 c 0,11,12
 285 612 285 612 267 594 c 128,-1,13
 249 576 249 576 249 542 c 2,14,-1
 249 0 l 1,15,-1
 99 0 l 1,0,-1
14 396 m 1,16,-1
 14 510 l 1,17,-1
 353 510 l 1,18,-1
 353 396 l 1,19,-1
 14 396 l 1,16,-1
EndSplineSet
Validated: 5
EndChar

StartChar: g
Encoding: 103 103 182
Width: 628
GlyphClass: 2
Flags: W
AnchorPoint: "Anchor-2" 314 -205 basechar 0
AnchorPoint: "Anchor-0" 299 510 basechar 0
LayerCount: 2
Fore
SplineSet
295 -215 m 0,0,1
 189 -215 189 -215 122.5 -170 c 128,-1,2
 56 -125 56 -125 44 -48 c 1,3,-1
 186 -48 l 1,4,5
 194 -67 194 -67 220.5 -77 c 128,-1,6
 247 -87 247 -87 288 -87 c 0,7,8
 356 -87 356 -87 387 -61 c 128,-1,9
 418 -35 418 -35 418 20 c 2,10,-1
 418 131 l 1,11,-1
 426 129 l 1,12,13
 416 73 416 73 368 40.5 c 128,-1,14
 320 8 320 8 249 8 c 0,15,16
 181 8 181 8 130.5 39.5 c 128,-1,17
 80 71 80 71 52 128 c 128,-1,18
 24 185 24 185 24 262 c 0,19,20
 24 340 24 340 53 398 c 128,-1,21
 82 456 82 456 134.5 488 c 128,-1,22
 187 520 187 520 257 520 c 0,23,24
 329 520 329 520 374.5 486 c 128,-1,25
 420 452 420 452 428 393 c 1,26,-1
 421 392 l 1,27,-1
 421 510 l 1,28,-1
 568 510 l 1,29,-1
 568 22 l 2,30,31
 568 -88 568 -88 495 -151.5 c 128,-1,32
 422 -215 422 -215 295 -215 c 0,0,1
301 123 m 0,33,34
 354 123 354 123 387 159.5 c 128,-1,35
 420 196 420 196 420 264 c 256,36,37
 420 332 420 332 386.5 368.5 c 128,-1,38
 353 405 353 405 299 405 c 0,39,40
 247 405 247 405 213.5 368 c 128,-1,41
 180 331 180 331 180 263 c 256,42,43
 180 195 180 195 213.5 159 c 128,-1,44
 247 123 247 123 301 123 c 0,33,34
EndSplineSet
Validated: 1048581
EndChar

StartChar: h
Encoding: 104 104 186
Width: 619
GlyphClass: 2
Flags: W
AnchorPoint: "Anchor-2" 290 0 basechar 0
AnchorPoint: "Anchor-0" 290 510 basechar 0
LayerCount: 2
Fore
SplineSet
60 0 m 1,0,-1
 60 720 l 1,1,-1
 210 720 l 1,2,-1
 210 0 l 1,3,-1
 60 0 l 1,0,-1
415 0 m 1,4,-1
 415 316 l 2,5,6
 415 358 415 358 393.5 379 c 128,-1,7
 372 400 372 400 331 400 c 0,8,9
 296 400 296 400 268.5 384 c 128,-1,10
 241 368 241 368 225.5 340 c 128,-1,11
 210 312 210 312 210 274 c 1,12,-1
 197 397 l 1,13,14
 222 453 222 453 270.5 486.5 c 128,-1,15
 319 520 319 520 390 520 c 0,16,17
 475 520 475 520 520 472.5 c 128,-1,18
 565 425 565 425 565 345 c 2,19,-1
 565 0 l 1,20,-1
 415 0 l 1,4,-1
EndSplineSet
Validated: 1048581
EndChar

StartChar: hbar
Encoding: 295 295 187
Width: 619
GlyphClass: 2
Flags: W
AnchorPoint: "Anchor-2" 290 0 basechar 0
AnchorPoint: "Anchor-0" 290 510 basechar 0
LayerCount: 2
Fore
SplineSet
0 578 m 1,0,-1
 0 676 l 1,1,-1
 386 676 l 1,2,-1
 386 578 l 1,3,-1
 0 578 l 1,0,-1
60 0 m 1,4,-1
 60 720 l 1,5,-1
 210 720 l 1,6,-1
 210 0 l 1,7,-1
 60 0 l 1,4,-1
415 0 m 1,8,-1
 415 316 l 2,9,10
 415 358 415 358 393.5 379 c 128,-1,11
 372 400 372 400 331 400 c 0,12,13
 296 400 296 400 268.5 384 c 128,-1,14
 241 368 241 368 225.5 340 c 128,-1,15
 210 312 210 312 210 274 c 1,16,-1
 197 397 l 1,17,18
 222 453 222 453 270.5 486.5 c 128,-1,19
 319 520 319 520 390 520 c 0,20,21
 475 520 475 520 520 472.5 c 128,-1,22
 565 425 565 425 565 345 c 2,23,-1
 565 0 l 1,24,-1
 415 0 l 1,8,-1
EndSplineSet
Validated: 1048581
EndChar

StartChar: dotlessi
Encoding: 305 305 189
Width: 270
GlyphClass: 2
Flags: W
AnchorPoint: "Anchor-3" 210 0 basechar 0
AnchorPoint: "Anchor-2" 135 0 basechar 0
AnchorPoint: "Anchor-0" 135 510 basechar 0
LayerCount: 2
Fore
SplineSet
60 0 m 1,0,-1
 60 510 l 1,1,-1
 210 510 l 1,2,-1
 210 0 l 1,3,-1
 60 0 l 1,0,-1
EndSplineSet
Validated: 1048577
EndChar

StartChar: uni0237
Encoding: 567 567 199
Width: 270
GlyphClass: 2
Flags: W
AnchorPoint: "Anchor-2" 135 -205 basechar 0
AnchorPoint: "Anchor-0" 135 510 basechar 0
LayerCount: 2
Fore
SplineSet
32 -215 m 0,0,1
 15 -215 15 -215 0 -212.5 c 128,-1,2
 -15 -210 -15 -210 -30 -206 c 1,3,-1
 -30 -91 l 1,4,5
 -22 -94 -22 -94 -13 -95.5 c 128,-1,6
 -4 -97 -4 -97 6 -97 c 0,7,8
 32 -97 32 -97 46 -84.5 c 128,-1,9
 60 -72 60 -72 60 -47 c 2,10,-1
 60 510 l 1,11,-1
 210 510 l 1,12,-1
 210 -49 l 2,13,14
 210 -126 210 -126 166.5 -170.5 c 128,-1,15
 123 -215 123 -215 32 -215 c 0,0,1
EndSplineSet
Validated: 1048577
EndChar

StartChar: k
Encoding: 107 107 200
Width: 569
GlyphClass: 2
Flags: W
AnchorPoint: "Anchor-2" 285 0 basechar 0
AnchorPoint: "Anchor-0" 285 740 basechar 0
LayerCount: 2
Fore
SplineSet
60 0 m 1,0,-1
 60 720 l 1,1,-1
 210 720 l 1,2,-1
 210 0 l 1,3,-1
 60 0 l 1,0,-1
387 0 m 1,4,-1
 175 265 l 1,5,-1
 382 510 l 1,6,-1
 555 510 l 1,7,-1
 312 242 l 1,8,-1
 319 289 l 1,9,-1
 565 0 l 1,10,-1
 387 0 l 1,4,-1
EndSplineSet
Validated: 1048581
Substitution2: "'ss04' Style Set 4 in Latin lookup 25 subtable" k.ss04
Substitution2: "'aalt' Access All Alternates in Latin lookup 0 subtable" k.ss04
EndChar

StartChar: l
Encoding: 108 108 202
Width: 270
GlyphClass: 2
Flags: W
AnchorPoint: "Anchor-2" 135 0 basechar 0
AnchorPoint: "Anchor-1" 260 720 basechar 0
AnchorPoint: "Anchor-0" 135 720 basechar 0
LayerCount: 2
Fore
SplineSet
60 0 m 1,0,-1
 60 720 l 1,1,-1
 210 720 l 1,2,-1
 210 0 l 1,3,-1
 60 0 l 1,0,-1
EndSplineSet
Validated: 1048577
EndChar

StartChar: lslash
Encoding: 322 322 206
Width: 310
GlyphClass: 2
Flags: W
AnchorPoint: "Anchor-2" 155 0 basechar 0
AnchorPoint: "Anchor-1" 280 720 basechar 0
AnchorPoint: "Anchor-0" 155 720 basechar 0
LayerCount: 2
Fore
SplineSet
161 330 m 1,0,-1
 10 268 l 1,1,-1
 10 366 l 1,2,-1
 161 428 l 1,3,-1
 161 330 l 1,0,-1
161 438 m 1,4,-1
 300 496 l 1,5,-1
 300 398 l 1,6,-1
 161 340 l 1,7,-1
 161 438 l 1,4,-1
80 0 m 1,8,-1
 80 720 l 1,9,-1
 230 720 l 1,10,-1
 230 0 l 1,11,-1
 80 0 l 1,8,-1
EndSplineSet
Validated: 1048581
EndChar

StartChar: m
Encoding: 109 109 207
Width: 950
Flags: W
LayerCount: 2
Fore
SplineSet
60 0 m 1,0,-1
 60 510 l 1,1,-1
 207 510 l 1,2,-1
 207 390 l 1,3,-1
 210 390 l 1,4,-1
 210 0 l 1,5,-1
 60 0 l 1,0,-1
403 0 m 1,6,-1
 403 324 l 2,7,8
 403 363 403 363 382.5 381.5 c 128,-1,9
 362 400 362 400 325 400 c 0,10,11
 293 400 293 400 266.5 385.5 c 128,-1,12
 240 371 240 371 225 344.5 c 128,-1,13
 210 318 210 318 210 282 c 1,14,-1
 197 397 l 1,15,16
 222 453 222 453 269.5 486.5 c 128,-1,17
 317 520 317 520 384 520 c 0,18,19
 464 520 464 520 508.5 475 c 128,-1,20
 553 430 553 430 553 362 c 2,21,-1
 553 0 l 1,22,-1
 403 0 l 1,6,-1
746 0 m 1,23,-1
 746 324 l 2,24,25
 746 363 746 363 725.5 381.5 c 128,-1,26
 705 400 705 400 668 400 c 0,27,28
 636 400 636 400 609.5 385.5 c 128,-1,29
 583 371 583 371 568 344.5 c 128,-1,30
 553 318 553 318 553 282 c 1,31,-1
 530 397 l 1,32,33
 555 453 555 453 604.5 486.5 c 128,-1,34
 654 520 654 520 724 520 c 0,35,36
 807 520 807 520 851.5 473.5 c 128,-1,37
 896 427 896 427 896 352 c 2,38,-1
 896 0 l 1,39,-1
 746 0 l 1,23,-1
EndSplineSet
Validated: 5
EndChar

StartChar: n
Encoding: 110 110 208
Width: 619
GlyphClass: 2
Flags: W
AnchorPoint: "Anchor-2" 318 0 basechar 0
AnchorPoint: "Anchor-0" 331 510 basechar 0
LayerCount: 2
Fore
SplineSet
60 0 m 1,0,-1
 60 510 l 1,1,-1
 207 510 l 1,2,-1
 207 390 l 1,3,-1
 210 390 l 1,4,-1
 210 0 l 1,5,-1
 60 0 l 1,0,-1
415 0 m 1,6,-1
 415 316 l 2,7,8
 415 358 415 358 393.5 379 c 128,-1,9
 372 400 372 400 331 400 c 0,10,11
 296 400 296 400 268.5 384 c 128,-1,12
 241 368 241 368 225.5 340 c 128,-1,13
 210 312 210 312 210 274 c 1,14,-1
 197 397 l 1,15,16
 222 453 222 453 270.5 486.5 c 128,-1,17
 319 520 319 520 390 520 c 0,18,19
 475 520 475 520 520 472.5 c 128,-1,20
 565 425 565 425 565 345 c 2,21,-1
 565 0 l 1,22,-1
 415 0 l 1,6,-1
EndSplineSet
Validated: 1048581
EndChar

StartChar: eng
Encoding: 331 331 213
Width: 619
Flags: W
LayerCount: 2
Fore
SplineSet
387 -215 m 0,0,1
 370 -215 370 -215 355 -212.5 c 128,-1,2
 340 -210 340 -210 325 -206 c 1,3,-1
 325 -91 l 1,4,5
 333 -94 333 -94 342 -95.5 c 128,-1,6
 351 -97 351 -97 361 -97 c 0,7,8
 387 -97 387 -97 401 -84.5 c 128,-1,9
 415 -72 415 -72 415 -47 c 2,10,-1
 415 316 l 2,11,12
 415 358 415 358 393.5 379 c 128,-1,13
 372 400 372 400 331 400 c 0,14,15
 296 400 296 400 268.5 384 c 128,-1,16
 241 368 241 368 225.5 340 c 128,-1,17
 210 312 210 312 210 274 c 1,18,-1
 197 397 l 1,19,20
 222 453 222 453 270.5 486.5 c 128,-1,21
 319 520 319 520 390 520 c 0,22,23
 475 520 475 520 520 472.5 c 128,-1,24
 565 425 565 425 565 345 c 2,25,-1
 565 -49 l 2,26,27
 565 -126 565 -126 521.5 -170.5 c 128,-1,28
 478 -215 478 -215 387 -215 c 0,0,1
60 0 m 1,29,-1
 60 510 l 1,30,-1
 207 510 l 1,31,-1
 207 390 l 1,32,-1
 210 390 l 1,33,-1
 210 0 l 1,34,-1
 60 0 l 1,29,-1
EndSplineSet
Validated: 5
EndChar

StartChar: o
Encoding: 111 111 214
Width: 604
GlyphClass: 2
Flags: W
AnchorPoint: "Anchor-3" 442 20 basechar 0
AnchorPoint: "Anchor-2" 302 0 basechar 0
AnchorPoint: "Anchor-1" 584 510 basechar 0
AnchorPoint: "Anchor-0" 302 510 basechar 0
LayerCount: 2
Fore
SplineSet
302 -10 m 256,0,1
 218 -10 218 -10 154.5 23.5 c 128,-1,2
 91 57 91 57 55.5 117.5 c 128,-1,3
 20 178 20 178 20 257 c 256,4,5
 20 336 20 336 55.5 395 c 128,-1,6
 91 454 91 454 154.5 487 c 128,-1,7
 218 520 218 520 302 520 c 0,8,9
 387 520 387 520 450.5 487 c 128,-1,10
 514 454 514 454 549 395 c 128,-1,11
 584 336 584 336 584 257 c 256,12,13
 584 178 584 178 548.5 117.5 c 128,-1,14
 513 57 513 57 449.5 23.5 c 128,-1,15
 386 -10 386 -10 302 -10 c 256,0,1
302 108 m 256,16,17
 337 108 337 108 365.5 126 c 128,-1,18
 394 144 394 144 411 177.5 c 128,-1,19
 428 211 428 211 428 258 c 0,20,21
 428 327 428 327 391.5 364.5 c 128,-1,22
 355 402 355 402 302 402 c 256,23,24
 249 402 249 402 212.5 364 c 128,-1,25
 176 326 176 326 176 258 c 0,26,27
 176 211 176 211 193 177.5 c 128,-1,28
 210 144 210 144 238.5 126 c 128,-1,29
 267 108 267 108 302 108 c 256,16,17
EndSplineSet
Validated: 1
Substitution2: "Single Substitution lookup 17 subtable" ordmasculine
Substitution2: "'aalt' Access All Alternates in Latin lookup 0 subtable" ordmasculine
EndChar

StartChar: oslash
Encoding: 248 248 221
Width: 604
Flags: W
LayerCount: 2
Fore
SplineSet
302 -10 m 256,0,1
 218 -10 218 -10 154.5 23.5 c 128,-1,2
 91 57 91 57 55.5 117.5 c 128,-1,3
 20 178 20 178 20 257 c 256,4,5
 20 336 20 336 55.5 395 c 128,-1,6
 91 454 91 454 154.5 487 c 128,-1,7
 218 520 218 520 302 520 c 0,8,9
 387 520 387 520 450.5 487 c 128,-1,10
 514 454 514 454 549 395 c 128,-1,11
 584 336 584 336 584 257 c 256,12,13
 584 178 584 178 548.5 117.5 c 128,-1,14
 513 57 513 57 449.5 23.5 c 128,-1,15
 386 -10 386 -10 302 -10 c 256,0,1
302 103 m 256,16,17
 340 103 340 103 369.5 121.5 c 128,-1,18
 399 140 399 140 416 175 c 128,-1,19
 433 210 433 210 433 258 c 0,20,21
 433 329 433 329 396.5 368 c 128,-1,22
 360 407 360 407 302 407 c 256,23,24
 244 407 244 407 207.5 368 c 128,-1,25
 171 329 171 329 171 258 c 0,26,27
 171 210 171 210 188 175 c 128,-1,28
 205 140 205 140 234.5 121.5 c 128,-1,29
 264 103 264 103 302 103 c 256,16,17
96 -20 m 1,30,-1
 27 49 l 1,31,-1
 508 530 l 1,32,-1
 577 461 l 1,33,-1
 96 -20 l 1,30,-1
EndSplineSet
Validated: 5
EndChar

StartChar: oe
Encoding: 339 339 223
Width: 949
Flags: W
LayerCount: 2
Fore
SplineSet
292 -10 m 256,0,1
 213 -10 213 -10 151.5 23.5 c 128,-1,2
 90 57 90 57 55 117.5 c 128,-1,3
 20 178 20 178 20 257 c 256,4,5
 20 336 20 336 55 395 c 128,-1,6
 90 454 90 454 151.5 487 c 128,-1,7
 213 520 213 520 292 520 c 0,8,9
 372 520 372 520 431 487 c 128,-1,10
 490 454 490 454 522 395 c 128,-1,11
 554 336 554 336 554 257 c 256,12,13
 554 178 554 178 521.5 117.5 c 128,-1,14
 489 57 489 57 430 23.5 c 128,-1,15
 371 -10 371 -10 292 -10 c 256,0,1
292 108 m 0,16,17
 326 108 326 108 352 126 c 128,-1,18
 378 144 378 144 393 177.5 c 128,-1,19
 408 211 408 211 408 258 c 0,20,21
 408 304 408 304 393 336 c 128,-1,22
 378 368 378 368 352 385 c 128,-1,23
 326 402 326 402 292 402 c 256,24,25
 258 402 258 402 232 385 c 128,-1,26
 206 368 206 368 191 336 c 128,-1,27
 176 304 176 304 176 258 c 0,28,29
 176 211 176 211 191 177.5 c 128,-1,30
 206 144 206 144 232.5 126 c 128,-1,31
 259 108 259 108 292 108 c 0,16,17
685 -10 m 0,32,33
 605 -10 605 -10 544 23.5 c 128,-1,34
 483 57 483 57 449 117 c 128,-1,35
 415 177 415 177 415 255 c 0,36,37
 415 334 415 334 449 393.5 c 128,-1,38
 483 453 483 453 543 486.5 c 128,-1,39
 603 520 603 520 680 520 c 0,40,41
 754 520 754 520 810 488 c 128,-1,42
 866 456 866 456 897.5 399 c 128,-1,43
 929 342 929 342 929 265 c 0,44,45
 929 249 929 249 928 235.5 c 128,-1,46
 927 222 927 222 925 210 c 1,47,-1
 503 210 l 1,48,-1
 503 309 l 1,49,-1
 804 309 l 1,50,-1
 782 291 l 1,51,52
 782 353 782 353 754 382.5 c 128,-1,53
 726 412 726 412 681 412 c 0,54,55
 645 412 645 412 618.5 394.5 c 128,-1,56
 592 377 592 377 578 341.5 c 128,-1,57
 564 306 564 306 564 252 c 0,58,59
 564 200 564 200 578 166 c 128,-1,60
 592 132 592 132 619 115 c 128,-1,61
 646 98 646 98 684 98 c 0,62,63
 713 98 713 98 737 110 c 128,-1,64
 761 122 761 122 772 149 c 1,65,-1
 916 149 l 1,66,67
 891 75 891 75 832 32.5 c 128,-1,68
 773 -10 773 -10 685 -10 c 0,32,33
EndSplineSet
Validated: 5
EndChar

StartChar: p
Encoding: 112 112 224
Width: 628
Flags: W
LayerCount: 2
Fore
SplineSet
371 -10 m 0,0,1
 298 -10 298 -10 254 24 c 128,-1,2
 210 58 210 58 202 117 c 1,3,-1
 210 118 l 1,4,-1
 210 -205 l 1,5,-1
 60 -205 l 1,6,-1
 60 510 l 1,7,-1
 207 510 l 1,8,-1
 207 397 l 1,9,-1
 198 399 l 1,10,11
 209 455 209 455 258 487.5 c 128,-1,12
 307 520 307 520 379 520 c 0,13,14
 448 520 448 520 498.5 487.5 c 128,-1,15
 549 455 549 455 576.5 396 c 128,-1,16
 604 337 604 337 604 257 c 0,17,18
 604 176 604 176 575 116 c 128,-1,19
 546 56 546 56 494 23 c 128,-1,20
 442 -10 442 -10 371 -10 c 0,0,1
329 110 m 0,21,22
 382 110 382 110 415 148 c 128,-1,23
 448 186 448 186 448 256 c 256,24,25
 448 326 448 326 414.5 363 c 128,-1,26
 381 400 381 400 327 400 c 0,27,28
 275 400 275 400 241.5 362.5 c 128,-1,29
 208 325 208 325 208 255 c 256,30,31
 208 185 208 185 241.5 147.5 c 128,-1,32
 275 110 275 110 329 110 c 0,21,22
EndSplineSet
Validated: 5
EndChar

StartChar: thorn
Encoding: 254 254 225
Width: 628
Flags: W
LayerCount: 2
Fore
SplineSet
371 -10 m 0,0,1
 298 -10 298 -10 254 24 c 128,-1,2
 210 58 210 58 202 117 c 1,3,-1
 210 118 l 1,4,-1
 210 -205 l 1,5,-1
 60 -205 l 1,6,-1
 60 720 l 1,7,-1
 210 720 l 1,8,-1
 210 397 l 1,9,-1
 198 399 l 1,10,11
 209 455 209 455 258 487.5 c 128,-1,12
 307 520 307 520 379 520 c 0,13,14
 448 520 448 520 498.5 487.5 c 128,-1,15
 549 455 549 455 576.5 396 c 128,-1,16
 604 337 604 337 604 257 c 0,17,18
 604 176 604 176 575 116 c 128,-1,19
 546 56 546 56 494 23 c 128,-1,20
 442 -10 442 -10 371 -10 c 0,0,1
329 110 m 0,21,22
 384 110 384 110 416 148 c 128,-1,23
 448 186 448 186 448 256 c 256,24,25
 448 326 448 326 415.5 363 c 128,-1,26
 383 400 383 400 327 400 c 0,27,28
 272 400 272 400 240 362.5 c 128,-1,29
 208 325 208 325 208 255 c 256,30,31
 208 185 208 185 240.5 147.5 c 128,-1,32
 273 110 273 110 329 110 c 0,21,22
EndSplineSet
Validated: 5
EndChar

StartChar: q
Encoding: 113 113 226
Width: 628
Flags: W
LayerCount: 2
Fore
SplineSet
418 -205 m 1,0,-1
 418 113 l 1,1,-1
 431 111 l 1,2,3
 421 56 421 56 371.5 23 c 128,-1,4
 322 -10 322 -10 253 -10 c 0,5,6
 183 -10 183 -10 131.5 22.5 c 128,-1,7
 80 55 80 55 52 114 c 128,-1,8
 24 173 24 173 24 253 c 0,9,10
 24 334 24 334 53 394 c 128,-1,11
 82 454 82 454 134.5 487 c 128,-1,12
 187 520 187 520 257 520 c 0,13,14
 330 520 330 520 375.5 486 c 128,-1,15
 421 452 421 452 429 393 c 1,16,-1
 421 392 l 1,17,-1
 421 510 l 1,18,-1
 568 510 l 1,19,-1
 568 -205 l 1,20,-1
 418 -205 l 1,0,-1
301 110 m 0,21,22
 356 110 356 110 388 147.5 c 128,-1,23
 420 185 420 185 420 255 c 256,24,25
 420 325 420 325 387.5 362.5 c 128,-1,26
 355 400 355 400 299 400 c 0,27,28
 244 400 244 400 212 362 c 128,-1,29
 180 324 180 324 180 254 c 256,30,31
 180 184 180 184 212.5 147 c 128,-1,32
 245 110 245 110 301 110 c 0,21,22
EndSplineSet
Validated: 5
EndChar

StartChar: r
Encoding: 114 114 227
Width: 398
GlyphClass: 2
Flags: W
AnchorPoint: "Anchor-2" 132 0 basechar 0
AnchorPoint: "Anchor-0" 217 510 basechar 0
LayerCount: 2
Fore
SplineSet
60 0 m 1,0,-1
 60 510 l 1,1,-1
 207 510 l 1,2,-1
 207 390 l 1,3,-1
 210 390 l 1,4,-1
 210 0 l 1,5,-1
 60 0 l 1,0,-1
210 266 m 1,6,-1
 197 387 l 1,7,8
 215 452 215 452 256 486 c 128,-1,9
 297 520 297 520 358 520 c 0,10,11
 377 520 377 520 386 516 c 1,12,-1
 386 376 l 1,13,14
 381 378 381 378 372 378.5 c 128,-1,15
 363 379 363 379 350 379 c 0,16,17
 278 379 278 379 244 353.5 c 128,-1,18
 210 328 210 328 210 266 c 1,6,-1
EndSplineSet
Validated: 1048581
EndChar

StartChar: s
Encoding: 115 115 231
Width: 504
GlyphClass: 2
Flags: W
AnchorPoint: "Anchor-2" 263 0 basechar 0
AnchorPoint: "Anchor-0" 252 510 basechar 0
LayerCount: 2
Fore
SplineSet
266 -10 m 0,0,1
 154 -10 154 -10 88 35 c 128,-1,2
 22 80 22 80 16 159 c 1,3,-1
 150 159 l 1,4,5
 155 125 155 125 184.5 107.5 c 128,-1,6
 214 90 214 90 266 90 c 0,7,8
 313 90 313 90 334.5 103.5 c 128,-1,9
 356 117 356 117 356 142 c 0,10,11
 356 161 356 161 343.5 171.5 c 128,-1,12
 331 182 331 182 298 189 c 2,13,-1
 216 206 l 2,14,15
 125 225 125 225 82 263.5 c 128,-1,16
 39 302 39 302 39 363 c 0,17,18
 39 437 39 437 96 478.5 c 128,-1,19
 153 520 153 520 255 520 c 0,20,21
 356 520 356 520 416 479.5 c 128,-1,22
 476 439 476 439 482 367 c 1,23,-1
 348 367 l 1,24,25
 344 393 344 393 320 406.5 c 128,-1,26
 296 420 296 420 252 420 c 0,27,28
 212 420 212 420 192.5 408.5 c 128,-1,29
 173 397 173 397 173 376 c 0,30,31
 173 358 173 358 189 347.5 c 128,-1,32
 205 337 205 337 242 329 c 2,33,-1
 334 310 l 2,34,35
 411 294 411 294 450.5 250.5 c 128,-1,36
 490 207 490 207 490 148 c 0,37,38
 490 73 490 73 431.5 31.5 c 128,-1,39
 373 -10 373 -10 266 -10 c 0,0,1
EndSplineSet
Validated: 1048577
EndChar

StartChar: germandbls
Encoding: 223 223 236
Width: 640
Flags: W
LayerCount: 2
Fore
SplineSet
365 -10 m 0,0,1
 337 -10 337 -10 314 -6 c 128,-1,2
 291 -2 291 -2 277 5 c 1,3,-1
 277 118 l 1,4,5
 290 114 290 114 305.5 111 c 128,-1,6
 321 108 321 108 340 108 c 0,7,8
 396 108 396 108 426 134.5 c 128,-1,9
 456 161 456 161 456 213 c 0,10,11
 456 260 456 260 423 288.5 c 128,-1,12
 390 317 390 317 328 317 c 2,13,-1
 282 317 l 1,14,-1
 282 433 l 1,15,-1
 316 433 l 2,16,17
 346 433 346 433 368.5 443.5 c 128,-1,18
 391 454 391 454 404 473 c 128,-1,19
 417 492 417 492 417 518 c 0,20,21
 417 562 417 562 391.5 587 c 128,-1,22
 366 612 366 612 317 612 c 0,23,24
 262 612 262 612 236 579 c 128,-1,25
 210 546 210 546 210 482 c 2,26,-1
 210 0 l 1,27,-1
 60 0 l 1,28,-1
 60 474 l 2,29,30
 60 589 60 589 124 659.5 c 128,-1,31
 188 730 188 730 321 730 c 0,32,33
 399 730 399 730 455.5 705 c 128,-1,34
 512 680 512 680 542.5 635.5 c 128,-1,35
 573 591 573 591 573 533 c 0,36,37
 573 481 573 481 549 444 c 128,-1,38
 525 407 525 407 483 388 c 128,-1,39
 441 369 441 369 387 369 c 1,40,-1
 395 390 l 1,41,42
 466 390 466 390 514.5 365 c 128,-1,43
 563 340 563 340 587.5 296.5 c 128,-1,44
 612 253 612 253 612 198 c 0,45,46
 612 135 612 135 581 88 c 128,-1,47
 550 41 550 41 494.5 15.5 c 128,-1,48
 439 -10 439 -10 365 -10 c 0,0,1
EndSplineSet
Validated: 5
EndChar

StartChar: t
Encoding: 116 116 237
Width: 421
GlyphClass: 2
Flags: W
AnchorPoint: "Anchor-2" 272 0 basechar 0
AnchorPoint: "Anchor-1" 328 790 basechar 0
AnchorPoint: "Anchor-0" 147 510 basechar 0
LayerCount: 2
Fore
SplineSet
302 -11 m 0,0,1
 204 -11 204 -11 156.5 36.5 c 128,-1,2
 109 84 109 84 109 181 c 2,3,-1
 109 624 l 5,4,-1
 259 680 l 1,5,-1
 259 176 l 2,6,7
 259 142 259 142 278 125 c 128,-1,8
 297 108 297 108 337 108 c 0,9,10
 352 108 352 108 365 111 c 128,-1,11
 378 114 378 114 391 118 c 1,12,-1
 391 4 l 1,13,14
 378 -3 378 -3 354.5 -7 c 128,-1,15
 331 -11 331 -11 302 -11 c 0,0,1
14 396 m 1,16,-1
 14 510 l 1,17,-1
 391 510 l 1,18,-1
 391 396 l 1,19,-1
 14 396 l 1,16,-1
EndSplineSet
Validated: 1048581
EndChar

StartChar: u
Encoding: 117 117 240
Width: 611
GlyphClass: 2
Flags: W
AnchorPoint: "Anchor-3" 551 0 basechar 0
AnchorPoint: "Anchor-2" 306 0 basechar 0
AnchorPoint: "Anchor-1" 591 510 basechar 0
AnchorPoint: "Anchor-0" 306 510 basechar 0
LayerCount: 2
Fore
SplineSet
225 -10 m 0,0,1
 171 -10 171 -10 132.5 13.5 c 128,-1,2
 94 37 94 37 74 76.5 c 128,-1,3
 54 116 54 116 54 165 c 2,4,-1
 54 510 l 1,5,-1
 204 510 l 1,6,-1
 204 194 l 2,7,8
 204 152 204 152 225 131 c 128,-1,9
 246 110 246 110 284 110 c 0,10,11
 318 110 318 110 344 126 c 128,-1,12
 370 142 370 142 385.5 170.5 c 128,-1,13
 401 199 401 199 401 236 c 1,14,-1
 414 113 l 1,15,16
 389 58 389 58 341 24 c 128,-1,17
 293 -10 293 -10 225 -10 c 0,0,1
404 0 m 1,18,-1
 404 120 l 1,19,-1
 401 120 l 1,20,-1
 401 510 l 1,21,-1
 551 510 l 1,22,-1
 551 0 l 1,23,-1
 404 0 l 1,18,-1
EndSplineSet
Validated: 5
EndChar

StartChar: v
Encoding: 118 118 250
Width: 543
Flags: W
LayerCount: 2
Fore
SplineSet
199 0 m 1,0,-1
 -2 510 l 1,1,-1
 159 510 l 1,2,-1
 316 34 l 1,3,-1
 232 34 l 1,4,-1
 388 510 l 1,5,-1
 545 510 l 1,6,-1
 344 0 l 1,7,-1
 199 0 l 1,0,-1
EndSplineSet
Validated: 5
EndChar

StartChar: w
Encoding: 119 119 251
Width: 816
GlyphClass: 2
Flags: W
AnchorPoint: "Anchor-2" 408 0 basechar 0
AnchorPoint: "Anchor-0" 408 510 basechar 0
LayerCount: 2
Fore
SplineSet
166 0 m 1,0,-1
 10 510 l 1,1,-1
 168 510 l 1,2,-1
 246 154 l 1,3,-1
 242 154 l 1,4,-1
 340 510 l 1,5,-1
 480 510 l 1,6,-1
 579 154 l 1,7,-1
 575 154 l 1,8,-1
 652 510 l 1,9,-1
 806 510 l 1,10,-1
 650 0 l 1,11,-1
 506 0 l 1,12,-1
 406 355 l 1,13,-1
 410 355 l 1,14,-1
 310 0 l 1,15,-1
 166 0 l 1,0,-1
EndSplineSet
Validated: 1048581
EndChar

StartChar: x
Encoding: 120 120 256
Width: 605
Flags: W
LayerCount: 2
Fore
SplineSet
413 0 m 1,0,-1
 262 224 l 1,1,-1
 45 510 l 1,2,-1
 213 510 l 1,3,-1
 348 309 l 1,4,-1
 581 0 l 1,5,-1
 413 0 l 1,0,-1
274 317 m 1,6,-1
 409 510 l 1,7,-1
 573 510 l 1,8,-1
 345 212 l 1,9,-1
 274 317 l 1,6,-1
332 204 m 1,10,-1
 187 0 l 1,11,-1
 24 0 l 1,12,-1
 261 309 l 1,13,-1
 332 204 l 1,10,-1
EndSplineSet
Validated: 5
EndChar

StartChar: y
Encoding: 65573 -1 257
Width: 543
GlyphClass: 2
Flags: W
AnchorPoint: "Anchor-2" 272 0 basechar 0
AnchorPoint: "Anchor-0" 272 510 basechar 0
LayerCount: 2
Fore
SplineSet
86 -205 m 1,0,-1
 227 107 l 1,1,-1
 253 150 l 1,2,-1
 385 510 l 1,3,-1
 545 510 l 1,4,-1
 236 -205 l 1,5,-1
 86 -205 l 1,0,-1
194 10 m 1,6,-1
 -2 510 l 1,7,-1
 160 510 l 1,8,-1
 321 54 l 1,9,-1
 194 10 l 1,6,-1
EndSplineSet
Validated: 1048581
Substitution2: "'calt' Contextual Alternates in Latin lookup 24 subtable" y.ss03
Substitution2: "'aalt' Access All Alternates in Latin lookup 0 subtable" y.ss03
EndChar

StartChar: z
Encoding: 122 122 262
Width: 522
GlyphClass: 2
Flags: W
AnchorPoint: "Anchor-2" 261 0 basechar 0
AnchorPoint: "Anchor-0" 261 510 basechar 0
LayerCount: 2
Fore
SplineSet
44 0 m 1,0,-1
 44 104 l 1,1,-1
 328 449 l 1,2,-1
 358 396 l 1,3,-1
 52 396 l 1,4,-1
 52 510 l 1,5,-1
 478 510 l 1,6,-1
 478 406 l 1,7,-1
 200 68 l 1,8,-1
 172 114 l 1,9,-1
 482 114 l 1,10,-1
 482 0 l 1,11,-1
 44 0 l 1,0,-1
EndSplineSet
Validated: 1048581
EndChar

StartChar: a.ss02
Encoding: 65601 -1 289
Width: 628
GlyphClass: 2
Flags: W
AnchorPoint: "Anchor-3" 568 0 basechar 0
AnchorPoint: "Anchor-2" 314 0 basechar 0
AnchorPoint: "Anchor-0" 314 510 basechar 0
LayerCount: 2
Fore
SplineSet
253 -10 m 0,0,1
 183 -10 183 -10 131.5 22.5 c 128,-1,2
 80 55 80 55 52 114 c 128,-1,3
 24 173 24 173 24 253 c 0,4,5
 24 334 24 334 53 394 c 128,-1,6
 82 454 82 454 134.5 487 c 128,-1,7
 187 520 187 520 257 520 c 0,8,9
 330 520 330 520 375.5 486 c 128,-1,10
 421 452 421 452 429 393 c 1,11,-1
 421 392 l 1,12,-1
 421 510 l 1,13,-1
 568 510 l 1,14,-1
 568 0 l 1,15,-1
 421 0 l 1,16,-1
 421 113 l 1,17,-1
 431 111 l 1,18,19
 421 56 421 56 371.5 23 c 128,-1,20
 322 -10 322 -10 253 -10 c 0,0,1
301 110 m 0,21,22
 356 110 356 110 388 147.5 c 128,-1,23
 420 185 420 185 420 255 c 256,24,25
 420 325 420 325 387.5 362.5 c 128,-1,26
 355 400 355 400 299 400 c 0,27,28
 244 400 244 400 212 362 c 128,-1,29
 180 324 180 324 180 254 c 256,30,31
 180 184 180 184 212.5 147 c 128,-1,32
 245 110 245 110 301 110 c 0,21,22
EndSplineSet
Validated: 1048581
EndChar

StartChar: y.ss03
Encoding: 121 121 300
Width: 553
GlyphClass: 2
Flags: W
AnchorPoint: "Anchor-2" 272 0 basechar 0
AnchorPoint: "Anchor-0" 274 510 basechar 0
LayerCount: 2
Fore
SplineSet
127 -215 m 0,0,1
 111 -215 111 -215 95.5 -212.5 c 128,-1,2
 80 -210 80 -210 63 -206 c 1,3,-1
 63 -81 l 1,4,5
 71 -84 71 -84 81 -85.5 c 128,-1,6
 91 -87 91 -87 104 -87 c 0,7,8
 133 -87 133 -87 151.5 -72.5 c 128,-1,9
 170 -58 170 -58 182 -27 c 2,10,-1
 236 113 l 1,11,-1
 273 148 l 1,12,-1
 405 510 l 1,13,-1
 555 510 l 1,14,-1
 301 -93 l 2,15,16
 284 -134 284 -134 259.5 -161.5 c 128,-1,17
 235 -189 235 -189 202.5 -202 c 128,-1,18
 170 -215 170 -215 127 -215 c 0,0,1
204 10 m 1,19,-1
 7 510 l 1,20,-1
 168 510 l 1,21,-1
 327 64 l 1,22,-1
 204 10 l 1,19,-1
EndSplineSet
Validated: 1048581
EndChar

StartChar: k.ss04
Encoding: 65612 -1 305
Width: 569
GlyphClass: 2
Flags: W
AnchorPoint: "Anchor-2" 285 0 basechar 0
AnchorPoint: "Anchor-0" 285 740 basechar 0
LayerCount: 2
Fore
SplineSet
60 0 m 1,0,-1
 60 720 l 1,1,-1
 210 720 l 1,2,-1
 210 0 l 1,3,-1
 60 0 l 1,0,-1
130 235 m 1,4,-1
 376 510 l 1,5,-1
 550 510 l 1,6,-1
 334 277 l 1,7,-1
 325 276 l 1,8,-1
 188 134 l 1,9,-1
 130 235 l 1,4,-1
351 322 m 1,10,-1
 565 0 l 1,11,-1
 399 0 l 1,12,-1
 230 265 l 1,13,-1
 351 322 l 1,10,-1
EndSplineSet
Validated: 1048581
EndChar

StartChar: f_f_i
Encoding: 65617 -1 310
Width: 964
GlyphClass: 3
LigCaretCntFixed: 1
Flags: W
LayerCount: 2
Fore
SplineSet
99 0 m 1,0,-1
 99 544 l 2,1,2
 99 636 99 636 149 683 c 128,-1,3
 199 730 199 730 297 730 c 0,4,5
 318 730 318 730 333.5 728 c 128,-1,6
 349 726 349 726 364 721 c 1,7,-1
 364 596 l 1,8,9
 357 599 357 599 347 600.5 c 128,-1,10
 337 602 337 602 323 602 c 0,11,12
 285 602 285 602 267 584 c 128,-1,13
 249 566 249 566 249 532 c 2,14,-1
 249 0 l 1,15,-1
 99 0 l 1,0,-1
429 0 m 1,16,-1
 429 544 l 2,17,18
 429 636 429 636 479 683 c 128,-1,19
 529 730 529 730 627 730 c 0,20,21
 648 730 648 730 663.5 728 c 128,-1,22
 679 726 679 726 694 721 c 1,23,-1
 694 596 l 1,24,25
 687 599 687 599 677 600.5 c 128,-1,26
 667 602 667 602 653 602 c 0,27,28
 615 602 615 602 597 584 c 128,-1,29
 579 566 579 566 579 532 c 2,30,-1
 579 0 l 1,31,-1
 429 0 l 1,16,-1
759 0 m 1,32,-1
 759 510 l 1,33,-1
 909 510 l 1,34,-1
 909 0 l 1,35,-1
 759 0 l 1,32,-1
14 396 m 1,36,-1
 14 510 l 1,37,-1
 795 510 l 1,38,-1
 795 396 l 1,39,-1
 14 396 l 1,36,-1
759 567 m 1,40,-1
 759 720 l 1,41,-1
 909 720 l 1,42,-1
 909 567 l 1,43,-1
 759 567 l 1,40,-1
EndSplineSet
Validated: 5
Substitution2: "'ss01' Style Set 1 in Latin lookup 22 subtable" f_f_i.ss01
Ligature2: "'liga' Standard Ligatures in Latin lookup 21 subtable" f f i
Substitution2: "'aalt' Access All Alternates in Latin lookup 0 subtable" f_f_i.ss01
LCarets2: 2 321 643
EndChar

StartChar: f_f_l
Encoding: 65618 -1 311
Width: 969
GlyphClass: 3
LigCaretCntFixed: 1
Flags: W
LayerCount: 2
Fore
SplineSet
429 0 m 1,0,-1
 429 534 l 2,1,2
 429 626 429 626 479 673 c 128,-1,3
 529 720 529 720 627 720 c 2,4,-1
 839 720 l 1,5,-1
 839 592 l 1,6,-1
 653 592 l 2,7,8
 615 592 615 592 597 574 c 128,-1,9
 579 556 579 556 579 522 c 2,10,-1
 579 0 l 1,11,-1
 429 0 l 1,0,-1
99 0 m 1,12,-1
 99 534 l 2,13,14
 99 626 99 626 149 673 c 128,-1,15
 199 720 199 720 297 720 c 0,16,17
 318 720 318 720 333.5 718 c 128,-1,18
 349 716 349 716 364 711 c 1,19,-1
 364 586 l 1,20,21
 357 589 357 589 347 590.5 c 128,-1,22
 337 592 337 592 323 592 c 0,23,24
 285 592 285 592 267 574 c 128,-1,25
 249 556 249 556 249 522 c 2,26,-1
 249 0 l 1,27,-1
 99 0 l 1,12,-1
14 386 m 1,28,-1
 14 510 l 1,29,-1
 674 510 l 1,30,-1
 674 386 l 1,31,-1
 14 386 l 1,28,-1
759 0 m 1,32,-1
 759 720 l 1,33,-1
 909 720 l 1,34,-1
 909 0 l 1,35,-1
 759 0 l 1,32,-1
EndSplineSet
Validated: 5
Ligature2: "'liga' Standard Ligatures in Latin lookup 21 subtable" f f l
LCarets2: 2 323 646
EndChar

StartChar: f_i
Encoding: 65619 -1 312
Width: 619
GlyphClass: 3
LigCaretCntFixed: 1
Flags: W
AnchorPoint: "Anchor-5" 155 0 baselig 0
AnchorPoint: "Anchor-4" 155 740 baselig 0
AnchorPoint: "Anchor-5" 464 0 baselig 1
AnchorPoint: "Anchor-4" 464 740 baselig 1
LayerCount: 2
Fore
SplineSet
99 0 m 1,0,-1
 99 544 l 2,1,2
 99 636 99 636 149 683 c 128,-1,3
 199 730 199 730 297 730 c 0,4,5
 318 730 318 730 333.5 728 c 128,-1,6
 349 726 349 726 364 721 c 1,7,-1
 364 596 l 1,8,9
 357 599 357 599 347 600.5 c 128,-1,10
 337 602 337 602 323 602 c 0,11,12
 285 602 285 602 267 584 c 128,-1,13
 249 566 249 566 249 532 c 2,14,-1
 249 0 l 1,15,-1
 99 0 l 1,0,-1
429 0 m 1,16,-1
 429 510 l 1,17,-1
 579 510 l 1,18,-1
 579 0 l 1,19,-1
 429 0 l 1,16,-1
14 386 m 1,20,-1
 14 510 l 1,21,-1
 465 510 l 1,22,-1
 465 386 l 1,23,-1
 14 386 l 1,20,-1
429 567 m 1,24,-1
 429 720 l 1,25,-1
 579 720 l 1,26,-1
 579 567 l 1,27,-1
 429 567 l 1,24,-1
EndSplineSet
Validated: 5
Substitution2: "'ss01' Style Set 1 in Latin lookup 22 subtable" f_i.ss01
Ligature2: "'liga' Standard Ligatures in Latin lookup 21 subtable" f i
Substitution2: "'aalt' Access All Alternates in Latin lookup 0 subtable" f_i.ss01
LCarets2: 1 310
EndChar

StartChar: f_l
Encoding: 65620 -1 313
Width: 639
GlyphClass: 3
LigCaretCntFixed: 1
Flags: W
AnchorPoint: "Anchor-5" 160 0 baselig 0
AnchorPoint: "Anchor-4" 160 740 baselig 0
AnchorPoint: "Anchor-5" 479 0 baselig 1
AnchorPoint: "Anchor-4" 479 740 baselig 1
LayerCount: 2
Fore
SplineSet
99 0 m 1,0,-1
 99 534 l 2,1,2
 99 626 99 626 149 673 c 128,-1,3
 199 720 199 720 297 720 c 2,4,-1
 509 720 l 1,5,-1
 509 592 l 1,6,-1
 323 592 l 2,7,8
 285 592 285 592 267 574 c 128,-1,9
 249 556 249 556 249 522 c 2,10,-1
 249 0 l 1,11,-1
 99 0 l 1,0,-1
14 386 m 1,12,-1
 14 510 l 1,13,-1
 344 510 l 1,14,-1
 344 386 l 1,15,-1
 14 386 l 1,12,-1
429 0 m 1,16,-1
 429 720 l 1,17,-1
 579 720 l 1,18,-1
 579 0 l 1,19,-1
 429 0 l 1,16,-1
EndSplineSet
Validated: 5
Ligature2: "'liga' Standard Ligatures in Latin lookup 21 subtable" f l
LCarets2: 1 320
EndChar

StartChar: w_w_w.liga
Encoding: 65621 -1 314
Width: 2148
GlyphClass: 3
LigCaretCntFixed: 1
Flags: W
AnchorPoint: "Anchor-5" 358 0 baselig 0
AnchorPoint: "Anchor-4" 358 510 baselig 0
AnchorPoint: "Anchor-5" 1074 0 baselig 1
AnchorPoint: "Anchor-4" 1074 510 baselig 1
AnchorPoint: "Anchor-5" 1790 0 baselig 2
AnchorPoint: "Anchor-4" 1790 510 baselig 2
LayerCount: 2
Fore
SplineSet
166 0 m 1,0,-1
 10 510 l 1,1,-1
 168 510 l 1,2,-1
 246 154 l 1,3,-1
 242 154 l 1,4,-1
 340 510 l 1,5,-1
 480 510 l 1,6,-1
 579 154 l 1,7,-1
 575 154 l 1,8,-1
 673 510 l 1,9,-1
 813 510 l 1,10,-1
 912 154 l 1,11,-1
 908 154 l 1,12,-1
 1006 510 l 1,13,-1
 1146 510 l 1,14,-1
 1245 154 l 1,15,-1
 1241 154 l 1,16,-1
 1339 510 l 1,17,-1
 1479 510 l 1,18,-1
 1578 154 l 1,19,-1
 1574 154 l 1,20,-1
 1672 510 l 1,21,-1
 1812 510 l 1,22,-1
 1911 154 l 1,23,-1
 1907 154 l 1,24,-1
 1984 510 l 1,25,-1
 2138 510 l 1,26,-1
 1982 0 l 1,27,-1
 1838 0 l 1,28,-1
 1738 355 l 1,29,-1
 1742 355 l 1,30,-1
 1642 0 l 1,31,-1
 1505 0 l 1,32,-1
 1405 355 l 1,33,-1
 1409 355 l 1,34,-1
 1309 0 l 1,35,-1
 1172 0 l 1,36,-1
 1072 355 l 1,37,-1
 1076 355 l 1,38,-1
 976 0 l 1,39,-1
 839 0 l 1,40,-1
 739 355 l 1,41,-1
 743 355 l 1,42,-1
 643 0 l 1,43,-1
 506 0 l 1,44,-1
 406 355 l 1,45,-1
 410 355 l 1,46,-1
 310 0 l 1,47,-1
 166 0 l 1,0,-1
EndSplineSet
Validated: 5
Ligature2: "'liga' Standard Ligatures in Latin lookup 21 subtable" w w w
LCarets2: 2 716 1432
EndChar

StartChar: f_f_i.ss01
Encoding: 65622 -1 315
Width: 959
GlyphClass: 3
LigCaretCntFixed: 1
Flags: W
AnchorPoint: "Anchor-5" 160 0 baselig 0
AnchorPoint: "Anchor-4" 160 740 baselig 0
AnchorPoint: "Anchor-5" 480 0 baselig 1
AnchorPoint: "Anchor-4" 480 740 baselig 1
AnchorPoint: "Anchor-5" 799 0 baselig 2
AnchorPoint: "Anchor-4" 799 740 baselig 2
LayerCount: 2
Fore
SplineSet
429 0 m 1,0,-1
 429 544 l 2,1,2
 429 636 429 636 479 683 c 128,-1,3
 529 730 529 730 627 730 c 0,4,5
 648 730 648 730 663.5 728 c 128,-1,6
 679 726 679 726 694 721 c 1,7,-1
 694 596 l 1,8,9
 687 599 687 599 677 600.5 c 128,-1,10
 667 602 667 602 653 602 c 0,11,12
 615 602 615 602 597 584 c 128,-1,13
 579 566 579 566 579 532 c 2,14,-1
 579 0 l 1,15,-1
 429 0 l 1,0,-1
99 0 m 1,16,-1
 99 544 l 2,17,18
 99 636 99 636 149 683 c 128,-1,19
 199 730 199 730 297 730 c 0,20,21
 318 730 318 730 333.5 728 c 128,-1,22
 349 726 349 726 364 721 c 1,23,-1
 364 596 l 1,24,25
 357 599 357 599 347 600.5 c 128,-1,26
 337 602 337 602 323 602 c 0,27,28
 285 602 285 602 267 584 c 128,-1,29
 249 566 249 566 249 532 c 2,30,-1
 249 0 l 1,31,-1
 99 0 l 1,16,-1
14 386 m 1,32,-1
 14 510 l 1,33,-1
 795 510 l 1,34,-1
 795 386 l 1,35,-1
 14 386 l 1,32,-1
759 0 m 1,36,-1
 759 510 l 1,37,-1
 909 510 l 1,38,-1
 909 0 l 1,39,-1
 759 0 l 1,36,-1
836 562 m 0,40,41
 800 562 800 562 774.5 587.5 c 128,-1,42
 749 613 749 613 749 648 c 0,43,44
 749 687 749 687 774.5 711 c 128,-1,45
 800 735 800 735 836 735 c 0,46,47
 870 735 870 735 894.5 711 c 128,-1,48
 919 687 919 687 919 648 c 0,49,50
 919 613 919 613 894.5 587.5 c 128,-1,51
 870 562 870 562 836 562 c 0,40,41
EndSplineSet
Validated: 5
LCarets2: 2 320 639
EndChar

StartChar: f_i.ss01
Encoding: 65623 -1 316
Width: 644
GlyphClass: 3
LigCaretCntFixed: 1
Flags: W
AnchorPoint: "Anchor-5" 161 0 baselig 0
AnchorPoint: "Anchor-4" 161 740 baselig 0
AnchorPoint: "Anchor-5" 483 0 baselig 1
AnchorPoint: "Anchor-4" 483 740 baselig 1
LayerCount: 2
Fore
SplineSet
99 0 m 1,0,-1
 99 544 l 2,1,2
 99 636 99 636 149 683 c 128,-1,3
 199 730 199 730 297 730 c 0,4,5
 318 730 318 730 333.5 728 c 128,-1,6
 349 726 349 726 364 721 c 1,7,-1
 364 596 l 1,8,9
 357 599 357 599 347 600.5 c 128,-1,10
 337 602 337 602 323 602 c 0,11,12
 285 602 285 602 267 584 c 128,-1,13
 249 566 249 566 249 532 c 2,14,-1
 249 0 l 1,15,-1
 99 0 l 1,0,-1
429 0 m 1,16,-1
 429 510 l 1,17,-1
 579 510 l 1,18,-1
 579 0 l 1,19,-1
 429 0 l 1,16,-1
506 562 m 0,20,21
 470 562 470 562 444.5 587.5 c 128,-1,22
 419 613 419 613 419 648 c 0,23,24
 419 687 419 687 444.5 711 c 128,-1,25
 470 735 470 735 506 735 c 0,26,27
 540 735 540 735 564.5 711 c 128,-1,28
 589 687 589 687 589 648 c 0,29,30
 589 613 589 613 564.5 587.5 c 128,-1,31
 540 562 540 562 506 562 c 0,20,21
14 386 m 1,32,-1
 14 510 l 1,33,-1
 465 510 l 1,34,-1
 465 386 l 1,35,-1
 14 386 l 1,32,-1
EndSplineSet
Validated: 5
LCarets2: 1 322
EndChar

StartChar: ordfeminine
Encoding: 170 170 317
Width: 377
Flags: W
LayerCount: 2
Fore
SplineSet
233 418 m 1,0,1
 229 431 229 431 227 446.5 c 128,-1,2
 225 462 225 462 225 483 c 1,3,-1
 224 483 l 1,4,-1
 224 619 l 2,5,6
 224 632 224 632 214 640.5 c 128,-1,7
 204 649 204 649 185 649 c 0,8,9
 170 649 170 649 160.5 644.5 c 128,-1,10
 151 640 151 640 146 634 c 1,11,-1
 45 634 l 1,12,13
 52 675 52 675 88 702.5 c 128,-1,14
 124 730 124 730 188 730 c 0,15,16
 255 730 255 730 291.5 700 c 128,-1,17
 328 670 328 670 328 614 c 2,18,-1
 328 483 l 2,19,20
 328 464 328 464 330.5 449 c 128,-1,21
 333 434 333 434 337 418 c 1,22,-1
 233 418 l 1,0,1
129 412 m 0,23,24
 87 412 87 412 62 435 c 128,-1,25
 37 458 37 458 37 496 c 0,26,27
 37 540 37 540 66.5 569 c 128,-1,28
 96 598 96 598 151 605 c 2,29,-1
 234 616 l 1,30,-1
 234 552 l 1,31,-1
 169 540 l 2,32,33
 154 537 154 537 147.5 531.5 c 128,-1,34
 141 526 141 526 141 515 c 0,35,36
 141 505 141 505 149 499 c 128,-1,37
 157 493 157 493 169 493 c 0,38,39
 190 493 190 493 207 507.5 c 128,-1,40
 224 522 224 522 224 539 c 1,41,-1
 232 483 l 1,42,43
 219 447 219 447 191.5 429.5 c 128,-1,44
 164 412 164 412 129 412 c 0,23,24
EndSplineSet
Validated: 5
EndChar

StartChar: ordmasculine
Encoding: 186 186 318
Width: 410
Flags: W
LayerCount: 2
Fore
SplineSet
205 412 m 0,0,1
 153 412 153 412 113.5 432 c 128,-1,2
 74 452 74 452 52 488 c 128,-1,3
 30 524 30 524 30 572 c 0,4,5
 30 644 30 644 78 687 c 128,-1,6
 126 730 126 730 205 730 c 0,7,8
 285 730 285 730 332.5 687 c 128,-1,9
 380 644 380 644 380 572 c 256,10,11
 380 500 380 500 331.5 456 c 128,-1,12
 283 412 283 412 205 412 c 0,0,1
205 501 m 0,13,14
 234 501 234 501 253 521 c 128,-1,15
 272 541 272 541 272 573 c 256,16,17
 272 605 272 605 253 623 c 128,-1,18
 234 641 234 641 205 641 c 0,19,20
 177 641 177 641 157.5 622.5 c 128,-1,21
 138 604 138 604 138 573 c 0,22,23
 138 540 138 540 157.5 520.5 c 128,-1,24
 177 501 177 501 205 501 c 0,13,14
EndSplineSet
Validated: 1
EndChar

StartChar: zero
Encoding: 48 48 319
Width: 682
Flags: W
LayerCount: 2
Fore
SplineSet
341 -10 m 256,0,1
 251 -10 251 -10 180.5 37.5 c 128,-1,2
 110 85 110 85 70 169.5 c 128,-1,3
 30 254 30 254 30 363 c 256,4,5
 30 472 30 472 70 554.5 c 128,-1,6
 110 637 110 637 180.5 683.5 c 128,-1,7
 251 730 251 730 341 730 c 0,8,9
 432 730 432 730 502 683.5 c 128,-1,10
 572 637 572 637 612 554.5 c 128,-1,11
 652 472 652 472 652 363 c 0,12,13
 652 253 652 253 612 169 c 128,-1,14
 572 85 572 85 501.5 37.5 c 128,-1,15
 431 -10 431 -10 341 -10 c 256,0,1
341 118 m 0,16,17
 392 118 392 118 425 152 c 128,-1,18
 458 186 458 186 474 242 c 128,-1,19
 490 298 490 298 490 364 c 256,20,21
 490 430 490 430 474 484 c 128,-1,22
 458 538 458 538 425 570 c 128,-1,23
 392 602 392 602 341 602 c 256,24,25
 290 602 290 602 257 569.5 c 128,-1,26
 224 537 224 537 208 483 c 128,-1,27
 192 429 192 429 192 364 c 0,28,29
 192 297 192 297 208 241 c 128,-1,30
 224 185 224 185 257.5 151.5 c 128,-1,31
 291 118 291 118 341 118 c 0,16,17
EndSplineSet
Validated: 1
Substitution2: "'tnum' Tabular Numbers in Latin lookup 19 subtable" zero.tf
Substitution2: "'aalt' Access All Alternates in Latin lookup 0 subtable" zero.tf
EndChar

StartChar: one
Encoding: 49 49 320
Width: 385
Flags: W
LayerCount: 2
Fore
SplineSet
185 0 m 1,0,-1
 185 588 l 1,1,-1
 202 573 l 5,2,3
 10 443 l 5,4,-1
 10 593 l 1,5,-1
 206 720 l 1,6,-1
 335 720 l 1,7,-1
 335 0 l 1,8,-1
 185 0 l 1,0,-1
EndSplineSet
Validated: 5
Substitution2: "'tnum' Tabular Numbers in Latin lookup 19 subtable" one.tf
Substitution2: "'aalt' Access All Alternates in Latin lookup 0 subtable" one.tf
EndChar

StartChar: two
Encoding: 50 50 321
Width: 563
Flags: W
LayerCount: 2
Fore
SplineSet
25 0 m 1,0,-1
 25 120 l 1,1,2
 124 201 124 201 190.5 259.5 c 128,-1,3
 257 318 257 318 296.5 363 c 128,-1,4
 336 408 336 408 353 445 c 128,-1,5
 370 482 370 482 370 519 c 0,6,7
 370 563 370 563 346.5 587.5 c 128,-1,8
 323 612 323 612 281 612 c 0,9,10
 237 612 237 612 208 585 c 128,-1,11
 179 558 179 558 172 511 c 1,12,-1
 18 511 l 1,13,14
 29 613 29 613 101 671.5 c 128,-1,15
 173 730 173 730 287 730 c 0,16,17
 403 730 403 730 468 670.5 c 128,-1,18
 533 611 533 611 533 505 c 0,19,20
 533 455 533 455 516.5 409 c 128,-1,21
 500 363 500 363 462 314 c 128,-1,22
 424 265 424 265 358.5 206.5 c 128,-1,23
 293 148 293 148 195 73 c 1,24,-1
 158 118 l 1,25,-1
 547 118 l 1,26,-1
 547 0 l 1,27,-1
 25 0 l 1,0,-1
EndSplineSet
Validated: 5
Substitution2: "'ss10' Style Set 10 in Latin lookup 31 subtable" two.ss10
Substitution2: "'tnum' Tabular Numbers in Latin lookup 19 subtable" two.tf
AlternateSubs2: "'aalt' Access All Alternates in Latin lookup 1 subtable" two.ss10 two.tf
EndChar

StartChar: three
Encoding: 51 51 322
Width: 582
Flags: W
LayerCount: 2
Fore
SplineSet
298 -10 m 0,0,1
 222 -10 222 -10 161.5 17.5 c 128,-1,2
 101 45 101 45 63.5 98.5 c 128,-1,3
 26 152 26 152 20 229 c 1,4,-1
 173 229 l 1,5,6
 181 167 181 167 211 137.5 c 128,-1,7
 241 108 241 108 292 108 c 0,8,9
 336 108 336 108 365.5 134 c 128,-1,10
 395 160 395 160 395 210 c 0,11,12
 395 258 395 258 366.5 287.5 c 128,-1,13
 338 317 338 317 270 317 c 2,14,-1
 206 317 l 1,15,-1
 206 433 l 1,16,-1
 267 433 l 2,17,18
 326 433 326 433 352 459 c 128,-1,19
 378 485 378 485 378 525 c 0,20,21
 378 563 378 563 358 587.5 c 128,-1,22
 338 612 338 612 290 612 c 0,23,24
 249 612 249 612 219 587 c 128,-1,25
 189 562 189 562 182 511 c 1,26,-1
 28 511 l 1,27,28
 37 579 37 579 71 628 c 128,-1,29
 105 677 105 677 162 703.5 c 128,-1,30
 219 730 219 730 295 730 c 256,31,32
 371 730 371 730 425.5 706.5 c 128,-1,33
 480 683 480 683 510 640 c 128,-1,34
 540 597 540 597 540 537 c 0,35,36
 540 487 540 487 517 449 c 128,-1,37
 494 411 494 411 459.5 390 c 128,-1,38
 425 369 425 369 390 369 c 1,39,-1
 389 390 l 1,40,41
 442 390 442 390 480 364.5 c 128,-1,42
 518 339 518 339 538 296.5 c 128,-1,43
 558 254 558 254 558 202 c 0,44,45
 558 137 558 137 524 89 c 128,-1,46
 490 41 490 41 431 15.5 c 128,-1,47
 372 -10 372 -10 298 -10 c 0,0,1
EndSplineSet
Validated: 5
Substitution2: "'tnum' Tabular Numbers in Latin lookup 19 subtable" three.tf
Substitution2: "'aalt' Access All Alternates in Latin lookup 0 subtable" three.tf
EndChar

StartChar: four
Encoding: 52 52 323
Width: 622
Flags: W
LayerCount: 2
Fore
SplineSet
374 0 m 1,0,-1
 374 190 l 1,1,-1
 382 210 l 1,2,-1
 382 621 l 1,3,-1
 443 588 l 1,4,-1
 151 201 l 1,5,-1
 80 254 l 1,6,-1
 602 254 l 1,7,-1
 602 136 l 1,8,-1
 24 136 l 1,9,-1
 24 254 l 1,10,-1
 378 720 l 1,11,-1
 530 720 l 1,12,-1
 530 0 l 1,13,-1
 374 0 l 1,0,-1
EndSplineSet
Validated: 5
Substitution2: "'tnum' Tabular Numbers in Latin lookup 19 subtable" four.tf
Substitution2: "'aalt' Access All Alternates in Latin lookup 0 subtable" four.tf
EndChar

StartChar: five
Encoding: 53 53 324
Width: 585
Flags: W
LayerCount: 2
Fore
SplineSet
294 -10 m 0,0,1
 183 -10 183 -10 112 47 c 128,-1,2
 41 104 41 104 24 207 c 1,3,-1
 177 207 l 1,4,5
 185 161 185 161 217 134.5 c 128,-1,6
 249 108 249 108 290 108 c 0,7,8
 337 108 337 108 365.5 140.5 c 128,-1,9
 394 173 394 173 394 239 c 0,10,11
 394 302 394 302 367 335.5 c 128,-1,12
 340 369 340 369 293 369 c 0,13,14
 266 369 266 369 242 356.5 c 128,-1,15
 218 344 218 344 202 316 c 1,16,-1
 62 316 l 1,17,-1
 99 720 l 1,18,-1
 513 720 l 1,19,-1
 513 602 l 1,20,-1
 153 602 l 1,21,-1
 235 613 l 1,22,-1
 217 388 l 1,23,-1
 167 395 l 1,24,25
 193 436 193 436 230.5 457.5 c 128,-1,26
 268 479 268 479 326 479 c 0,27,28
 395 479 395 479 447 449 c 128,-1,29
 499 419 499 419 528 365 c 128,-1,30
 557 311 557 311 557 237 c 0,31,32
 557 159 557 159 524 104 c 128,-1,33
 491 49 491 49 432 19.5 c 128,-1,34
 373 -10 373 -10 294 -10 c 0,0,1
EndSplineSet
Validated: 5
Substitution2: "'tnum' Tabular Numbers in Latin lookup 19 subtable" five.tf
Substitution2: "'aalt' Access All Alternates in Latin lookup 0 subtable" five.tf
EndChar

StartChar: six
Encoding: 54 54 325
Width: 623
Flags: W
LayerCount: 2
Fore
SplineSet
327 -10 m 0,0,1
 185 -10 185 -10 107.5 82.5 c 128,-1,2
 30 175 30 175 30 344 c 0,3,4
 30 463 30 463 67.5 549.5 c 128,-1,5
 105 636 105 636 174 683 c 128,-1,6
 243 730 243 730 336 730 c 0,7,8
 441 730 441 730 507.5 674.5 c 128,-1,9
 574 619 574 619 589 521 c 1,10,-1
 436 521 l 1,11,12
 431 565 431 565 403.5 588.5 c 128,-1,13
 376 612 376 612 335 612 c 0,14,15
 262 612 262 612 226 549 c 128,-1,16
 190 486 190 486 190 354 c 2,17,-1
 190 289 l 1,18,-1
 159 298 l 1,19,20
 170 346 170 346 198 381 c 128,-1,21
 226 416 226 416 268.5 435 c 128,-1,22
 311 454 311 454 364 454 c 0,23,24
 434 454 434 454 487 425.5 c 128,-1,25
 540 397 540 397 569.5 345.5 c 128,-1,26
 599 294 599 294 599 225 c 0,27,28
 599 154 599 154 565.5 101 c 128,-1,29
 532 48 532 48 471 19 c 128,-1,30
 410 -10 410 -10 327 -10 c 0,0,1
316 108 m 0,31,32
 367 108 367 108 401.5 137.5 c 128,-1,33
 436 167 436 167 436 224 c 256,34,35
 436 281 436 281 400.5 309.5 c 128,-1,36
 365 338 365 338 314 338 c 0,37,38
 262 338 262 338 226 309.5 c 128,-1,39
 190 281 190 281 190 226 c 0,40,41
 190 189 190 189 207.5 162.5 c 128,-1,42
 225 136 225 136 253.5 122 c 128,-1,43
 282 108 282 108 316 108 c 0,31,32
EndSplineSet
Validated: 5
Substitution2: "'tnum' Tabular Numbers in Latin lookup 19 subtable" six.tf
Substitution2: "'aalt' Access All Alternates in Latin lookup 0 subtable" six.tf
EndChar

StartChar: seven
Encoding: 55 55 326
Width: 575
Flags: W
LayerCount: 2
Fore
SplineSet
149 0 m 1,0,1
 164 171 164 171 233.5 329.5 c 128,-1,2
 303 488 303 488 410 621 c 1,3,-1
 410 602 l 1,4,-1
 24 602 l 1,5,-1
 24 720 l 1,6,-1
 555 720 l 1,7,-1
 555 610 l 1,8,9
 487 513 487 513 436 415 c 128,-1,10
 385 317 385 317 354 214.5 c 128,-1,11
 323 112 323 112 314 0 c 1,12,-1
 149 0 l 1,0,1
EndSplineSet
Validated: 5
Substitution2: "'tnum' Tabular Numbers in Latin lookup 19 subtable" seven.tf
Substitution2: "'aalt' Access All Alternates in Latin lookup 0 subtable" seven.tf
EndChar

StartChar: eight
Encoding: 56 56 327
Width: 606
Flags: W
LayerCount: 2
Fore
SplineSet
304 -10 m 256,0,1
 222 -10 222 -10 160 17 c 128,-1,2
 98 44 98 44 63 92 c 128,-1,3
 28 140 28 140 28 204 c 0,4,5
 28 258 28 258 51.5 300 c 128,-1,6
 75 342 75 342 117.5 366 c 128,-1,7
 160 390 160 390 216 390 c 1,8,-1
 232 369 l 1,9,10
 173 369 173 369 132 388.5 c 128,-1,11
 91 408 91 408 69.5 445 c 128,-1,12
 48 482 48 482 48 532 c 0,13,14
 48 592 48 592 79.5 636.5 c 128,-1,15
 111 681 111 681 168 705.5 c 128,-1,16
 225 730 225 730 303 730 c 256,17,18
 381 730 381 730 438 705.5 c 128,-1,19
 495 681 495 681 526.5 636.5 c 128,-1,20
 558 592 558 592 558 532 c 0,21,22
 558 482 558 482 536.5 445 c 128,-1,23
 515 408 515 408 474 388.5 c 128,-1,24
 433 369 433 369 373 369 c 1,25,-1
 390 390 l 1,26,27
 446 390 446 390 488.5 366 c 128,-1,28
 531 342 531 342 554.5 300 c 128,-1,29
 578 258 578 258 578 203 c 0,30,31
 578 139 578 139 543.5 91 c 128,-1,32
 509 43 509 43 447.5 16.5 c 128,-1,33
 386 -10 386 -10 304 -10 c 256,0,1
303 108 m 0,34,35
 356 108 356 108 385.5 136 c 128,-1,36
 415 164 415 164 415 215 c 0,37,38
 415 265 415 265 384 293 c 128,-1,39
 353 321 353 321 303 321 c 0,40,41
 252 321 252 321 221.5 293 c 128,-1,42
 191 265 191 265 191 215 c 0,43,44
 191 163 191 163 221 135.5 c 128,-1,45
 251 108 251 108 303 108 c 0,34,35
303 429 m 0,46,47
 344 429 344 429 370 453.5 c 128,-1,48
 396 478 396 478 396 521 c 256,49,50
 396 564 396 564 370 588 c 128,-1,51
 344 612 344 612 302 612 c 0,52,53
 261 612 261 612 235.5 587.5 c 128,-1,54
 210 563 210 563 210 521 c 0,55,56
 210 478 210 478 236.5 453.5 c 128,-1,57
 263 429 263 429 303 429 c 0,46,47
EndSplineSet
Validated: 5
Substitution2: "'tnum' Tabular Numbers in Latin lookup 19 subtable" eight.tf
Substitution2: "'aalt' Access All Alternates in Latin lookup 0 subtable" eight.tf
EndChar

StartChar: nine
Encoding: 57 57 328
Width: 624
Flags: W
LayerCount: 2
Fore
SplineSet
292 -10 m 0,0,1
 214 -10 214 -10 159.5 18.5 c 128,-1,2
 105 47 105 47 74 97.5 c 128,-1,3
 43 148 43 148 35 214 c 1,4,-1
 188 214 l 1,5,6
 193 161 193 161 220 134.5 c 128,-1,7
 247 108 247 108 297 108 c 0,8,9
 333 108 333 108 357.5 122.5 c 128,-1,10
 382 137 382 137 396.5 167.5 c 128,-1,11
 411 198 411 198 417.5 247 c 128,-1,12
 424 296 424 296 424 366 c 2,13,-1
 424 431 l 1,14,-1
 465 430 l 1,15,16
 454 382 454 382 426 347 c 128,-1,17
 398 312 398 312 355.5 293 c 128,-1,18
 313 274 313 274 258 274 c 0,19,20
 189 274 189 274 136.5 302.5 c 128,-1,21
 84 331 84 331 54 381.5 c 128,-1,22
 24 432 24 432 24 498 c 0,23,24
 24 568 24 568 58 620 c 128,-1,25
 92 672 92 672 153 701 c 128,-1,26
 214 730 214 730 295 730 c 0,27,28
 439 730 439 730 516.5 637.5 c 128,-1,29
 594 545 594 545 594 370 c 0,30,31
 594 252 594 252 558.5 166.5 c 128,-1,32
 523 81 523 81 455.5 35.5 c 128,-1,33
 388 -10 388 -10 292 -10 c 0,0,1
309 390 m 0,34,35
 365 390 365 390 393 420 c 128,-1,36
 421 450 421 450 421 496 c 0,37,38
 421 528 421 528 408.5 554.5 c 128,-1,39
 396 581 396 581 371 596.5 c 128,-1,40
 346 612 346 612 309 612 c 0,41,42
 254 612 254 612 224 579.5 c 128,-1,43
 194 547 194 547 194 500 c 256,44,45
 194 453 194 453 224 421.5 c 128,-1,46
 254 390 254 390 309 390 c 0,34,35
EndSplineSet
Validated: 5
Substitution2: "'tnum' Tabular Numbers in Latin lookup 19 subtable" nine.tf
Substitution2: "'aalt' Access All Alternates in Latin lookup 0 subtable" nine.tf
EndChar

StartChar: two.ss10
Encoding: 65624 -1 329
Width: 563
Flags: W
LayerCount: 2
Fore
SplineSet
25 0 m 1,0,-1
 25 90 l 2,1,2
 25 154 25 154 50 199.5 c 128,-1,3
 75 245 75 245 114 278 c 128,-1,4
 153 311 153 311 197.5 337.5 c 128,-1,5
 242 364 242 364 281 390 c 128,-1,6
 320 416 320 416 345 446.5 c 128,-1,7
 370 477 370 477 370 519 c 0,8,9
 370 566 370 566 345 589 c 128,-1,10
 320 612 320 612 281 612 c 0,11,12
 238 612 238 612 208.5 585.5 c 128,-1,13
 179 559 179 559 172 511 c 1,14,-1
 18 511 l 1,15,16
 29 612 29 612 100 671 c 128,-1,17
 171 730 171 730 285 730 c 256,18,19
 399 730 399 730 466 672 c 128,-1,20
 533 614 533 614 533 509 c 0,21,22
 533 454 533 454 512 413 c 128,-1,23
 491 372 491 372 457 340.5 c 128,-1,24
 423 309 423 309 383 283.5 c 128,-1,25
 343 258 343 258 303.5 235.5 c 128,-1,26
 264 213 264 213 233 189 c 128,-1,27
 202 165 202 165 186 137 c 128,-1,28
 170 109 170 109 177 73 c 1,29,-1
 158 118 l 1,30,-1
 547 118 l 1,31,-1
 547 0 l 1,32,-1
 25 0 l 1,0,-1
EndSplineSet
Validated: 37
EndChar

StartChar: zero.tf
Encoding: 65625 -1 330
Width: 600
Flags: W
LayerCount: 2
Fore
SplineSet
300 -10 m 0,0,1
 217 -10 217 -10 152 38 c 128,-1,2
 87 86 87 86 49.5 170 c 128,-1,3
 12 254 12 254 12 363 c 256,4,5
 12 472 12 472 49.5 554.5 c 128,-1,6
 87 637 87 637 152.5 683.5 c 128,-1,7
 218 730 218 730 300 730 c 0,8,9
 383 730 383 730 448 683.5 c 128,-1,10
 513 637 513 637 550.5 554.5 c 128,-1,11
 588 472 588 472 588 363 c 0,12,13
 588 253 588 253 550 169 c 128,-1,14
 512 85 512 85 447 37.5 c 128,-1,15
 382 -10 382 -10 300 -10 c 0,0,1
300 118 m 256,16,17
 342 118 342 118 368.5 152 c 128,-1,18
 395 186 395 186 407.5 242 c 128,-1,19
 420 298 420 298 420 364 c 0,20,21
 420 429 420 429 407.5 483 c 128,-1,22
 395 537 395 537 369 569.5 c 128,-1,23
 343 602 343 602 300 602 c 256,24,25
 257 602 257 602 230.5 569.5 c 128,-1,26
 204 537 204 537 191.5 483 c 128,-1,27
 179 429 179 429 179 364 c 0,28,29
 179 297 179 297 191.5 241 c 128,-1,30
 204 185 204 185 231 151.5 c 128,-1,31
 258 118 258 118 300 118 c 256,16,17
EndSplineSet
Validated: 1
Substitution2: "'pnum' Proportional Numbers in Latin lookup 18 subtable" zero
Substitution2: "'aalt' Access All Alternates in Latin lookup 0 subtable" zero
EndChar

StartChar: one.tf
Encoding: 65626 -1 331
Width: 600
Flags: W
LayerCount: 2
Fore
SplineSet
271 40 m 1,0,-1
 271 588 l 1,1,-1
 286 573 l 1,2,3
 270 539 270 539 245.5 512.5 c 128,-1,4
 221 486 221 486 190 468.5 c 128,-1,5
 159 451 159 451 120 443 c 1,6,-1
 120 593 l 1,7,8
 151 598 151 598 185.5 617.5 c 128,-1,9
 220 637 220 637 249 664.5 c 128,-1,10
 278 692 278 692 290 720 c 1,11,-1
 427 720 l 1,12,-1
 427 40 l 1,13,-1
 271 40 l 1,0,-1
115 0 m 1,14,-1
 115 118 l 1,15,-1
 555 118 l 1,16,-1
 555 0 l 1,17,-1
 115 0 l 1,14,-1
EndSplineSet
Validated: 5
Substitution2: "'pnum' Proportional Numbers in Latin lookup 18 subtable" one
Substitution2: "'aalt' Access All Alternates in Latin lookup 0 subtable" one
EndChar

StartChar: two.tf
Encoding: 65627 -1 332
Width: 600
Flags: W
LayerCount: 2
Fore
SplineSet
60 0 m 1,0,-1
 60 120 l 1,1,2
 152 201 152 201 211 261 c 128,-1,3
 270 321 270 321 303 368 c 128,-1,4
 336 415 336 415 349 453.5 c 128,-1,5
 362 492 362 492 362 529 c 0,6,7
 362 570 362 570 346 591 c 128,-1,8
 330 612 330 612 298 612 c 0,9,10
 261 612 261 612 240 585 c 128,-1,11
 219 558 219 558 213 511 c 1,12,-1
 54 511 l 1,13,14
 64 613 64 613 130.5 671.5 c 128,-1,15
 197 730 197 730 303 730 c 0,16,17
 410 730 410 730 470.5 670.5 c 128,-1,18
 531 611 531 611 531 505 c 0,19,20
 531 455 531 455 515.5 409 c 128,-1,21
 500 363 500 363 464.5 314 c 128,-1,22
 429 265 429 265 368.5 206.5 c 128,-1,23
 308 148 308 148 217 73 c 1,24,-1
 183 118 l 1,25,-1
 544 118 l 1,26,-1
 544 0 l 1,27,-1
 60 0 l 1,0,-1
EndSplineSet
Validated: 5
Substitution2: "'ss10' Style Set 10 in Latin lookup 31 subtable" two.tf.ss10
Substitution2: "'pnum' Proportional Numbers in Latin lookup 18 subtable" two
AlternateSubs2: "'aalt' Access All Alternates in Latin lookup 1 subtable" two two.tf.ss10
EndChar

StartChar: three.tf
Encoding: 65628 -1 333
Width: 600
Flags: W
LayerCount: 2
Fore
SplineSet
307 -10 m 0,0,1
 237 -10 237 -10 180.5 17.5 c 128,-1,2
 124 45 124 45 89.5 98.5 c 128,-1,3
 55 152 55 152 50 229 c 1,4,-1
 208 229 l 1,5,6
 214 170 214 170 236 139 c 128,-1,7
 258 108 258 108 299 108 c 0,8,9
 331 108 331 108 355 134 c 128,-1,10
 379 160 379 160 379 210 c 0,11,12
 379 258 379 258 356 287.5 c 128,-1,13
 333 317 333 317 271 317 c 2,14,-1
 221 317 l 1,15,-1
 221 433 l 1,16,-1
 268 433 l 2,17,18
 321 433 321 433 342.5 459 c 128,-1,19
 364 485 364 485 364 525 c 0,20,21
 364 562 364 562 351 587 c 128,-1,22
 338 612 338 612 298 612 c 0,23,24
 268 612 268 612 244.5 587 c 128,-1,25
 221 562 221 562 215 511 c 1,26,-1
 57 511 l 1,27,28
 66 579 66 579 97 628 c 128,-1,29
 128 677 128 677 180.5 703.5 c 128,-1,30
 233 730 233 730 304 730 c 256,31,32
 375 730 375 730 426 706.5 c 128,-1,33
 477 683 477 683 504.5 640 c 128,-1,34
 532 597 532 597 532 537 c 0,35,36
 532 487 532 487 511 449 c 128,-1,37
 490 411 490 411 460.5 390 c 128,-1,38
 431 369 431 369 404 369 c 1,39,-1
 405 390 l 1,40,41
 451 390 451 390 482.5 364.5 c 128,-1,42
 514 339 514 339 531 296.5 c 128,-1,43
 548 254 548 254 548 202 c 0,44,45
 548 137 548 137 516 89 c 128,-1,46
 484 41 484 41 429.5 15.5 c 128,-1,47
 375 -10 375 -10 307 -10 c 0,0,1
EndSplineSet
Validated: 5
Substitution2: "'pnum' Proportional Numbers in Latin lookup 18 subtable" three
Substitution2: "'aalt' Access All Alternates in Latin lookup 0 subtable" three
EndChar

StartChar: four.tf
Encoding: 65629 -1 334
Width: 600
Flags: W
LayerCount: 2
Fore
SplineSet
347 0 m 1,0,-1
 347 190 l 1,1,-1
 356 210 l 1,2,-1
 356 621 l 1,3,-1
 421 588 l 1,4,-1
 162 201 l 1,5,-1
 84 254 l 1,6,-1
 567 254 l 1,7,-1
 567 136 l 1,8,-1
 34 136 l 1,9,-1
 34 254 l 1,10,-1
 350 720 l 1,11,-1
 508 720 l 1,12,-1
 508 0 l 1,13,-1
 347 0 l 1,0,-1
EndSplineSet
Validated: 5
Substitution2: "'pnum' Proportional Numbers in Latin lookup 18 subtable" four
Substitution2: "'aalt' Access All Alternates in Latin lookup 0 subtable" four
EndChar

StartChar: five.tf
Encoding: 65630 -1 335
Width: 600
Flags: W
LayerCount: 2
Fore
SplineSet
300 -10 m 0,0,1
 200 -10 200 -10 133.5 47 c 128,-1,2
 67 104 67 104 51 207 c 1,3,-1
 208 207 l 1,4,5
 213 161 213 161 239 134.5 c 128,-1,6
 265 108 265 108 296 108 c 0,7,8
 333 108 333 108 354 140.5 c 128,-1,9
 375 173 375 173 375 239 c 0,10,11
 375 302 375 302 355.5 335.5 c 128,-1,12
 336 369 336 369 301 369 c 0,13,14
 284 369 284 369 265.5 356.5 c 128,-1,15
 247 344 247 344 232 316 c 1,16,-1
 86 316 l 1,17,-1
 120 720 l 1,18,-1
 503 720 l 1,19,-1
 503 602 l 1,20,-1
 170 602 l 1,21,-1
 260 613 l 1,22,-1
 246 388 l 1,23,-1
 191 395 l 1,24,25
 217 436 217 436 250 457.5 c 128,-1,26
 283 479 283 479 335 479 c 0,27,28
 397 479 397 479 444 449 c 128,-1,29
 491 419 491 419 517.5 365 c 128,-1,30
 544 311 544 311 544 237 c 0,31,32
 544 159 544 159 513 104 c 128,-1,33
 482 49 482 49 427.5 19.5 c 128,-1,34
 373 -10 373 -10 300 -10 c 0,0,1
EndSplineSet
Validated: 5
Substitution2: "'pnum' Proportional Numbers in Latin lookup 18 subtable" five
Substitution2: "'aalt' Access All Alternates in Latin lookup 0 subtable" five
EndChar

StartChar: six.tf
Encoding: 65631 -1 336
Width: 600
Flags: W
LayerCount: 2
Fore
SplineSet
314 -10 m 0,0,1
 181 -10 181 -10 109 82.5 c 128,-1,2
 37 175 37 175 37 344 c 0,3,4
 37 462 37 462 72.5 548.5 c 128,-1,5
 108 635 108 635 172 682.5 c 128,-1,6
 236 730 236 730 323 730 c 0,7,8
 421 730 421 730 483 674.5 c 128,-1,9
 545 619 545 619 559 521 c 1,10,-1
 402 521 l 1,11,12
 398 565 398 565 376 588.5 c 128,-1,13
 354 612 354 612 322 612 c 0,14,15
 261 612 261 612 231.5 548.5 c 128,-1,16
 202 485 202 485 202 354 c 2,17,-1
 202 289 l 1,18,-1
 172 298 l 1,19,20
 183 346 183 346 207 381 c 128,-1,21
 231 416 231 416 268 435 c 128,-1,22
 305 454 305 454 353 454 c 0,23,24
 417 454 417 454 465 425.5 c 128,-1,25
 513 397 513 397 540 345.5 c 128,-1,26
 567 294 567 294 567 225 c 0,27,28
 567 154 567 154 536.5 101 c 128,-1,29
 506 48 506 48 449 19 c 128,-1,30
 392 -10 392 -10 314 -10 c 0,0,1
300 108 m 0,31,32
 341 108 341 108 369.5 137.5 c 128,-1,33
 398 167 398 167 398 224 c 256,34,35
 398 281 398 281 367.5 309.5 c 128,-1,36
 337 338 337 338 298 338 c 0,37,38
 257 338 257 338 227.5 309.5 c 128,-1,39
 198 281 198 281 198 226 c 0,40,41
 198 189 198 189 212.5 162.5 c 128,-1,42
 227 136 227 136 250.5 122 c 128,-1,43
 274 108 274 108 300 108 c 0,31,32
EndSplineSet
Validated: 5
Substitution2: "'pnum' Proportional Numbers in Latin lookup 18 subtable" six
Substitution2: "'aalt' Access All Alternates in Latin lookup 0 subtable" six
EndChar

StartChar: seven.tf
Encoding: 65632 -1 337
Width: 600
Flags: W
LayerCount: 2
Fore
SplineSet
162 0 m 1,0,1
 176 171 176 171 239 328.5 c 128,-1,2
 302 486 302 486 392 621 c 1,3,-1
 391 602 l 1,4,-1
 54 602 l 1,5,-1
 54 720 l 1,6,-1
 545 720 l 1,7,-1
 545 610 l 1,8,9
 460 465 460 465 402 316 c 128,-1,10
 344 167 344 167 332 0 c 1,11,-1
 162 0 l 1,0,1
EndSplineSet
Validated: 5
Substitution2: "'pnum' Proportional Numbers in Latin lookup 18 subtable" seven
Substitution2: "'aalt' Access All Alternates in Latin lookup 0 subtable" seven
EndChar

StartChar: eight.tf
Encoding: 65633 -1 338
Width: 600
Flags: W
LayerCount: 2
Fore
SplineSet
301 -10 m 256,0,1
 226 -10 226 -10 168 17 c 128,-1,2
 110 44 110 44 77 92 c 128,-1,3
 44 140 44 140 44 204 c 0,4,5
 44 258 44 258 65.5 300 c 128,-1,6
 87 342 87 342 125.5 366 c 128,-1,7
 164 390 164 390 216 390 c 1,8,-1
 235 369 l 1,9,10
 178 369 178 369 139.5 388.5 c 128,-1,11
 101 408 101 408 82 445 c 128,-1,12
 63 482 63 482 63 532 c 0,13,14
 63 592 63 592 92 636.5 c 128,-1,15
 121 681 121 681 174 705.5 c 128,-1,16
 227 730 227 730 300 730 c 256,17,18
 373 730 373 730 426 705.5 c 128,-1,19
 479 681 479 681 508 636.5 c 128,-1,20
 537 592 537 592 537 532 c 0,21,22
 537 482 537 482 517.5 445 c 128,-1,23
 498 408 498 408 460 388.5 c 128,-1,24
 422 369 422 369 364 369 c 1,25,-1
 384 390 l 1,26,27
 436 390 436 390 474.5 366 c 128,-1,28
 513 342 513 342 534.5 300 c 128,-1,29
 556 258 556 258 556 203 c 0,30,31
 556 139 556 139 523.5 91 c 128,-1,32
 491 43 491 43 433.5 16.5 c 128,-1,33
 376 -10 376 -10 301 -10 c 256,0,1
300 108 m 256,34,35
 341 108 341 108 364 136.5 c 128,-1,36
 387 165 387 165 387 215 c 256,37,38
 387 265 387 265 362.5 293 c 128,-1,39
 338 321 338 321 300 321 c 0,40,41
 261 321 261 321 237 293 c 128,-1,42
 213 265 213 265 213 215 c 0,43,44
 213 163 213 163 236 135.5 c 128,-1,45
 259 108 259 108 300 108 c 256,34,35
300 429 m 256,46,47
 329 429 329 429 349 453.5 c 128,-1,48
 369 478 369 478 369 521 c 0,49,50
 369 563 369 563 350 587.5 c 128,-1,51
 331 612 331 612 299 612 c 0,52,53
 268 612 268 612 249.5 587 c 128,-1,54
 231 562 231 562 231 521 c 0,55,56
 231 479 231 479 251 454 c 128,-1,57
 271 429 271 429 300 429 c 256,46,47
EndSplineSet
Validated: 5
Substitution2: "'pnum' Proportional Numbers in Latin lookup 18 subtable" eight
Substitution2: "'aalt' Access All Alternates in Latin lookup 0 subtable" eight
EndChar

StartChar: nine.tf
Encoding: 65634 -1 339
Width: 600
Flags: W
LayerCount: 2
Fore
SplineSet
280 -10 m 0,0,1
 206 -10 206 -10 155.5 18.5 c 128,-1,2
 105 47 105 47 77 97.5 c 128,-1,3
 49 148 49 148 42 214 c 1,4,-1
 199 214 l 1,5,6
 203 159 203 159 224 133.5 c 128,-1,7
 245 108 245 108 286 108 c 0,8,9
 316 108 316 108 335.5 122.5 c 128,-1,10
 355 137 355 137 366.5 167.5 c 128,-1,11
 378 198 378 198 382.5 247.5 c 128,-1,12
 387 297 387 297 387 366 c 2,13,-1
 387 431 l 1,14,-1
 430 430 l 1,15,16
 419 381 419 381 394 346 c 128,-1,17
 369 311 369 311 332 292.5 c 128,-1,18
 295 274 295 274 246 274 c 0,19,20
 183 274 183 274 135 302.5 c 128,-1,21
 87 331 87 331 59.5 381.5 c 128,-1,22
 32 432 32 432 32 498 c 0,23,24
 32 568 32 568 63.5 620 c 128,-1,25
 95 672 95 672 151.5 701 c 128,-1,26
 208 730 208 730 284 730 c 0,27,28
 418 730 418 730 491 637.5 c 128,-1,29
 564 545 564 545 564 370 c 0,30,31
 564 252 564 252 530.5 166.5 c 128,-1,32
 497 81 497 81 433.5 35.5 c 128,-1,33
 370 -10 370 -10 280 -10 c 0,0,1
301 390 m 0,34,35
 347 390 347 390 367 420 c 128,-1,36
 387 450 387 450 387 496 c 0,37,38
 387 544 387 544 367.5 578 c 128,-1,39
 348 612 348 612 302 612 c 256,40,41
 256 612 256 612 232.5 579.5 c 128,-1,42
 209 547 209 547 209 500 c 256,43,44
 209 453 209 453 233.5 421.5 c 128,-1,45
 258 390 258 390 301 390 c 0,34,35
EndSplineSet
Validated: 5
Substitution2: "'pnum' Proportional Numbers in Latin lookup 18 subtable" nine
Substitution2: "'aalt' Access All Alternates in Latin lookup 0 subtable" nine
EndChar

StartChar: two.tf.ss10
Encoding: 65635 -1 340
Width: 600
Flags: W
LayerCount: 2
Fore
SplineSet
61 0 m 1,0,-1
 61 90 l 2,1,2
 61 154 61 154 82.5 199.5 c 128,-1,3
 104 245 104 245 138.5 278.5 c 128,-1,4
 173 312 173 312 211.5 339 c 128,-1,5
 250 366 250 366 284.5 393 c 128,-1,6
 319 420 319 420 340.5 452.5 c 128,-1,7
 362 485 362 485 362 529 c 0,8,9
 362 568 362 568 346 590 c 128,-1,10
 330 612 330 612 296 612 c 0,11,12
 263 612 263 612 240.5 589.5 c 128,-1,13
 218 567 218 567 213 511 c 1,14,-1
 54 511 l 1,15,16
 65 612 65 612 129.5 671 c 128,-1,17
 194 730 194 730 299 730 c 0,18,19
 406 730 406 730 468.5 673.5 c 128,-1,20
 531 617 531 617 531 519 c 0,21,22
 531 462 531 462 512.5 419.5 c 128,-1,23
 494 377 494 377 463.5 344 c 128,-1,24
 433 311 433 311 397.5 285 c 128,-1,25
 362 259 362 259 327.5 236 c 128,-1,26
 293 213 293 213 265.5 189 c 128,-1,27
 238 165 238 165 224.5 137 c 128,-1,28
 211 109 211 109 218 73 c 1,29,-1
 200 118 l 1,30,-1
 544 118 l 1,31,-1
 544 0 l 1,32,-1
 61 0 l 1,0,-1
EndSplineSet
Validated: 37
EndChar

StartChar: hyphen_greater.liga
Encoding: 65636 -1 343
Width: 850
GlyphClass: 3
LigCaretCntFixed: 1
Flags: W
LayerCount: 2
Fore
SplineSet
60 430 m 1,0,-1
 704 430 l 1,1,-1
 613 368 l 1,2,-1
 270 710 l 1,3,-1
 461 710 l 1,4,-1
 810 360 l 1,5,-1
 461 10 l 1,6,-1
 270 10 l 1,7,-1
 613 352 l 1,8,-1
 704 290 l 1,9,-1
 60 290 l 1,10,-1
 60 430 l 1,0,-1
EndSplineSet
Validated: 5
Ligature2: "'liga' Standard Ligatures in Latin lookup 21 subtable" hyphen greater
LCarets2: 1 425
EndChar

StartChar: period
Encoding: 46 46 344
Width: 285
Flags: W
LayerCount: 2
Fore
SplineSet
60 0 m 1,0,-1
 60 165 l 1,1,-1
 225 165 l 1,2,-1
 225 0 l 1,3,-1
 60 0 l 1,0,-1
EndSplineSet
Validated: 1
Substitution2: "'ss01' Style Set 1 in Latin lookup 22 subtable" period.ss01
Substitution2: "'aalt' Access All Alternates in Latin lookup 0 subtable" period.ss01
EndChar

StartChar: comma
Encoding: 44 44 345
Width: 285
Flags: W
LayerCount: 2
Fore
SplineSet
62 -168 m 1,0,-1
 62 -95 l 1,1,2
 109 -81 109 -81 123 -54 c 128,-1,3
 137 -27 137 -27 137 16 c 1,4,-1
 198 0 l 1,5,-1
 60 0 l 1,6,-1
 60 165 l 1,7,-1
 225 165 l 1,8,-1
 225 48 l 2,9,10
 225 -31 225 -31 188 -88 c 128,-1,11
 151 -145 151 -145 62 -168 c 1,0,-1
EndSplineSet
Validated: 5
Substitution2: "'ss01' Style Set 1 in Latin lookup 22 subtable" comma.ss01
Substitution2: "'aalt' Access All Alternates in Latin lookup 0 subtable" comma.ss01
EndChar

StartChar: exclam
Encoding: 33 33 349
Width: 306
Flags: W
LayerCount: 2
Fore
SplineSet
92 274 m 1,0,-1
 70 740 l 1,1,-1
 236 740 l 1,2,-1
 214 274 l 1,3,-1
 92 274 l 1,0,-1
71 0 m 1,4,-1
 71 165 l 1,5,-1
 236 165 l 1,6,-1
 236 0 l 1,7,-1
 71 0 l 1,4,-1
EndSplineSet
Validated: 1
Substitution2: "'ss01' Style Set 1 in Latin lookup 22 subtable" exclam.ss01
Substitution2: "'case' Case-Sensitive Forms in Latin lookup 20 subtable" exclam.case
AlternateSubs2: "'aalt' Access All Alternates in Latin lookup 1 subtable" exclam.case exclam.ss01
EndChar

StartChar: exclamdown
Encoding: 161 161 350
Width: 306
Flags: W
LayerCount: 2
Fore
SplineSet
70 -205 m 1,0,-1
 92 236 l 1,1,-1
 214 236 l 1,2,-1
 236 -205 l 1,3,-1
 70 -205 l 1,0,-1
236 510 m 1,4,-1
 236 345 l 1,5,-1
 71 345 l 1,6,-1
 71 510 l 1,7,-1
 236 510 l 1,4,-1
EndSplineSet
Validated: 1
Substitution2: "'ss01' Style Set 1 in Latin lookup 22 subtable" exclamdown.ss01
Substitution2: "'case' Case-Sensitive Forms in Latin lookup 20 subtable" exclamdown.case
AlternateSubs2: "'aalt' Access All Alternates in Latin lookup 1 subtable" exclamdown.case exclamdown.ss01
EndChar

StartChar: question
Encoding: 63 63 351
Width: 587
Flags: W
LayerCount: 2
Fore
SplineSet
231 274 m 1,0,1
 231 321 231 321 243.5 353 c 128,-1,2
 256 385 256 385 276 407 c 128,-1,3
 296 429 296 429 318 446 c 128,-1,4
 340 463 340 463 360 478 c 128,-1,5
 380 493 380 493 392.5 511.5 c 128,-1,6
 405 530 405 530 405 555 c 0,7,8
 405 593 405 593 379.5 612.5 c 128,-1,9
 354 632 354 632 309 632 c 0,10,11
 254 632 254 632 218.5 606 c 128,-1,12
 183 580 183 580 175 531 c 1,13,-1
 28 531 l 1,14,15
 38 598 38 598 75 647 c 128,-1,16
 112 696 112 696 172 723 c 128,-1,17
 232 750 232 750 310 750 c 0,18,19
 386 750 386 750 442 726 c 128,-1,20
 498 702 498 702 529.5 658.5 c 128,-1,21
 561 615 561 615 561 557 c 0,22,23
 561 516 561 516 547.5 486 c 128,-1,24
 534 456 534 456 513.5 434.5 c 128,-1,25
 493 413 493 413 469 395.5 c 128,-1,26
 445 378 445 378 424.5 360.5 c 128,-1,27
 404 343 404 343 390.5 322.5 c 128,-1,28
 377 302 377 302 377 274 c 1,29,-1
 231 274 l 1,0,1
222 0 m 1,30,-1
 222 165 l 1,31,-1
 387 165 l 1,32,-1
 387 0 l 1,33,-1
 222 0 l 1,30,-1
EndSplineSet
Validated: 1
Substitution2: "'ss01' Style Set 1 in Latin lookup 22 subtable" question.ss01
Substitution2: "'case' Case-Sensitive Forms in Latin lookup 20 subtable" question.case
AlternateSubs2: "'aalt' Access All Alternates in Latin lookup 1 subtable" question.case question.ss01
EndChar

StartChar: questiondown
Encoding: 191 191 352
Width: 587
Flags: W
LayerCount: 2
Fore
SplineSet
277 -215 m 0,0,1
 202 -215 202 -215 145.5 -191.5 c 128,-1,2
 89 -168 89 -168 57.5 -126.5 c 128,-1,3
 26 -85 26 -85 26 -32 c 0,4,5
 26 10 26 10 39.5 39 c 128,-1,6
 53 68 53 68 73.5 89 c 128,-1,7
 94 110 94 110 118 126 c 128,-1,8
 142 142 142 142 162.5 158 c 128,-1,9
 183 174 183 174 196.5 192.5 c 128,-1,10
 210 211 210 211 210 236 c 1,11,-1
 356 236 l 1,12,13
 356 192 356 192 343.5 162 c 128,-1,14
 331 132 331 132 311 111.5 c 128,-1,15
 291 91 291 91 269 75.5 c 128,-1,16
 247 60 247 60 227 45.5 c 128,-1,17
 207 31 207 31 194.5 13.5 c 128,-1,18
 182 -4 182 -4 182 -30 c 0,19,20
 182 -60 182 -60 208.5 -78.5 c 128,-1,21
 235 -97 235 -97 286 -97 c 0,22,23
 335 -97 335 -97 370 -77 c 128,-1,24
 405 -57 405 -57 412 -16 c 1,25,-1
 559 -16 l 1,26,27
 550 -78 550 -78 512.5 -122.5 c 128,-1,28
 475 -167 475 -167 415 -191 c 128,-1,29
 355 -215 355 -215 277 -215 c 0,0,1
365 510 m 1,30,-1
 365 345 l 1,31,-1
 200 345 l 1,32,-1
 200 510 l 1,33,-1
 365 510 l 1,30,-1
EndSplineSet
Validated: 1
Substitution2: "'ss01' Style Set 1 in Latin lookup 22 subtable" questiondown.ss01
Substitution2: "'case' Case-Sensitive Forms in Latin lookup 20 subtable" questiondown.case
AlternateSubs2: "'aalt' Access All Alternates in Latin lookup 1 subtable" questiondown.case questiondown.ss01
EndChar

StartChar: bullet
Encoding: 8226 8226 354
Width: 351
Flags: W
LayerCount: 2
Fore
SplineSet
60 245 m 1,0,-1
 60 476 l 1,1,-1
 291 476 l 1,2,-1
 291 245 l 1,3,-1
 60 245 l 1,0,-1
EndSplineSet
Validated: 1
Substitution2: "'ss01' Style Set 1 in Latin lookup 22 subtable" bullet.ss01
Substitution2: "'case' Case-Sensitive Forms in Latin lookup 20 subtable" bullet.case
AlternateSubs2: "'aalt' Access All Alternates in Latin lookup 1 subtable" bullet.case bullet.ss01
EndChar

StartChar: asterisk
Encoding: 42 42 355
Width: 441
Flags: W
LayerCount: 2
Fore
SplineSet
157 407 m 1,0,-1
 185 513 l 1,1,-1
 104 436 l 1,2,-1
 40 544 l 1,3,-1
 149 574 l 1,4,-1
 40 603 l 1,5,-1
 104 711 l 1,6,-1
 185 634 l 1,7,-1
 157 740 l 1,8,-1
 285 740 l 1,9,-1
 257 634 l 1,10,-1
 338 711 l 1,11,-1
 401 603 l 1,12,-1
 293 574 l 1,13,-1
 401 544 l 1,14,-1
 338 436 l 1,15,-1
 257 513 l 1,16,-1
 285 407 l 1,17,-1
 157 407 l 1,0,-1
EndSplineSet
Validated: 1
EndChar

StartChar: numbersign
Encoding: 35 35 356
Width: 732
Flags: W
LayerCount: 2
Fore
SplineSet
122 0 m 1,0,-1
 222 720 l 1,1,-1
 352 720 l 1,2,-1
 252 0 l 1,3,-1
 122 0 l 1,0,-1
380 0 m 1,4,-1
 480 720 l 1,5,-1
 610 720 l 1,6,-1
 510 0 l 1,7,-1
 380 0 l 1,4,-1
57 547 m 1,8,-1
 700 547 l 1,9,-1
 700 425 l 1,10,-1
 57 425 l 1,11,-1
 57 547 l 1,8,-1
32 305 m 1,12,-1
 675 305 l 1,13,-1
 675 183 l 1,14,-1
 32 183 l 1,15,-1
 32 305 l 1,12,-1
EndSplineSet
Validated: 5
EndChar

StartChar: slash
Encoding: 47 47 357
Width: 445
Flags: W
LayerCount: 2
Fore
SplineSet
25 -80 m 1,0,-1
 290 770 l 1,1,-1
 420 770 l 1,2,-1
 155 -80 l 1,3,-1
 25 -80 l 1,0,-1
EndSplineSet
Validated: 1
EndChar

StartChar: backslash
Encoding: 92 92 358
Width: 445
Flags: W
LayerCount: 2
Fore
SplineSet
25 770 m 1,0,-1
 155 770 l 1,1,-1
 420 -80 l 1,2,-1
 290 -80 l 1,3,-1
 25 770 l 1,0,-1
EndSplineSet
Validated: 1
EndChar

StartChar: exclam.case
Encoding: 65639 -1 361
Width: 305
Flags: W
LayerCount: 2
Fore
SplineSet
91 274 m 1,0,-1
 69 720 l 1,1,-1
 235 720 l 1,2,-1
 213 274 l 1,3,-1
 91 274 l 1,0,-1
70 0 m 1,4,-1
 70 165 l 1,5,-1
 235 165 l 1,6,-1
 235 0 l 1,7,-1
 70 0 l 1,4,-1
EndSplineSet
Validated: 1
EndChar

StartChar: exclamdown.case
Encoding: 65640 -1 362
Width: 306
Flags: W
LayerCount: 2
Fore
SplineSet
70 0 m 1,0,-1
 92 446 l 1,1,-1
 214 446 l 1,2,-1
 236 0 l 1,3,-1
 70 0 l 1,0,-1
236 720 m 1,4,-1
 236 555 l 1,5,-1
 71 555 l 1,6,-1
 71 720 l 1,7,-1
 236 720 l 1,4,-1
EndSplineSet
Validated: 1
EndChar

StartChar: question.case
Encoding: 65641 -1 363
Width: 587
Flags: W
LayerCount: 2
Fore
SplineSet
231 274 m 1,0,1
 231 318 231 318 243.5 348.5 c 128,-1,2
 256 379 256 379 276 400 c 128,-1,3
 296 421 296 421 318 437 c 128,-1,4
 340 453 340 453 360 468 c 128,-1,5
 380 483 380 483 392.5 501.5 c 128,-1,6
 405 520 405 520 405 545 c 0,7,8
 405 575 405 575 379.5 593.5 c 128,-1,9
 354 612 354 612 309 612 c 0,10,11
 254 612 254 612 218.5 586 c 128,-1,12
 183 560 183 560 175 511 c 1,13,-1
 28 511 l 1,14,15
 38 578 38 578 75 627 c 128,-1,16
 112 676 112 676 172 703 c 128,-1,17
 232 730 232 730 310 730 c 0,18,19
 386 730 386 730 442 706.5 c 128,-1,20
 498 683 498 683 529.5 641.5 c 128,-1,21
 561 600 561 600 561 547 c 0,22,23
 561 506 561 506 547.5 476 c 128,-1,24
 534 446 534 446 513.5 425 c 128,-1,25
 493 404 493 404 469 386.5 c 128,-1,26
 445 369 445 369 424.5 353 c 128,-1,27
 404 337 404 337 390.5 318.5 c 128,-1,28
 377 300 377 300 377 274 c 1,29,-1
 231 274 l 1,0,1
222 0 m 1,30,-1
 222 165 l 1,31,-1
 387 165 l 1,32,-1
 387 0 l 1,33,-1
 222 0 l 1,30,-1
EndSplineSet
Validated: 1
EndChar

StartChar: questiondown.case
Encoding: 65642 -1 364
Width: 587
Flags: W
LayerCount: 2
Fore
SplineSet
277 -10 m 0,0,1
 202 -10 202 -10 145.5 13.5 c 128,-1,2
 89 37 89 37 57.5 78.5 c 128,-1,3
 26 120 26 120 26 173 c 0,4,5
 26 216 26 216 39.5 246 c 128,-1,6
 53 276 53 276 73.5 297.5 c 128,-1,7
 94 319 94 319 118 335.5 c 128,-1,8
 142 352 142 352 162.5 367.5 c 128,-1,9
 183 383 183 383 196.5 402 c 128,-1,10
 210 421 210 421 210 446 c 1,11,-1
 356 446 l 1,12,13
 356 402 356 402 343.5 372 c 128,-1,14
 331 342 331 342 311 321.5 c 128,-1,15
 291 301 291 301 269 285.5 c 128,-1,16
 247 270 247 270 227 255.5 c 128,-1,17
 207 241 207 241 194.5 223.5 c 128,-1,18
 182 206 182 206 182 180 c 0,19,20
 182 146 182 146 208.5 127 c 128,-1,21
 235 108 235 108 286 108 c 0,22,23
 335 108 335 108 370 128 c 128,-1,24
 405 148 405 148 412 189 c 1,25,-1
 559 189 l 1,26,27
 550 127 550 127 512.5 82.5 c 128,-1,28
 475 38 475 38 415 14 c 128,-1,29
 355 -10 355 -10 277 -10 c 0,0,1
365 720 m 1,30,-1
 365 555 l 1,31,-1
 200 555 l 1,32,-1
 200 720 l 1,33,-1
 365 720 l 1,30,-1
EndSplineSet
Validated: 1
EndChar

StartChar: bullet.case
Encoding: 65643 -1 365
Width: 714
Flags: W
LayerCount: 2
Fore
SplineSet
60 74 m 1,0,-1
 60 668 l 1,1,-1
 654 668 l 1,2,-1
 654 74 l 1,3,-1
 60 74 l 1,0,-1
EndSplineSet
Validated: 1
Substitution2: "'ss01' Style Set 1 in Latin lookup 22 subtable" bullet.case.ss01
Substitution2: "'aalt' Access All Alternates in Latin lookup 0 subtable" bullet.case.ss01
EndChar

StartChar: period.ss01
Encoding: 65645 -1 367
Width: 285
Flags: W
LayerCount: 2
Fore
SplineSet
143 -10 m 0,0,1
 104 -10 104 -10 77 15.5 c 128,-1,2
 50 41 50 41 50 83 c 0,3,4
 50 123 50 123 77 149 c 128,-1,5
 104 175 104 175 143 175 c 0,6,7
 179 175 179 175 207 149 c 128,-1,8
 235 123 235 123 235 83 c 0,9,10
 235 41 235 41 207 15.5 c 128,-1,11
 179 -10 179 -10 143 -10 c 0,0,1
EndSplineSet
Validated: 1
EndChar

StartChar: comma.ss01
Encoding: 65646 -1 368
Width: 285
Flags: W
LayerCount: 2
Fore
SplineSet
68 -168 m 1,0,-1
 68 -95 l 1,1,2
 110 -81 110 -81 129.5 -54 c 128,-1,3
 149 -27 149 -27 149 16 c 1,4,-1
 198 15 l 1,5,6
 187 6 187 6 171.5 0 c 128,-1,7
 156 -6 156 -6 142 -6 c 0,8,9
 103 -6 103 -6 76.5 19.5 c 128,-1,10
 50 45 50 45 50 85 c 0,11,12
 50 126 50 126 77 150.5 c 128,-1,13
 104 175 104 175 139 175 c 0,14,15
 179 175 179 175 207 145 c 128,-1,16
 235 115 235 115 235 48 c 0,17,18
 235 -31 235 -31 190.5 -89 c 128,-1,19
 146 -147 146 -147 68 -168 c 1,0,-1
EndSplineSet
Validated: 5
EndChar

StartChar: exclam.ss01
Encoding: 65650 -1 372
Width: 305
Flags: W
LayerCount: 2
Fore
SplineSet
91 274 m 1,0,-1
 69 740 l 1,1,-1
 235 740 l 1,2,-1
 213 274 l 1,3,-1
 91 274 l 1,0,-1
153 -10 m 0,4,5
 114 -10 114 -10 87 15.5 c 128,-1,6
 60 41 60 41 60 83 c 0,7,8
 60 123 60 123 87 149 c 128,-1,9
 114 175 114 175 153 175 c 0,10,11
 189 175 189 175 217 149 c 128,-1,12
 245 123 245 123 245 83 c 0,13,14
 245 41 245 41 217 15.5 c 128,-1,15
 189 -10 189 -10 153 -10 c 0,4,5
EndSplineSet
Validated: 1
EndChar

StartChar: exclamdown.ss01
Encoding: 65651 -1 373
Width: 325
Flags: W
LayerCount: 2
Fore
SplineSet
79 -205 m 1,0,-1
 101 236 l 1,1,-1
 223 236 l 1,2,-1
 245 -205 l 1,3,-1
 79 -205 l 1,0,-1
162 520 m 0,4,5
 201 520 201 520 228 494.5 c 128,-1,6
 255 469 255 469 255 427 c 0,7,8
 255 387 255 387 228 361 c 128,-1,9
 201 335 201 335 162 335 c 0,10,11
 126 335 126 335 98 361 c 128,-1,12
 70 387 70 387 70 427 c 0,13,14
 70 469 70 469 98 494.5 c 128,-1,15
 126 520 126 520 162 520 c 0,4,5
EndSplineSet
Validated: 1
EndChar

StartChar: question.ss01
Encoding: 65652 -1 374
Width: 587
Flags: W
LayerCount: 2
Fore
SplineSet
231 274 m 1,0,1
 231 321 231 321 243.5 353 c 128,-1,2
 256 385 256 385 276 407 c 128,-1,3
 296 429 296 429 318 446 c 128,-1,4
 340 463 340 463 360 478 c 128,-1,5
 380 493 380 493 392.5 511.5 c 128,-1,6
 405 530 405 530 405 555 c 0,7,8
 405 593 405 593 379.5 612.5 c 128,-1,9
 354 632 354 632 309 632 c 0,10,11
 254 632 254 632 218.5 606 c 128,-1,12
 183 580 183 580 175 531 c 1,13,-1
 28 531 l 1,14,15
 38 598 38 598 75 647 c 128,-1,16
 112 696 112 696 172 723 c 128,-1,17
 232 750 232 750 310 750 c 0,18,19
 386 750 386 750 442 726 c 128,-1,20
 498 702 498 702 529.5 658.5 c 128,-1,21
 561 615 561 615 561 557 c 0,22,23
 561 516 561 516 547.5 486 c 128,-1,24
 534 456 534 456 513.5 434.5 c 128,-1,25
 493 413 493 413 469 395.5 c 128,-1,26
 445 378 445 378 424.5 360.5 c 128,-1,27
 404 343 404 343 390.5 322.5 c 128,-1,28
 377 302 377 302 377 274 c 1,29,-1
 231 274 l 1,0,1
305 -10 m 0,30,31
 266 -10 266 -10 239 15.5 c 128,-1,32
 212 41 212 41 212 83 c 0,33,34
 212 123 212 123 239 149 c 128,-1,35
 266 175 266 175 305 175 c 0,36,37
 341 175 341 175 369 149 c 128,-1,38
 397 123 397 123 397 83 c 0,39,40
 397 41 397 41 369 15.5 c 128,-1,41
 341 -10 341 -10 305 -10 c 0,30,31
EndSplineSet
Validated: 1
EndChar

StartChar: questiondown.ss01
Encoding: 65653 -1 375
Width: 587
Flags: W
LayerCount: 2
Fore
SplineSet
277 -215 m 0,0,1
 202 -215 202 -215 145.5 -191.5 c 128,-1,2
 89 -168 89 -168 57.5 -126.5 c 128,-1,3
 26 -85 26 -85 26 -32 c 0,4,5
 26 10 26 10 39.5 39 c 128,-1,6
 53 68 53 68 73.5 89 c 128,-1,7
 94 110 94 110 118 126 c 128,-1,8
 142 142 142 142 162.5 158 c 128,-1,9
 183 174 183 174 196.5 192.5 c 128,-1,10
 210 211 210 211 210 236 c 1,11,-1
 356 236 l 1,12,13
 356 192 356 192 343.5 162 c 128,-1,14
 331 132 331 132 311 111.5 c 128,-1,15
 291 91 291 91 269 75.5 c 128,-1,16
 247 60 247 60 227 45.5 c 128,-1,17
 207 31 207 31 194.5 13.5 c 128,-1,18
 182 -4 182 -4 182 -30 c 0,19,20
 182 -60 182 -60 208.5 -78.5 c 128,-1,21
 235 -97 235 -97 286 -97 c 0,22,23
 335 -97 335 -97 370 -77 c 128,-1,24
 405 -57 405 -57 412 -16 c 1,25,-1
 559 -16 l 1,26,27
 550 -78 550 -78 512.5 -122.5 c 128,-1,28
 475 -167 475 -167 415 -191 c 128,-1,29
 355 -215 355 -215 277 -215 c 0,0,1
282 520 m 0,30,31
 321 520 321 520 348 494.5 c 128,-1,32
 375 469 375 469 375 427 c 0,33,34
 375 387 375 387 348 361 c 128,-1,35
 321 335 321 335 282 335 c 0,36,37
 246 335 246 335 218 361 c 128,-1,38
 190 387 190 387 190 427 c 0,39,40
 190 469 190 469 218 494.5 c 128,-1,41
 246 520 246 520 282 520 c 0,30,31
EndSplineSet
Validated: 1
EndChar

StartChar: bullet.ss01
Encoding: 65655 -1 377
Width: 379
Flags: W
LayerCount: 2
Fore
SplineSet
190 231 m 0,0,1
 136 231 136 231 98 266.5 c 128,-1,2
 60 302 60 302 60 361 c 0,3,4
 60 417 60 417 98 453.5 c 128,-1,5
 136 490 136 490 190 490 c 0,6,7
 241 490 241 490 280 453.5 c 128,-1,8
 319 417 319 417 319 361 c 0,9,10
 319 302 319 302 280 266.5 c 128,-1,11
 241 231 241 231 190 231 c 0,0,1
EndSplineSet
Validated: 1
EndChar

StartChar: bullet.case.ss01
Encoding: 65657 -1 379
Width: 786
Flags: W
LayerCount: 2
Fore
SplineSet
395 38 m 0,0,1
 254 38 254 38 157 130 c 128,-1,2
 60 222 60 222 60 373 c 0,3,4
 60 516 60 516 157 610 c 128,-1,5
 254 704 254 704 395 704 c 0,6,7
 524 704 524 704 625 610 c 128,-1,8
 726 516 726 516 726 373 c 0,9,10
 726 222 726 222 625 130 c 128,-1,11
 524 38 524 38 395 38 c 0,0,1
EndSplineSet
Validated: 1
EndChar

StartChar: hyphen
Encoding: 45 45 381
Width: 486
Flags: W
LayerCount: 2
Fore
SplineSet
60 212 m 1,0,-1
 60 332 l 1,1,-1
 426 332 l 1,2,-1
 426 212 l 1,3,-1
 60 212 l 1,0,-1
EndSplineSet
Validated: 1
Substitution2: "'case' Case-Sensitive Forms in Latin lookup 20 subtable" hyphen.case
Substitution2: "'aalt' Access All Alternates in Latin lookup 0 subtable" hyphen.case
EndChar

StartChar: endash
Encoding: 8211 8211 382
Width: 606
Flags: W
LayerCount: 2
Fore
SplineSet
60 217 m 1,0,-1
 60 327 l 1,1,-1
 546 327 l 1,2,-1
 546 217 l 1,3,-1
 60 217 l 1,0,-1
EndSplineSet
Validated: 1
Substitution2: "'case' Case-Sensitive Forms in Latin lookup 20 subtable" endash.case
Substitution2: "'aalt' Access All Alternates in Latin lookup 0 subtable" endash.case
EndChar

StartChar: emdash
Encoding: 8212 8212 383
Width: 906
Flags: W
LayerCount: 2
Fore
SplineSet
60 217 m 1,0,-1
 60 327 l 1,1,-1
 846 327 l 1,2,-1
 846 217 l 1,3,-1
 60 217 l 1,0,-1
EndSplineSet
Validated: 1
Substitution2: "'case' Case-Sensitive Forms in Latin lookup 20 subtable" emdash.case
Substitution2: "'aalt' Access All Alternates in Latin lookup 0 subtable" emdash.case
EndChar

StartChar: hyphen.case
Encoding: 65659 -1 385
Width: 486
Flags: W
LayerCount: 2
Fore
SplineSet
60 300 m 1,0,-1
 60 420 l 1,1,-1
 426 420 l 1,2,-1
 426 300 l 1,3,-1
 60 300 l 1,0,-1
EndSplineSet
Validated: 1
EndChar

StartChar: endash.case
Encoding: 65660 -1 386
Width: 606
Flags: W
LayerCount: 2
Fore
SplineSet
60 305 m 1,0,-1
 60 415 l 1,1,-1
 546 415 l 1,2,-1
 546 305 l 1,3,-1
 60 305 l 1,0,-1
EndSplineSet
Validated: 1
EndChar

StartChar: emdash.case
Encoding: 65661 -1 387
Width: 906
Flags: W
LayerCount: 2
Fore
SplineSet
60 305 m 1,0,-1
 60 415 l 1,1,-1
 846 415 l 1,2,-1
 846 305 l 1,3,-1
 60 305 l 1,0,-1
EndSplineSet
Validated: 1
EndChar

StartChar: parenleft
Encoding: 40 40 388
Width: 456
Flags: W
LayerCount: 2
Fore
SplineSet
269 -110 m 1,0,1
 167 -17 167 -17 118.5 94 c 128,-1,2
 70 205 70 205 70 320 c 0,3,4
 70 433 70 433 119 544.5 c 128,-1,5
 168 656 168 656 269 750 c 1,6,-1
 416 750 l 1,7,8
 315 656 315 656 264.5 548.5 c 128,-1,9
 214 441 214 441 214 320 c 0,10,11
 214 198 214 198 266 90.5 c 128,-1,12
 318 -17 318 -17 416 -110 c 1,13,-1
 269 -110 l 1,0,1
EndSplineSet
Validated: 1
Substitution2: "'case' Case-Sensitive Forms in Latin lookup 20 subtable" parenleft.case
Substitution2: "'aalt' Access All Alternates in Latin lookup 0 subtable" parenleft.case
EndChar

StartChar: parenright
Encoding: 41 41 389
Width: 456
Flags: W
LayerCount: 2
Fore
SplineSet
187 754 m 1,0,1
 289 661 289 661 337.5 550 c 128,-1,2
 386 439 386 439 386 324 c 0,3,4
 386 211 386 211 337 99.5 c 128,-1,5
 288 -12 288 -12 187 -106 c 1,6,-1
 40 -106 l 1,7,8
 141 -12 141 -12 191.5 95.5 c 128,-1,9
 242 203 242 203 242 324 c 0,10,11
 242 446 242 446 190 553.5 c 128,-1,12
 138 661 138 661 40 754 c 1,13,-1
 187 754 l 1,0,1
EndSplineSet
Validated: 1
Substitution2: "'case' Case-Sensitive Forms in Latin lookup 20 subtable" parenright.case
Substitution2: "'aalt' Access All Alternates in Latin lookup 0 subtable" parenright.case
EndChar

StartChar: braceleft
Encoding: 123 123 390
Width: 456
Flags: W
LayerCount: 2
Fore
SplineSet
308 -108 m 2,0,1
 230 -108 230 -108 185.5 -83 c 128,-1,2
 141 -58 141 -58 126.5 -14.5 c 128,-1,3
 112 29 112 29 124 85 c 2,4,-1
 140 157 l 2,5,6
 152 210 152 210 133 236 c 128,-1,7
 114 262 114 262 64 262 c 2,8,-1
 30 262 l 1,9,-1
 30 380 l 1,10,-1
 64 380 l 2,11,12
 114 380 114 380 133 406.5 c 128,-1,13
 152 433 152 433 140 485 c 2,14,-1
 124 557 l 2,15,16
 112 613 112 613 126.5 656.5 c 128,-1,17
 141 700 141 700 185.5 725 c 128,-1,18
 230 750 230 750 308 750 c 2,19,-1
 406 750 l 1,20,-1
 406 632 l 1,21,-1
 316 632 l 2,22,23
 283 632 283 632 267.5 611 c 128,-1,24
 252 590 252 590 261 555 c 2,25,-1
 281 479 l 2,26,27
 297 420 297 420 271 378 c 128,-1,28
 245 336 245 336 193 321 c 1,29,30
 245 306 245 306 271 264 c 128,-1,31
 297 222 297 222 281 163 c 2,32,-1
 261 87 l 2,33,34
 252 52 252 52 267.5 31 c 128,-1,35
 283 10 283 10 316 10 c 2,36,-1
 406 10 l 1,37,-1
 406 -108 l 1,38,-1
 308 -108 l 2,0,1
EndSplineSet
Validated: 33
Substitution2: "'case' Case-Sensitive Forms in Latin lookup 20 subtable" braceleft.case
Substitution2: "'aalt' Access All Alternates in Latin lookup 0 subtable" braceleft.case
EndChar

StartChar: braceright
Encoding: 125 125 391
Width: 456
Flags: W
LayerCount: 2
Fore
SplineSet
148 750 m 2,0,1
 226 750 226 750 270.5 725 c 128,-1,2
 315 700 315 700 330 656.5 c 128,-1,3
 345 613 345 613 332 557 c 2,4,-1
 316 485 l 2,5,6
 304 433 304 433 323 406.5 c 128,-1,7
 342 380 342 380 392 380 c 2,8,-1
 426 380 l 1,9,-1
 426 262 l 1,10,-1
 392 262 l 2,11,12
 342 262 342 262 323 236 c 128,-1,13
 304 210 304 210 316 157 c 2,14,-1
 332 85 l 2,15,16
 345 29 345 29 330 -14.5 c 128,-1,17
 315 -58 315 -58 270.5 -83 c 128,-1,18
 226 -108 226 -108 148 -108 c 2,19,-1
 50 -108 l 1,20,-1
 50 10 l 1,21,-1
 140 10 l 2,22,23
 173 10 173 10 188.5 31 c 128,-1,24
 204 52 204 52 195 87 c 2,25,-1
 175 163 l 2,26,27
 159 222 159 222 185 264 c 128,-1,28
 211 306 211 306 263 321 c 1,29,30
 211 336 211 336 185 378 c 128,-1,31
 159 420 159 420 175 479 c 2,32,-1
 195 555 l 2,33,34
 204 590 204 590 188.5 611 c 128,-1,35
 173 632 173 632 140 632 c 2,36,-1
 50 632 l 1,37,-1
 50 750 l 1,38,-1
 148 750 l 2,0,1
EndSplineSet
Validated: 33
Substitution2: "'case' Case-Sensitive Forms in Latin lookup 20 subtable" braceright.case
Substitution2: "'aalt' Access All Alternates in Latin lookup 0 subtable" braceright.case
EndChar

StartChar: bracketleft
Encoding: 91 91 392
Width: 456
Flags: W
LayerCount: 2
Fore
SplineSet
80 -108 m 1,0,-1
 80 750 l 1,1,-1
 406 750 l 1,2,-1
 406 632 l 1,3,-1
 222 632 l 1,4,-1
 222 10 l 1,5,-1
 406 10 l 1,6,-1
 406 -108 l 1,7,-1
 80 -108 l 1,0,-1
EndSplineSet
Validated: 1
Substitution2: "'case' Case-Sensitive Forms in Latin lookup 20 subtable" bracketleft.case
Substitution2: "'aalt' Access All Alternates in Latin lookup 0 subtable" bracketleft.case
EndChar

StartChar: bracketright
Encoding: 93 93 393
Width: 456
Flags: W
LayerCount: 2
Fore
SplineSet
376 750 m 1,0,-1
 376 -108 l 1,1,-1
 50 -108 l 1,2,-1
 50 10 l 1,3,-1
 234 10 l 1,4,-1
 234 632 l 1,5,-1
 50 632 l 1,6,-1
 50 750 l 1,7,-1
 376 750 l 1,0,-1
EndSplineSet
Validated: 1
Substitution2: "'case' Case-Sensitive Forms in Latin lookup 20 subtable" bracketright.case
Substitution2: "'aalt' Access All Alternates in Latin lookup 0 subtable" bracketright.case
EndChar

StartChar: parenleft.case
Encoding: 65662 -1 394
Width: 456
Flags: W
LayerCount: 2
Fore
SplineSet
269 -40 m 1,0,1
 201 15 201 15 157 82 c 128,-1,2
 113 149 113 149 91.5 220.5 c 128,-1,3
 70 292 70 292 70 359 c 0,4,5
 70 427 70 427 91.5 498.5 c 128,-1,6
 113 570 113 570 157.5 637.5 c 128,-1,7
 202 705 202 705 269 760 c 1,8,-1
 416 760 l 1,9,10
 315 678 315 678 264.5 572 c 128,-1,11
 214 466 214 466 214 359 c 0,12,13
 214 251 214 251 266 146.5 c 128,-1,14
 318 42 318 42 416 -40 c 1,15,-1
 269 -40 l 1,0,1
EndSplineSet
Validated: 1
EndChar

StartChar: parenright.case
Encoding: 65663 -1 395
Width: 456
Flags: W
LayerCount: 2
Fore
SplineSet
187 760 m 1,0,1
 255 706 255 706 299 638.5 c 128,-1,2
 343 571 343 571 364.5 500 c 128,-1,3
 386 429 386 429 386 361 c 0,4,5
 386 294 386 294 364.5 222 c 128,-1,6
 343 150 343 150 299 82.5 c 128,-1,7
 255 15 255 15 187 -40 c 1,8,-1
 40 -40 l 1,9,10
 141 43 141 43 191.5 148.5 c 128,-1,11
 242 254 242 254 242 361 c 0,12,13
 242 469 242 469 190 573.5 c 128,-1,14
 138 678 138 678 40 760 c 1,15,-1
 187 760 l 1,0,1
EndSplineSet
Validated: 1
EndChar

StartChar: braceleft.case
Encoding: 65664 -1 396
Width: 456
Flags: W
LayerCount: 2
Fore
SplineSet
308 -40 m 2,0,1
 230 -40 230 -40 182 -14 c 128,-1,2
 134 12 134 12 119 55.5 c 128,-1,3
 104 99 104 99 124 153 c 2,4,-1
 140 196 l 2,5,6
 159 246 159 246 136.5 273.5 c 128,-1,7
 114 301 114 301 64 301 c 2,8,-1
 30 301 l 1,9,-1
 30 419 l 1,10,-1
 64 419 l 2,11,12
 114 419 114 419 136.5 446.5 c 128,-1,13
 159 474 159 474 140 524 c 2,14,-1
 124 567 l 2,15,16
 104 621 104 621 119 665 c 128,-1,17
 134 709 134 709 182 734.5 c 128,-1,18
 230 760 230 760 308 760 c 2,19,-1
 406 760 l 1,20,-1
 406 642 l 1,21,-1
 316 642 l 2,22,23
 283 642 283 642 265 620 c 128,-1,24
 247 598 247 598 261 565 c 2,25,-1
 281 518 l 2,26,27
 297 481 297 481 288 448.5 c 128,-1,28
 279 416 279 416 253.5 393 c 128,-1,29
 228 370 228 370 193 360 c 1,30,31
 228 350 228 350 253.5 327 c 128,-1,32
 279 304 279 304 288 272 c 128,-1,33
 297 240 297 240 281 202 c 2,34,-1
 261 155 l 2,35,36
 247 122 247 122 265 100 c 128,-1,37
 283 78 283 78 316 78 c 2,38,-1
 406 78 l 1,39,-1
 406 -40 l 1,40,-1
 308 -40 l 2,0,1
EndSplineSet
Validated: 33
EndChar

StartChar: braceright.case
Encoding: 65665 -1 397
Width: 456
Flags: W
LayerCount: 2
Fore
SplineSet
148 760 m 2,0,1
 226 760 226 760 274 734.5 c 128,-1,2
 322 709 322 709 337 665 c 128,-1,3
 352 621 352 621 332 567 c 2,4,-1
 316 524 l 2,5,6
 297 474 297 474 319.5 446.5 c 128,-1,7
 342 419 342 419 392 419 c 2,8,-1
 426 419 l 1,9,-1
 426 301 l 1,10,-1
 392 301 l 2,11,12
 342 301 342 301 319.5 273.5 c 128,-1,13
 297 246 297 246 316 196 c 2,14,-1
 332 153 l 2,15,16
 352 99 352 99 337 55.5 c 128,-1,17
 322 12 322 12 274 -14 c 128,-1,18
 226 -40 226 -40 148 -40 c 2,19,-1
 50 -40 l 1,20,-1
 50 78 l 1,21,-1
 140 78 l 2,22,23
 173 78 173 78 191 100 c 128,-1,24
 209 122 209 122 195 155 c 2,25,-1
 175 202 l 2,26,27
 159 240 159 240 168 272 c 128,-1,28
 177 304 177 304 203 327 c 128,-1,29
 229 350 229 350 263 360 c 1,30,31
 229 370 229 370 203 393 c 128,-1,32
 177 416 177 416 168 448.5 c 128,-1,33
 159 481 159 481 175 518 c 2,34,-1
 195 565 l 2,35,36
 209 598 209 598 191 620 c 128,-1,37
 173 642 173 642 140 642 c 2,38,-1
 50 642 l 1,39,-1
 50 760 l 1,40,-1
 148 760 l 2,0,1
EndSplineSet
Validated: 33
EndChar

StartChar: bracketleft.case
Encoding: 65666 -1 398
Width: 456
Flags: W
LayerCount: 2
Fore
SplineSet
80 -40 m 1,0,-1
 80 760 l 1,1,-1
 406 760 l 1,2,-1
 406 642 l 1,3,-1
 222 642 l 1,4,-1
 222 78 l 1,5,-1
 406 78 l 1,6,-1
 406 -40 l 1,7,-1
 80 -40 l 1,0,-1
EndSplineSet
Validated: 1
EndChar

StartChar: bracketright.case
Encoding: 65667 -1 399
Width: 456
Flags: W
LayerCount: 2
Fore
SplineSet
376 760 m 1,0,-1
 376 -40 l 1,1,-1
 50 -40 l 1,2,-1
 50 78 l 1,3,-1
 234 78 l 1,4,-1
 234 642 l 1,5,-1
 50 642 l 1,6,-1
 50 760 l 1,7,-1
 376 760 l 1,0,-1
EndSplineSet
Validated: 1
EndChar

StartChar: quoteleft
Encoding: 8216 8216 404
Width: 285
Flags: W
LayerCount: 2
Fore
SplineSet
60 427 m 1,0,-1
 60 539 l 2,1,2
 60 614 60 614 101 670.5 c 128,-1,3
 142 727 142 727 227 740 c 1,4,-1
 227 667 l 1,5,6
 178 661 178 661 162 635 c 128,-1,7
 146 609 146 609 146 566 c 1,8,-1
 87 578 l 1,9,-1
 225 578 l 1,10,-1
 225 427 l 1,11,-1
 60 427 l 1,0,-1
EndSplineSet
Validated: 5
Substitution2: "'ss01' Style Set 1 in Latin lookup 22 subtable" quoteleft.ss01
Substitution2: "'aalt' Access All Alternates in Latin lookup 0 subtable" quoteleft.ss01
EndChar

StartChar: quoteright
Encoding: 8217 8217 405
Width: 285
Flags: W
LayerCount: 2
Fore
SplineSet
58 427 m 1,0,-1
 58 500 l 1,1,2
 108 506 108 506 123.5 532 c 128,-1,3
 139 558 139 558 139 601 c 1,4,-1
 198 589 l 1,5,-1
 60 589 l 1,6,-1
 60 740 l 1,7,-1
 225 740 l 1,8,-1
 225 628 l 2,9,10
 225 553 225 553 184.5 497 c 128,-1,11
 144 441 144 441 58 427 c 1,0,-1
EndSplineSet
Validated: 5
Substitution2: "'ss01' Style Set 1 in Latin lookup 22 subtable" quoteright.ss01
Substitution2: "'aalt' Access All Alternates in Latin lookup 0 subtable" quoteright.ss01
EndChar

StartChar: guillemotright
Encoding: 187 187 407
Width: 574
Flags: W
LayerCount: 2
Fore
SplineSet
397 434 m 1,0,-1
 529 251 l 1,1,-1
 397 68 l 1,2,-1
 255 68 l 1,3,-1
 383 251 l 1,4,-1
 255 434 l 1,5,-1
 397 434 l 1,0,-1
197 434 m 1,6,-1
 329 251 l 1,7,-1
 197 68 l 1,8,-1
 55 68 l 1,9,-1
 183 251 l 1,10,-1
 55 434 l 1,11,-1
 197 434 l 1,6,-1
EndSplineSet
Validated: 1
EndChar

StartChar: guilsinglleft
Encoding: 8249 8249 408
Width: 374
Flags: W
LayerCount: 2
Fore
SplineSet
177 68 m 1,0,-1
 45 251 l 1,1,-1
 177 434 l 1,2,-1
 319 434 l 1,3,-1
 191 251 l 1,4,-1
 319 68 l 1,5,-1
 177 68 l 1,0,-1
EndSplineSet
Validated: 1
EndChar

StartChar: guilsinglright
Encoding: 8250 8250 409
Width: 374
Flags: W
LayerCount: 2
Fore
SplineSet
197 68 m 1,0,-1
 55 68 l 1,1,-1
 183 251 l 1,2,-1
 55 434 l 1,3,-1
 197 434 l 1,4,-1
 329 251 l 1,5,-1
 197 68 l 1,0,-1
EndSplineSet
Validated: 1
EndChar

StartChar: quotesingle
Encoding: 39 39 411
Width: 268
Flags: W
LayerCount: 2
Fore
SplineSet
111 420 m 1,0,-1
 73 549 l 2,1,2
 61 589 61 589 55.5 614.5 c 128,-1,3
 50 640 50 640 50 665 c 0,4,5
 50 683 50 683 58.5 703 c 128,-1,6
 67 723 67 723 85.5 736.5 c 128,-1,7
 104 750 104 750 134 750 c 256,8,9
 164 750 164 750 182.5 736.5 c 128,-1,10
 201 723 201 723 209.5 703 c 128,-1,11
 218 683 218 683 218 665 c 0,12,13
 218 640 218 640 212.5 614.5 c 128,-1,14
 207 589 207 589 195 549 c 2,15,-1
 157 420 l 1,16,-1
 111 420 l 1,0,-1
EndSplineSet
Validated: 1
EndChar

StartChar: quoteleft.ss01
Encoding: 65672 -1 416
Width: 303
Flags: W
LayerCount: 2
Fore
SplineSet
156 417 m 0,0,1
 115 417 115 417 87.5 446.5 c 128,-1,2
 60 476 60 476 60 539 c 0,3,4
 60 614 60 614 106 670.5 c 128,-1,5
 152 727 152 727 237 740 c 1,6,-1
 237 667 l 1,7,8
 188 661 188 661 167 635 c 128,-1,9
 146 609 146 609 146 566 c 1,10,-1
 97 567 l 1,11,12
 108 576 108 576 124 582 c 128,-1,13
 140 588 140 588 153 588 c 0,14,15
 194 588 194 588 219.5 563.5 c 128,-1,16
 245 539 245 539 245 502 c 256,17,18
 245 465 245 465 219 441 c 128,-1,19
 193 417 193 417 156 417 c 0,0,1
EndSplineSet
Validated: 5
EndChar

StartChar: quoteright.ss01
Encoding: 65673 -1 417
Width: 285
Flags: W
LayerCount: 2
Fore
SplineSet
58 427 m 1,0,-1
 58 500 l 1,1,2
 108 506 108 506 128.5 532 c 128,-1,3
 149 558 149 558 149 601 c 1,4,-1
 198 600 l 1,5,6
 187 591 187 591 171.5 585 c 128,-1,7
 156 579 156 579 142 579 c 0,8,9
 102 579 102 579 76 603.5 c 128,-1,10
 50 628 50 628 50 665 c 256,11,12
 50 702 50 702 76 726 c 128,-1,13
 102 750 102 750 139 750 c 0,14,15
 180 750 180 750 207.5 720.5 c 128,-1,16
 235 691 235 691 235 628 c 0,17,18
 235 553 235 553 189.5 497 c 128,-1,19
 144 441 144 441 58 427 c 1,0,-1
EndSplineSet
Validated: 5
EndChar

StartChar: less_hyphen.liga
Encoding: 65674 -1 418
Width: 850
GlyphClass: 3
LigCaretCntFixed: 1
Flags: W
LayerCount: 2
Fore
SplineSet
810 290 m 1,0,-1
 166 290 l 1,1,-1
 257 352 l 1,2,-1
 600 10 l 1,3,-1
 409 10 l 1,4,-1
 60 360 l 1,5,-1
 409 710 l 1,6,-1
 600 710 l 1,7,-1
 257 368 l 1,8,-1
 166 430 l 1,9,-1
 810 430 l 1,10,-1
 810 290 l 1,0,-1
EndSplineSet
Validated: 5
Ligature2: "'liga' Standard Ligatures in Latin lookup 21 subtable" less hyphen
LCarets2: 1 425
EndChar

StartChar: at
Encoding: 64 64 419
Width: 874
Flags: W
LayerCount: 2
Fore
SplineSet
431 -10 m 0,0,1
 309 -10 309 -10 219 31 c 128,-1,2
 129 72 129 72 79.5 147.5 c 128,-1,3
 30 223 30 223 30 326 c 0,4,5
 30 412 30 412 60 485.5 c 128,-1,6
 90 559 90 559 148.5 614 c 128,-1,7
 207 669 207 669 292.5 699.5 c 128,-1,8
 378 730 378 730 490 730 c 0,9,10
 597 730 597 730 676.5 694.5 c 128,-1,11
 756 659 756 659 800 595 c 128,-1,12
 844 531 844 531 844 445 c 0,13,14
 844 388 844 388 824.5 335 c 128,-1,15
 805 282 805 282 771 240.5 c 128,-1,16
 737 199 737 199 693 175 c 128,-1,17
 649 151 649 151 601 151 c 0,18,19
 560 151 560 151 533 168 c 128,-1,20
 506 185 506 185 496 212.5 c 128,-1,21
 486 240 486 240 496 273 c 1,22,-1
 495 252 l 1,23,24
 473 206 473 206 434 179 c 128,-1,25
 395 152 395 152 347 152 c 0,26,27
 283 152 283 152 243.5 198.5 c 128,-1,28
 204 245 204 245 204 322 c 0,29,30
 204 373 204 373 220.5 418.5 c 128,-1,31
 237 464 237 464 265.5 498.5 c 128,-1,32
 294 533 294 533 331.5 552.5 c 128,-1,33
 369 572 369 572 412 572 c 0,34,35
 477 572 477 572 507.5 537.5 c 128,-1,36
 538 503 538 503 531 453 c 1,37,-1
 522 454 l 1,38,-1
 544 538 l 1,39,-1
 674 538 l 1,40,-1
 619 326 l 2,41,42
 608 283 608 283 612 262.5 c 128,-1,43
 616 242 616 242 637 242 c 0,44,45
 659 242 659 242 678.5 257.5 c 128,-1,46
 698 273 698 273 713 299.5 c 128,-1,47
 728 326 728 326 736.5 360.5 c 128,-1,48
 745 395 745 395 745 433 c 0,49,50
 745 502 745 502 714 547.5 c 128,-1,51
 683 593 683 593 625.5 616 c 128,-1,52
 568 639 568 639 488 639 c 0,53,54
 396 639 396 639 328.5 615.5 c 128,-1,55
 261 592 261 592 217 550 c 128,-1,56
 173 508 173 508 151.5 451 c 128,-1,57
 130 394 130 394 130 328 c 0,58,59
 130 251 130 251 166 195.5 c 128,-1,60
 202 140 202 140 268 110.5 c 128,-1,61
 334 81 334 81 424 81 c 0,62,63
 475 81 475 81 526.5 91 c 128,-1,64
 578 101 578 101 629 120 c 1,65,-1
 662 35 l 1,66,67
 613 13 613 13 554 1.5 c 128,-1,68
 495 -10 495 -10 431 -10 c 0,0,1
407 258 m 0,69,70
 427 258 427 258 443.5 267 c 128,-1,71
 460 276 460 276 472.5 292 c 128,-1,72
 485 308 485 308 492 330 c 128,-1,73
 499 352 499 352 499 378 c 0,74,75
 499 420 499 420 481 443 c 128,-1,76
 463 466 463 466 431 466 c 0,77,78
 411 466 411 466 394 457 c 128,-1,79
 377 448 377 448 364 431.5 c 128,-1,80
 351 415 351 415 344 393.5 c 128,-1,81
 337 372 337 372 337 346 c 0,82,83
 337 303 337 303 356.5 280.5 c 128,-1,84
 376 258 376 258 407 258 c 0,69,70
EndSplineSet
Validated: 37
EndChar

StartChar: ampersand
Encoding: 65675 -1 420
Width: 774
Flags: W
LayerCount: 2
Fore
SplineSet
576 0 m 1,0,-1
 204 396 l 2,1,2
 172 431 172 431 154 458 c 128,-1,3
 136 485 136 485 129 509.5 c 128,-1,4
 122 534 122 534 122 562 c 0,5,6
 122 608 122 608 148 646 c 128,-1,7
 174 684 174 684 221 707 c 128,-1,8
 268 730 268 730 330 730 c 0,9,10
 390 730 390 730 437.5 708.5 c 128,-1,11
 485 687 485 687 512.5 647.5 c 128,-1,12
 540 608 540 608 540 553 c 0,13,14
 540 491 540 491 494.5 438.5 c 128,-1,15
 449 386 449 386 363 357 c 1,16,-1
 292 442 l 1,17,18
 355 464 355 464 382.5 494 c 128,-1,19
 410 524 410 524 410 558 c 0,20,21
 410 587 410 587 391 607.5 c 128,-1,22
 372 628 372 628 334 628 c 0,23,24
 297 628 297 628 279.5 607 c 128,-1,25
 262 586 262 586 262 563 c 0,26,27
 262 547 262 547 268.5 529 c 128,-1,28
 275 511 275 511 298 482.5 c 128,-1,29
 321 454 321 454 368 405 c 2,30,-1
 768 0 l 1,31,-1
 576 0 l 1,0,-1
305 -10 m 0,32,33
 219 -10 219 -10 154.5 17 c 128,-1,34
 90 44 90 44 54 91 c 128,-1,35
 18 138 18 138 18 199 c 0,36,37
 18 285 18 285 75.5 341.5 c 128,-1,38
 133 398 133 398 247 434 c 1,39,-1
 316 347 l 1,40,41
 258 327 258 327 225.5 306 c 128,-1,42
 193 285 193 285 180.5 262.5 c 128,-1,43
 168 240 168 240 168 214 c 0,44,45
 168 166 168 166 207.5 139 c 128,-1,46
 247 112 247 112 319 112 c 0,47,48
 366 112 366 112 411 126 c 128,-1,49
 456 140 456 140 493 172 c 128,-1,50
 530 204 530 204 552 257 c 128,-1,51
 574 310 574 310 574 388 c 1,52,-1
 715 388 l 1,53,54
 715 318 715 318 694.5 257 c 128,-1,55
 674 196 674 196 637 146.5 c 128,-1,56
 600 97 600 97 549 62 c 128,-1,57
 498 27 498 27 436 8.5 c 128,-1,58
 374 -10 374 -10 305 -10 c 0,32,33
EndSplineSet
Validated: 5
Substitution2: "'calt' Contextual Alternates in Latin lookup 32 subtable" ampersand.ss11
Substitution2: "'aalt' Access All Alternates in Latin lookup 0 subtable" ampersand.ss11
EndChar

StartChar: paragraph
Encoding: 182 182 421
Width: 639
Flags: W
LayerCount: 2
Fore
SplineSet
244 -130 m 1,0,-1
 244 326 l 1,1,-1
 228 326 l 2,2,3
 171 326 171 326 124 350.5 c 128,-1,4
 77 375 77 375 49.5 419 c 128,-1,5
 22 463 22 463 22 520 c 0,6,7
 22 579 22 579 49.5 624 c 128,-1,8
 77 669 77 669 124.5 694.5 c 128,-1,9
 172 720 172 720 231 720 c 2,10,-1
 589 720 l 1,11,-1
 589 -130 l 1,12,-1
 442 -130 l 1,13,-1
 442 610 l 1,14,-1
 391 610 l 1,15,-1
 391 -130 l 1,16,-1
 244 -130 l 1,0,-1
EndSplineSet
Validated: 1
EndChar

StartChar: section
Encoding: 167 167 422
Width: 530
Flags: W
LayerCount: 2
Fore
SplineSet
284 181 m 1,0,-1
 284 275 l 1,1,2
 334 275 334 275 354 288.5 c 128,-1,3
 374 302 374 302 374 329 c 0,4,5
 374 355 374 355 357 369 c 128,-1,6
 340 383 340 383 307 390 c 2,7,-1
 234 405 l 2,8,9
 143 425 143 425 100 464.5 c 128,-1,10
 57 504 57 504 57 567 c 0,11,12
 57 644 57 644 114 687 c 128,-1,13
 171 730 171 730 273 730 c 0,14,15
 374 730 374 730 434 688 c 128,-1,16
 494 646 494 646 500 572 c 1,17,-1
 366 572 l 1,18,19
 362 599 362 599 338 612.5 c 128,-1,20
 314 626 314 626 270 626 c 0,21,22
 230 626 230 626 210.5 614.5 c 128,-1,23
 191 603 191 603 191 581 c 0,24,25
 191 562 191 562 207 551 c 128,-1,26
 223 540 223 540 260 532 c 2,27,-1
 352 513 l 2,28,29
 429 497 429 497 468.5 452 c 128,-1,30
 508 407 508 407 508 345 c 0,31,32
 508 267 508 267 449.5 224 c 128,-1,33
 391 181 391 181 284 181 c 1,0,-1
259 -50 m 0,34,35
 158 -50 158 -50 98 -8 c 128,-1,36
 38 34 38 34 32 108 c 1,37,-1
 166 108 l 1,38,39
 170 81 170 81 194.5 67.5 c 128,-1,40
 219 54 219 54 262 54 c 0,41,42
 302 54 302 54 321.5 65.5 c 128,-1,43
 341 77 341 77 341 99 c 0,44,45
 341 118 341 118 325.5 129 c 128,-1,46
 310 140 310 140 272 148 c 2,47,-1
 180 167 l 2,48,49
 103 184 103 184 63.5 229 c 128,-1,50
 24 274 24 274 24 335 c 0,51,52
 24 413 24 413 82.5 456 c 128,-1,53
 141 499 141 499 248 499 c 1,54,-1
 248 405 l 1,55,56
 198 405 198 405 178 391.5 c 128,-1,57
 158 378 158 378 158 351 c 0,58,59
 158 325 158 325 175.5 312 c 128,-1,60
 193 299 193 299 226 291 c 2,61,-1
 298 275 l 2,62,63
 390 256 390 256 432.5 216 c 128,-1,64
 475 176 475 176 475 113 c 0,65,66
 475 36 475 36 418 -7 c 128,-1,67
 361 -50 361 -50 259 -50 c 0,34,35
EndSplineSet
Validated: 5
EndChar

StartChar: copyright
Encoding: 169 169 423
Width: 810
Flags: W
LayerCount: 2
Fore
SplineSet
405 -15 m 256,0,1
 327 -15 327 -15 259 14 c 128,-1,2
 191 43 191 43 139.5 94.5 c 128,-1,3
 88 146 88 146 59 214 c 128,-1,4
 30 282 30 282 30 360 c 256,5,6
 30 438 30 438 59 506 c 128,-1,7
 88 574 88 574 139.5 625.5 c 128,-1,8
 191 677 191 677 259 706 c 128,-1,9
 327 735 327 735 405 735 c 256,10,11
 483 735 483 735 551 706 c 128,-1,12
 619 677 619 677 670.5 625.5 c 128,-1,13
 722 574 722 574 751 506 c 128,-1,14
 780 438 780 438 780 360 c 256,15,16
 780 282 780 282 751 214 c 128,-1,17
 722 146 722 146 670.5 94.5 c 128,-1,18
 619 43 619 43 551 14 c 128,-1,19
 483 -15 483 -15 405 -15 c 256,0,1
405 50 m 256,20,21
 469 50 469 50 524.5 74 c 128,-1,22
 580 98 580 98 622.5 141 c 128,-1,23
 665 184 665 184 689 240 c 128,-1,24
 713 296 713 296 713 360 c 256,25,26
 713 424 713 424 689 480 c 128,-1,27
 665 536 665 536 622.5 579 c 128,-1,28
 580 622 580 622 524.5 646 c 128,-1,29
 469 670 469 670 405 670 c 256,30,31
 341 670 341 670 285.5 646 c 128,-1,32
 230 622 230 622 187.5 579 c 128,-1,33
 145 536 145 536 121 480 c 128,-1,34
 97 424 97 424 97 360 c 256,35,36
 97 296 97 296 121 240 c 128,-1,37
 145 184 145 184 187.5 141 c 128,-1,38
 230 98 230 98 285.5 74 c 128,-1,39
 341 50 341 50 405 50 c 256,20,21
413 140 m 0,40,41
 351 140 351 140 302 168.5 c 128,-1,42
 253 197 253 197 225.5 247.5 c 128,-1,43
 198 298 198 298 198 362 c 256,44,45
 198 426 198 426 225.5 475 c 128,-1,46
 253 524 253 524 301.5 552 c 128,-1,47
 350 580 350 580 413 580 c 0,48,49
 493 580 493 580 547 534.5 c 128,-1,50
 601 489 601 489 611 415 c 1,51,-1
 519 415 l 1,52,53
 512 456 512 456 483 479.5 c 128,-1,54
 454 503 454 503 413 503 c 0,55,56
 359 503 359 503 325 464.5 c 128,-1,57
 291 426 291 426 291 362 c 256,58,59
 291 298 291 298 325.5 257.5 c 128,-1,60
 360 217 360 217 415 217 c 0,61,62
 453 217 453 217 481.5 241 c 128,-1,63
 510 265 510 265 519 305 c 1,64,-1
 612 305 l 1,65,66
 600 230 600 230 545.5 185 c 128,-1,67
 491 140 491 140 413 140 c 0,40,41
EndSplineSet
Validated: 1
EndChar

StartChar: registered
Encoding: 174 174 424
Width: 810
Flags: W
LayerCount: 2
Fore
SplineSet
405 -15 m 256,0,1
 327 -15 327 -15 259 14 c 128,-1,2
 191 43 191 43 139.5 94.5 c 128,-1,3
 88 146 88 146 59 214 c 128,-1,4
 30 282 30 282 30 360 c 256,5,6
 30 438 30 438 59 506 c 128,-1,7
 88 574 88 574 139.5 625.5 c 128,-1,8
 191 677 191 677 259 706 c 128,-1,9
 327 735 327 735 405 735 c 256,10,11
 483 735 483 735 551 706 c 128,-1,12
 619 677 619 677 670.5 625.5 c 128,-1,13
 722 574 722 574 751 506 c 128,-1,14
 780 438 780 438 780 360 c 256,15,16
 780 282 780 282 751 214 c 128,-1,17
 722 146 722 146 670.5 94.5 c 128,-1,18
 619 43 619 43 551 14 c 128,-1,19
 483 -15 483 -15 405 -15 c 256,0,1
405 50 m 256,20,21
 469 50 469 50 524.5 74 c 128,-1,22
 580 98 580 98 622.5 141 c 128,-1,23
 665 184 665 184 689 240 c 128,-1,24
 713 296 713 296 713 360 c 256,25,26
 713 424 713 424 689 480 c 128,-1,27
 665 536 665 536 622.5 579 c 128,-1,28
 580 622 580 622 524.5 646 c 128,-1,29
 469 670 469 670 405 670 c 256,30,31
 341 670 341 670 285.5 646 c 128,-1,32
 230 622 230 622 187.5 579 c 128,-1,33
 145 536 145 536 121 480 c 128,-1,34
 97 424 97 424 97 360 c 256,35,36
 97 296 97 296 121 240 c 128,-1,37
 145 184 145 184 187.5 141 c 128,-1,38
 230 98 230 98 285.5 74 c 128,-1,39
 341 50 341 50 405 50 c 256,20,21
240 145 m 1,40,-1
 240 575 l 1,41,-1
 438 575 l 2,42,43
 508 575 508 575 547 543.5 c 128,-1,44
 586 512 586 512 586 456 c 0,45,46
 586 369 586 369 472 345 c 1,47,-1
 472 361 l 1,48,49
 523 363 523 363 551 338 c 128,-1,50
 579 313 579 313 579 267 c 2,51,-1
 579 196 l 2,52,53
 579 186 579 186 580.5 173.5 c 128,-1,54
 582 161 582 161 584 145 c 1,55,-1
 491 145 l 1,56,57
 489 153 489 153 488 165.5 c 128,-1,58
 487 178 487 178 487 196 c 2,59,-1
 487 242 l 2,60,61
 487 283 487 283 469.5 302.5 c 128,-1,62
 452 322 452 322 414 322 c 2,63,-1
 276 322 l 1,64,-1
 276 395 l 1,65,-1
 433 395 l 2,66,67
 462 395 462 395 478 408.5 c 128,-1,68
 494 422 494 422 494 448 c 0,69,70
 494 473 494 473 478.5 486 c 128,-1,71
 463 499 463 499 433 499 c 2,72,-1
 332 499 l 1,73,-1
 332 145 l 1,74,-1
 240 145 l 1,40,-1
EndSplineSet
Validated: 37
EndChar

StartChar: trademark
Encoding: 8482 8482 425
Width: 858
Flags: W
LayerCount: 2
Fore
SplineSet
163 360 m 1,0,-1
 163 702 l 1,1,-1
 266 702 l 1,2,-1
 266 360 l 1,3,-1
 163 360 l 1,0,-1
50 636 m 1,4,-1
 50 720 l 1,5,-1
 379 720 l 1,6,-1
 379 636 l 1,7,-1
 50 636 l 1,4,-1
390 360 m 1,8,-1
 390 720 l 1,9,-1
 542 720 l 1,10,-1
 629 373 l 1,11,-1
 568 373 l 1,12,-1
 654 720 l 1,13,-1
 808 720 l 1,14,-1
 808 360 l 1,15,-1
 707 360 l 1,16,-1
 707 698 l 1,17,-1
 725 698 l 1,18,-1
 647 360 l 1,19,-1
 546 360 l 1,20,-1
 470 696 l 1,21,-1
 487 696 l 1,22,-1
 487 360 l 1,23,-1
 390 360 l 1,8,-1
EndSplineSet
Validated: 5
EndChar

StartChar: degree
Encoding: 176 176 426
Width: 366
Flags: W
LayerCount: 2
Fore
SplineSet
184 449 m 0,0,1
 144 449 144 449 111 468.5 c 128,-1,2
 78 488 78 488 59 521 c 128,-1,3
 40 554 40 554 40 593 c 256,4,5
 40 632 40 632 59 664.5 c 128,-1,6
 78 697 78 697 111 716 c 128,-1,7
 144 735 144 735 184 735 c 0,8,9
 225 735 225 735 257 716 c 128,-1,10
 289 697 289 697 307.5 664.5 c 128,-1,11
 326 632 326 632 326 593 c 256,12,13
 326 554 326 554 307.5 521 c 128,-1,14
 289 488 289 488 257 468.5 c 128,-1,15
 225 449 225 449 184 449 c 0,0,1
184 525 m 0,16,17
 212 525 212 525 230.5 545 c 128,-1,18
 249 565 249 565 249 593 c 0,19,20
 249 620 249 620 230.5 639.5 c 128,-1,21
 212 659 212 659 184 659 c 0,22,23
 155 659 155 659 136 639.5 c 128,-1,24
 117 620 117 620 117 593 c 0,25,26
 117 565 117 565 136 545 c 128,-1,27
 155 525 155 525 184 525 c 0,16,17
EndSplineSet
Validated: 1
EndChar

StartChar: bar
Encoding: 124 124 427
Width: 230
Flags: W
LayerCount: 2
Fore
SplineSet
50 -130 m 1,0,-1
 50 790 l 1,1,-1
 180 790 l 1,2,-1
 180 -130 l 1,3,-1
 50 -130 l 1,0,-1
EndSplineSet
Validated: 1
EndChar

StartChar: ampersand.ss11
Encoding: 38 38 428
Width: 790
Flags: WO
LayerCount: 2
Fore
SplineSet
251 0 m 2,0,1
 184 0 184 0 134.5 24 c 128,-1,2
 85 48 85 48 57.5 92.5 c 128,-1,3
 30 137 30 137 30 196 c 0,4,5
 30 253 30 253 56 296.5 c 128,-1,6
 82 340 82 340 127.5 365 c 128,-1,7
 173 390 173 390 231 390 c 1,8,-1
 246 369 l 1,9,10
 193 369 193 369 151 392 c 128,-1,11
 109 415 109 415 84.5 455.5 c 128,-1,12
 60 496 60 496 60 547 c 0,13,14
 60 634 60 634 131.5 682 c 128,-1,15
 203 730 203 730 331 730 c 0,16,17
 366 730 366 730 394 725.5 c 128,-1,18
 422 721 422 721 461 710 c 1,19,-1
 461 592 l 1,20,21
 431 602 431 602 403 606.5 c 128,-1,22
 375 611 375 611 346 611 c 0,23,24
 280 611 280 611 247 588.5 c 128,-1,25
 214 566 214 566 214 522 c 0,26,27
 214 479 214 479 244 455.5 c 128,-1,28
 274 432 274 432 330 432 c 2,29,-1
 760 432 l 1,30,-1
 760 322 l 1,31,-1
 292 322 l 2,32,33
 242 322 242 322 214 293.5 c 128,-1,34
 186 265 186 265 186 214 c 0,35,36
 186 165 186 165 212 137.5 c 128,-1,37
 238 110 238 110 287 110 c 2,38,-1
 563 110 l 1,39,-1
 563 0 l 1,40,-1
 251 0 l 2,0,1
478 0 m 1,41,-1
 478 524 l 5,42,-1
 632 584 l 5,43,-1
 632 0 l 1,44,-1
 478 0 l 1,41,-1
EndSplineSet
EndChar

StartChar: cent
Encoding: 162 162 429
Width: 562
GlyphClass: 2
Flags: W
AnchorPoint: "Anchor-2" 283 0 basechar 0
AnchorPoint: "Anchor-0" 295 510 basechar 0
LayerCount: 2
Fore
SplineSet
233 482 m 1,0,-1
 233 616 l 1,1,-1
 355 616 l 1,2,-1
 355 482 l 1,3,-1
 233 482 l 1,0,-1
355 20 m 1,4,-1
 355 -109 l 1,5,-1
 233 -109 l 1,6,-1
 233 20 l 1,7,-1
 355 20 l 1,4,-1
291 -10 m 0,8,9
 211 -10 211 -10 150 24 c 128,-1,10
 89 58 89 58 54.5 118 c 128,-1,11
 20 178 20 178 20 255 c 256,12,13
 20 332 20 332 54.5 392 c 128,-1,14
 89 452 89 452 150 486 c 128,-1,15
 211 520 211 520 291 520 c 0,16,17
 358 520 358 520 411.5 495.5 c 128,-1,18
 465 471 465 471 499.5 428 c 128,-1,19
 534 385 534 385 544 327 c 1,20,-1
 399 327 l 1,21,22
 388 364 388 364 359.5 383 c 128,-1,23
 331 402 331 402 293 402 c 0,24,25
 257 402 257 402 230.5 384 c 128,-1,26
 204 366 204 366 190 333 c 128,-1,27
 176 300 176 300 176 255 c 256,28,29
 176 210 176 210 190 177 c 128,-1,30
 204 144 204 144 230.5 126 c 128,-1,31
 257 108 257 108 293 108 c 0,32,33
 331 108 331 108 359.5 127 c 128,-1,34
 388 146 388 146 399 183 c 1,35,-1
 544 183 l 1,36,37
 534 125 534 125 499.5 82 c 128,-1,38
 465 39 465 39 411.5 14.5 c 128,-1,39
 358 -10 358 -10 291 -10 c 0,8,9
EndSplineSet
Validated: 1048581
Substitution2: "'ss12' Style Set 12 in Latin lookup 33 subtable" cent.ss12
Substitution2: "'aalt' Access All Alternates in Latin lookup 0 subtable" cent.ss12
EndChar

StartChar: dollar
Encoding: 36 36 430
Width: 652
GlyphClass: 2
Flags: W
AnchorPoint: "Anchor-2" 346 0 basechar 0
AnchorPoint: "Anchor-0" 336 720 basechar 0
LayerCount: 2
Fore
SplineSet
275 696 m 1,0,-1
 275 830 l 1,1,-1
 397 830 l 1,2,-1
 397 696 l 1,3,-1
 275 696 l 1,0,-1
397 20 m 1,4,-1
 397 -109 l 1,5,-1
 275 -109 l 1,6,-1
 275 20 l 1,7,-1
 397 20 l 1,4,-1
346 -9 m 0,8,9
 206 -9 206 -9 122 53.5 c 128,-1,10
 38 116 38 116 24 230 c 1,11,-1
 172 230 l 1,12,13
 179 172 179 172 228 138.5 c 128,-1,14
 277 105 277 105 353 105 c 0,15,16
 415 105 415 105 448.5 127 c 128,-1,17
 482 149 482 149 482 186 c 0,18,19
 482 221 482 221 462 242.5 c 128,-1,20
 442 264 442 264 393 277 c 2,21,-1
 259 314 l 2,22,23
 156 343 156 343 108.5 393.5 c 128,-1,24
 61 444 61 444 61 520 c 0,25,26
 61 585 61 585 94.5 632.5 c 128,-1,27
 128 680 128 680 189 705.5 c 128,-1,28
 250 731 250 731 332 731 c 0,29,30
 458 731 458 731 533 671.5 c 128,-1,31
 608 612 608 612 618 514 c 1,32,-1
 470 514 l 1,33,34
 460 567 460 567 421.5 592 c 128,-1,35
 383 617 383 617 323 617 c 0,36,37
 271 617 271 617 240 597 c 128,-1,38
 209 577 209 577 209 543 c 0,39,40
 209 517 209 517 226 495.5 c 128,-1,41
 243 474 243 474 297 459 c 2,42,-1
 431 422 l 2,43,44
 537 393 537 393 583.5 342.5 c 128,-1,45
 630 292 630 292 630 215 c 0,46,47
 630 107 630 107 555 49 c 128,-1,48
 480 -9 480 -9 346 -9 c 0,8,9
EndSplineSet
Validated: 1048581
Substitution2: "'ss12' Style Set 12 in Latin lookup 33 subtable" dollar.ss12
Substitution2: "'aalt' Access All Alternates in Latin lookup 0 subtable" dollar.ss12
EndChar

StartChar: Euro
Encoding: 8364 8364 431
Width: 722
Flags: W
LayerCount: 2
Fore
SplineSet
405 -10 m 0,0,1
 331 -10 331 -10 269.5 17.5 c 128,-1,2
 208 45 208 45 163.5 95 c 128,-1,3
 119 145 119 145 94.5 213.5 c 128,-1,4
 70 282 70 282 70 363 c 256,5,6
 70 444 70 444 94 511 c 128,-1,7
 118 578 118 578 162.5 627.5 c 128,-1,8
 207 677 207 677 268.5 703.5 c 128,-1,9
 330 730 330 730 405 730 c 0,10,11
 481 730 481 730 541 704.5 c 128,-1,12
 601 679 601 679 641.5 632.5 c 128,-1,13
 682 586 682 586 698 522 c 1,14,-1
 540 522 l 1,15,16
 526 566 526 566 492 588 c 128,-1,17
 458 610 458 610 403 610 c 0,18,19
 350 610 350 610 310 580 c 128,-1,20
 270 550 270 550 248 495 c 128,-1,21
 226 440 226 440 226 364 c 0,22,23
 226 287 226 287 248.5 229.5 c 128,-1,24
 271 172 271 172 311.5 141 c 128,-1,25
 352 110 352 110 405 110 c 256,26,27
 458 110 458 110 490.5 131.5 c 128,-1,28
 523 153 523 153 538 197 c 1,29,-1
 698 197 l 1,30,31
 681 133 681 133 640 86.5 c 128,-1,32
 599 40 599 40 539.5 15 c 128,-1,33
 480 -10 480 -10 405 -10 c 0,0,1
0 382 m 1,34,-1
 16 480 l 1,35,-1
 497 480 l 1,36,-1
 481 382 l 1,37,-1
 0 382 l 1,34,-1
0 242 m 1,38,-1
 16 340 l 1,39,-1
 473 340 l 1,40,-1
 457 242 l 1,41,-1
 0 242 l 1,38,-1
EndSplineSet
Validated: 5
EndChar

StartChar: sterling
Encoding: 163 163 432
Width: 606
Flags: W
LayerCount: 2
Fore
SplineSet
37 0 m 1,0,-1
 37 120 l 1,1,2
 80 171 80 171 96.5 209 c 128,-1,3
 113 247 113 247 113 278 c 256,4,5
 113 309 113 309 101.5 335 c 128,-1,6
 90 361 90 361 75 387.5 c 128,-1,7
 60 414 60 414 48.5 444 c 128,-1,8
 37 474 37 474 37 513 c 0,9,10
 37 577 37 577 68.5 625.5 c 128,-1,11
 100 674 100 674 159 702 c 128,-1,12
 218 730 218 730 298 730 c 0,13,14
 380 730 380 730 440.5 701.5 c 128,-1,15
 501 673 501 673 536.5 622.5 c 128,-1,16
 572 572 572 572 578 506 c 1,17,-1
 432 506 l 1,18,19
 425 559 425 559 395 585.5 c 128,-1,20
 365 612 365 612 306 612 c 0,21,22
 249 612 249 612 221 585 c 128,-1,23
 193 558 193 558 193 514 c 0,24,25
 193 486 193 486 203.5 460 c 128,-1,26
 214 434 214 434 227.5 407.5 c 128,-1,27
 241 381 241 381 251.5 352 c 128,-1,28
 262 323 262 323 262 289 c 0,29,30
 262 249 262 249 241.5 200 c 128,-1,31
 221 151 221 151 166 89 c 1,32,-1
 148 128 l 1,33,-1
 551 128 l 1,34,-1
 551 0 l 1,35,-1
 37 0 l 1,0,-1
10 277 m 1,36,-1
 10 405 l 1,37,-1
 474 405 l 1,38,-1
 474 277 l 1,39,-1
 10 277 l 1,36,-1
EndSplineSet
Validated: 5
EndChar

StartChar: yen
Encoding: 165 165 433
Width: 652
Flags: W
LayerCount: 2
Fore
SplineSet
249 0 m 1,0,-1
 249 291 l 1,1,-1
 11 720 l 1,2,-1
 196 720 l 1,3,-1
 392 309 l 1,4,-1
 277 309 l 1,5,-1
 472 720 l 1,6,-1
 641 720 l 1,7,-1
 403 291 l 1,8,-1
 403 0 l 1,9,-1
 249 0 l 1,0,-1
42 242 m 1,10,-1
 42 340 l 1,11,-1
 611 340 l 1,12,-1
 611 242 l 1,13,-1
 42 242 l 1,10,-1
287 382 m 1,14,-1
 42 382 l 1,15,-1
 42 480 l 1,16,-1
 236 480 l 1,17,-1
 287 382 l 1,14,-1
445 480 m 1,18,-1
 611 480 l 1,19,-1
 611 382 l 1,20,-1
 395 382 l 1,21,-1
 445 480 l 1,18,-1
EndSplineSet
Validated: 5
EndChar

StartChar: cent.ss12
Encoding: 65676 -1 434
Width: 562
Flags: W
LayerCount: 2
Fore
SplineSet
291 -10 m 0,0,1
 211 -10 211 -10 150 24 c 128,-1,2
 89 58 89 58 54.5 118 c 128,-1,3
 20 178 20 178 20 255 c 256,4,5
 20 332 20 332 54.5 392 c 128,-1,6
 89 452 89 452 150 486 c 128,-1,7
 211 520 211 520 291 520 c 0,8,9
 358 520 358 520 411.5 495.5 c 128,-1,10
 465 471 465 471 499.5 428 c 128,-1,11
 534 385 534 385 544 327 c 1,12,-1
 409 327 l 1,13,14
 398 371 398 371 368 391.5 c 128,-1,15
 338 412 338 412 293 412 c 0,16,17
 231 412 231 412 198.5 371 c 128,-1,18
 166 330 166 330 166 255 c 256,19,20
 166 180 166 180 198.5 139 c 128,-1,21
 231 98 231 98 293 98 c 0,22,23
 338 98 338 98 368 118.5 c 128,-1,24
 398 139 398 139 409 183 c 1,25,-1
 544 183 l 1,26,27
 534 125 534 125 499.5 82 c 128,-1,28
 465 39 465 39 411.5 14.5 c 128,-1,29
 358 -10 358 -10 291 -10 c 0,0,1
233 -109 m 1,30,-1
 233 42 l 1,31,-1
 238 72 l 1,32,-1
 238 445 l 1,33,-1
 233 479 l 1,34,-1
 233 616 l 1,35,-1
 355 616 l 1,36,-1
 355 475 l 1,37,-1
 350 449 l 1,38,-1
 350 75 l 1,39,-1
 355 47 l 1,40,-1
 355 -109 l 1,41,-1
 233 -109 l 1,30,-1
EndSplineSet
Validated: 5
EndChar

StartChar: dollar.ss12
Encoding: 65677 -1 435
Width: 652
Flags: W
LayerCount: 2
Fore
SplineSet
346 -9 m 0,0,1
 206 -9 206 -9 122 53.5 c 128,-1,2
 38 116 38 116 24 230 c 1,3,-1
 172 230 l 1,4,5
 179 172 179 172 228 138.5 c 128,-1,6
 277 105 277 105 353 105 c 0,7,8
 415 105 415 105 448.5 127 c 128,-1,9
 482 149 482 149 482 186 c 0,10,11
 482 221 482 221 462 242.5 c 128,-1,12
 442 264 442 264 393 277 c 2,13,-1
 259 314 l 2,14,15
 156 343 156 343 108.5 393.5 c 128,-1,16
 61 444 61 444 61 520 c 0,17,18
 61 585 61 585 94.5 632.5 c 128,-1,19
 128 680 128 680 189 705.5 c 128,-1,20
 250 731 250 731 332 731 c 0,21,22
 458 731 458 731 533 671.5 c 128,-1,23
 608 612 608 612 618 514 c 1,24,-1
 470 514 l 1,25,26
 460 567 460 567 421.5 592 c 128,-1,27
 383 617 383 617 323 617 c 0,28,29
 271 617 271 617 240 597 c 128,-1,30
 209 577 209 577 209 543 c 0,31,32
 209 517 209 517 226 495.5 c 128,-1,33
 243 474 243 474 297 459 c 2,34,-1
 431 422 l 2,35,36
 537 393 537 393 583.5 342.5 c 128,-1,37
 630 292 630 292 630 215 c 0,38,39
 630 107 630 107 555 49 c 128,-1,40
 480 -9 480 -9 346 -9 c 0,0,1
275 -109 m 1,41,-1
 275 42 l 1,42,-1
 280 72 l 1,43,-1
 280 659 l 1,44,-1
 275 693 l 1,45,-1
 275 830 l 1,46,-1
 397 830 l 1,47,-1
 397 689 l 1,48,-1
 392 663 l 1,49,-1
 392 75 l 1,50,-1
 397 47 l 1,51,-1
 397 -109 l 1,52,-1
 275 -109 l 1,41,-1
EndSplineSet
Validated: 5
EndChar

StartChar: plus
Encoding: 43 43 436
Width: 551
Flags: W
LayerCount: 2
Fore
SplineSet
220 133 m 1,0,-1
 220 610 l 1,1,-1
 332 610 l 1,2,-1
 332 133 l 1,3,-1
 220 133 l 1,0,-1
50 317 m 1,4,-1
 50 425 l 1,5,-1
 501 425 l 1,6,-1
 501 317 l 1,7,-1
 50 317 l 1,4,-1
EndSplineSet
Validated: 5
Substitution2: "'tnum' Tabular Numbers in Latin lookup 19 subtable" plus.tf
Substitution2: "'aalt' Access All Alternates in Latin lookup 0 subtable" plus.tf
EndChar

StartChar: minus
Encoding: 8722 8722 437
Width: 551
Flags: W
LayerCount: 2
Fore
SplineSet
50 317 m 1,0,-1
 50 425 l 1,1,-1
 501 425 l 1,2,-1
 501 317 l 1,3,-1
 50 317 l 1,0,-1
EndSplineSet
Validated: 1
Substitution2: "'tnum' Tabular Numbers in Latin lookup 19 subtable" minus.tf
Substitution2: "'aalt' Access All Alternates in Latin lookup 0 subtable" minus.tf
EndChar

StartChar: multiply
Encoding: 215 215 438
Width: 551
Flags: W
LayerCount: 2
Fore
SplineSet
425 144 m 1,0,-1
 48 521 l 1,1,-1
 127 600 l 1,2,-1
 504 223 l 1,3,-1
 425 144 l 1,0,-1
127 144 m 1,4,-1
 48 223 l 1,5,-1
 425 600 l 1,6,-1
 504 521 l 1,7,-1
 127 144 l 1,4,-1
EndSplineSet
Validated: 5
Substitution2: "'tnum' Tabular Numbers in Latin lookup 19 subtable" multiply.tf
Substitution2: "'aalt' Access All Alternates in Latin lookup 0 subtable" multiply.tf
EndChar

StartChar: divide
Encoding: 247 247 439
Width: 551
Flags: W
LayerCount: 2
Fore
SplineSet
50 317 m 1,0,-1
 50 425 l 1,1,-1
 501 425 l 1,2,-1
 501 317 l 1,3,-1
 50 317 l 1,0,-1
276 478 m 0,4,5
 244 478 244 478 222.5 498.5 c 128,-1,6
 201 519 201 519 201 553 c 0,7,8
 201 585 201 585 222.5 606 c 128,-1,9
 244 627 244 627 276 627 c 0,10,11
 305 627 305 627 327.5 606 c 128,-1,12
 350 585 350 585 350 553 c 0,13,14
 350 519 350 519 327.5 498.5 c 128,-1,15
 305 478 305 478 276 478 c 0,4,5
276 116 m 0,16,17
 244 116 244 116 222.5 136.5 c 128,-1,18
 201 157 201 157 201 191 c 0,19,20
 201 223 201 223 222.5 244 c 128,-1,21
 244 265 244 265 276 265 c 0,22,23
 305 265 305 265 327.5 244 c 128,-1,24
 350 223 350 223 350 191 c 0,25,26
 350 157 350 157 327.5 136.5 c 128,-1,27
 305 116 305 116 276 116 c 0,16,17
EndSplineSet
Validated: 1
Substitution2: "'tnum' Tabular Numbers in Latin lookup 19 subtable" divide.tf
Substitution2: "'aalt' Access All Alternates in Latin lookup 0 subtable" divide.tf
EndChar

StartChar: equal
Encoding: 61 61 440
Width: 551
Flags: W
LayerCount: 2
Fore
SplineSet
50 417 m 1,0,-1
 50 525 l 1,1,-1
 501 525 l 1,2,-1
 501 417 l 1,3,-1
 50 417 l 1,0,-1
50 217 m 1,4,-1
 50 325 l 1,5,-1
 501 325 l 1,6,-1
 501 217 l 1,7,-1
 50 217 l 1,4,-1
EndSplineSet
Validated: 1
Substitution2: "'tnum' Tabular Numbers in Latin lookup 19 subtable" equal.tf
Substitution2: "'aalt' Access All Alternates in Latin lookup 0 subtable" equal.tf
EndChar

StartChar: greater
Encoding: 62 62 441
Width: 551
Flags: W
LayerCount: 2
Fore
SplineSet
50 162 m 1,0,-1
 50 277 l 1,1,-1
 383 382 l 1,2,-1
 383 360 l 1,3,-1
 50 465 l 1,4,-1
 50 580 l 1,5,-1
 501 430 l 1,6,-1
 501 312 l 1,7,-1
 50 162 l 1,0,-1
EndSplineSet
Validated: 5
Substitution2: "'tnum' Tabular Numbers in Latin lookup 19 subtable" greater.tf
Substitution2: "'aalt' Access All Alternates in Latin lookup 0 subtable" greater.tf
EndChar

StartChar: less
Encoding: 60 60 442
Width: 551
Flags: W
LayerCount: 2
Fore
SplineSet
501 580 m 1,0,-1
 501 465 l 1,1,-1
 168 360 l 1,2,-1
 168 382 l 1,3,-1
 501 277 l 1,4,-1
 501 162 l 1,5,-1
 50 312 l 1,6,-1
 50 430 l 1,7,-1
 501 580 l 1,0,-1
EndSplineSet
Validated: 5
Substitution2: "'tnum' Tabular Numbers in Latin lookup 19 subtable" less.tf
Substitution2: "'aalt' Access All Alternates in Latin lookup 0 subtable" less.tf
EndChar

StartChar: asciitilde
Encoding: 126 126 443
Width: 551
Flags: W
LayerCount: 2
Fore
SplineSet
394 267 m 0,0,1
 438 267 438 267 474 285.5 c 128,-1,2
 510 304 510 304 533 342 c 128,-1,3
 556 380 556 380 560 438 c 1,4,-1
 462 438 l 1,5,6
 455 412 455 412 436 398.5 c 128,-1,7
 417 385 417 385 388 385 c 0,8,9
 363 385 363 385 339 394.5 c 128,-1,10
 315 404 315 404 288.5 416.5 c 128,-1,11
 262 429 262 429 230 438.5 c 128,-1,12
 198 448 198 448 157 448 c 0,13,14
 114 448 114 448 78 429.5 c 128,-1,15
 42 411 42 411 19 373.5 c 128,-1,16
 -4 336 -4 336 -8 277 c 1,17,-1
 90 277 l 1,18,19
 98 303 98 303 116 316.5 c 128,-1,20
 134 330 134 330 164 330 c 0,21,22
 190 330 190 330 214 320.5 c 128,-1,23
 238 311 238 311 263.5 298.5 c 128,-1,24
 289 286 289 286 320.5 276.5 c 128,-1,25
 352 267 352 267 394 267 c 0,0,1
EndSplineSet
Validated: 9
EndChar

StartChar: asciicircum
Encoding: 94 94 444
Width: 551
Flags: W
LayerCount: 2
Fore
SplineSet
173 491 m 1,0,-1
 61 491 l 1,1,-1
 214 740 l 1,2,-1
 337 740 l 1,3,-1
 490 491 l 1,4,-1
 378 491 l 1,5,-1
 231 699 l 1,6,-1
 320 699 l 1,7,-1
 173 491 l 1,0,-1
EndSplineSet
Validated: 5
EndChar

StartChar: percent
Encoding: 37 37 445
Width: 786
Flags: W
LayerCount: 2
Fore
SplineSet
75 0 m 1,0,-1
 601 720 l 1,1,-1
 716 720 l 1,2,-1
 191 0 l 1,3,-1
 75 0 l 1,0,-1
587 -10 m 0,4,5
 545 -10 545 -10 508 10 c 128,-1,6
 471 30 471 30 448 71 c 128,-1,7
 425 112 425 112 425 175 c 256,8,9
 425 238 425 238 447.5 278.5 c 128,-1,10
 470 319 470 319 507 339 c 128,-1,11
 544 359 544 359 587 359 c 0,12,13
 632 359 632 359 669.5 339 c 128,-1,14
 707 319 707 319 729 278.5 c 128,-1,15
 751 238 751 238 751 175 c 256,16,17
 751 112 751 112 728 71 c 128,-1,18
 705 30 705 30 667.5 10 c 128,-1,19
 630 -10 630 -10 587 -10 c 0,4,5
587 76 m 0,20,21
 618 76 618 76 639 101.5 c 128,-1,22
 660 127 660 127 660 176 c 0,23,24
 660 223 660 223 639.5 248 c 128,-1,25
 619 273 619 273 587 273 c 256,26,27
 555 273 555 273 535.5 248 c 128,-1,28
 516 223 516 223 516 176 c 0,29,30
 516 127 516 127 535.5 101.5 c 128,-1,31
 555 76 555 76 587 76 c 0,20,21
197 361 m 256,32,33
 154 361 154 361 117 381 c 128,-1,34
 80 401 80 401 57.5 442 c 128,-1,35
 35 483 35 483 35 546 c 256,36,37
 35 609 35 609 57.5 649.5 c 128,-1,38
 80 690 80 690 117 710 c 128,-1,39
 154 730 154 730 197 730 c 0,40,41
 242 730 242 730 279 710 c 128,-1,42
 316 690 316 690 338 649.5 c 128,-1,43
 360 609 360 609 360 546 c 256,44,45
 360 483 360 483 337 442 c 128,-1,46
 314 401 314 401 277 381 c 128,-1,47
 240 361 240 361 197 361 c 256,32,33
197 447 m 0,48,49
 228 447 228 447 249 472.5 c 128,-1,50
 270 498 270 498 270 547 c 0,51,52
 270 594 270 594 249.5 619 c 128,-1,53
 229 644 229 644 197 644 c 256,54,55
 165 644 165 644 145.5 619.5 c 128,-1,56
 126 595 126 595 126 547 c 0,57,58
 126 498 126 498 145.5 472.5 c 128,-1,59
 165 447 165 447 197 447 c 0,48,49
EndSplineSet
Validated: 1
Substitution2: "'tnum' Tabular Numbers in Latin lookup 19 subtable" percent.tf
Substitution2: "'aalt' Access All Alternates in Latin lookup 0 subtable" percent.tf
EndChar

StartChar: perthousand
Encoding: 8240 8240 446
Width: 824
Flags: W
LayerCount: 2
Fore
SplineSet
171 361 m 0,0,1
 134 361 134 361 101.5 381 c 128,-1,2
 69 401 69 401 49.5 442 c 128,-1,3
 30 483 30 483 30 546 c 256,4,5
 30 609 30 609 49.5 649.5 c 128,-1,6
 69 690 69 690 101 710 c 128,-1,7
 133 730 133 730 171 730 c 0,8,9
 230 730 230 730 271.5 685 c 128,-1,10
 313 640 313 640 313 546 c 0,11,12
 313 483 313 483 293 442 c 128,-1,13
 273 401 273 401 241 381 c 128,-1,14
 209 361 209 361 171 361 c 0,0,1
171 439 m 0,15,16
 197 439 197 439 215 466.5 c 128,-1,17
 233 494 233 494 233 547 c 0,18,19
 233 598 233 598 215.5 625 c 128,-1,20
 198 652 198 652 171 652 c 0,21,22
 143 652 143 652 126.5 625.5 c 128,-1,23
 110 599 110 599 110 547 c 0,24,25
 110 494 110 494 126.5 466.5 c 128,-1,26
 143 439 143 439 171 439 c 0,15,16
67 0 m 1,27,-1
 510 720 l 1,28,-1
 612 720 l 1,29,-1
 170 0 l 1,30,-1
 67 0 l 1,27,-1
496 -10 m 0,31,32
 464 -10 464 -10 433.5 11 c 128,-1,33
 403 32 403 32 384 73 c 128,-1,34
 365 114 365 114 365 175 c 256,35,36
 365 236 365 236 384 276.5 c 128,-1,37
 403 317 403 317 433 338 c 128,-1,38
 463 359 463 359 496 359 c 0,39,40
 547 359 547 359 577.5 316 c 128,-1,41
 608 273 608 273 608 175 c 0,42,43
 608 76 608 76 576.5 33 c 128,-1,44
 545 -10 545 -10 496 -10 c 0,31,32
496 68 m 0,45,46
 518 68 518 68 533 95.5 c 128,-1,47
 548 123 548 123 548 176 c 0,48,49
 548 227 548 227 533.5 254 c 128,-1,50
 519 281 519 281 496 281 c 256,51,52
 473 281 473 281 459 254.5 c 128,-1,53
 445 228 445 228 445 176 c 0,54,55
 445 123 445 123 459 95.5 c 128,-1,56
 473 68 473 68 496 68 c 0,45,46
662 68 m 0,57,58
 684 68 684 68 699 95.5 c 128,-1,59
 714 123 714 123 714 176 c 0,60,61
 714 227 714 227 699.5 254 c 128,-1,62
 685 281 685 281 662 281 c 256,63,64
 639 281 639 281 625 254.5 c 128,-1,65
 611 228 611 228 611 176 c 0,66,67
 611 123 611 123 625 95.5 c 128,-1,68
 639 68 639 68 662 68 c 0,57,58
662 -10 m 0,69,70
 613 -10 613 -10 582 33 c 128,-1,71
 551 76 551 76 551 175 c 0,72,73
 551 273 551 273 582 316 c 128,-1,74
 613 359 613 359 662 359 c 0,75,76
 696 359 696 359 726 338 c 128,-1,77
 756 317 756 317 775 276.5 c 128,-1,78
 794 236 794 236 794 175 c 256,79,80
 794 114 794 114 774.5 73 c 128,-1,81
 755 32 755 32 725 11 c 128,-1,82
 695 -10 695 -10 662 -10 c 0,69,70
EndSplineSet
Validated: 5
Substitution2: "'tnum' Tabular Numbers in Latin lookup 19 subtable" perthousand.tf
Substitution2: "'aalt' Access All Alternates in Latin lookup 0 subtable" perthousand.tf
EndChar

StartChar: plus.tf
Encoding: 65678 -1 447
Width: 600
Flags: W
LayerCount: 2
Fore
SplineSet
243 133 m 1,0,-1
 243 610 l 1,1,-1
 358 610 l 1,2,-1
 358 133 l 1,3,-1
 243 133 l 1,0,-1
62 317 m 1,4,-1
 62 425 l 1,5,-1
 538 425 l 1,6,-1
 538 317 l 1,7,-1
 62 317 l 1,4,-1
EndSplineSet
Validated: 5
Substitution2: "'pnum' Proportional Numbers in Latin lookup 18 subtable" plus
Substitution2: "'aalt' Access All Alternates in Latin lookup 0 subtable" plus
EndChar

StartChar: minus.tf
Encoding: 65679 -1 448
Width: 600
Flags: W
LayerCount: 2
Fore
SplineSet
62 317 m 1,0,-1
 62 425 l 1,1,-1
 538 425 l 1,2,-1
 538 317 l 1,3,-1
 62 317 l 1,0,-1
EndSplineSet
Validated: 1
Substitution2: "'pnum' Proportional Numbers in Latin lookup 18 subtable" minus
Substitution2: "'aalt' Access All Alternates in Latin lookup 0 subtable" minus
EndChar

StartChar: multiply.tf
Encoding: 65680 -1 449
Width: 600
Flags: W
LayerCount: 2
Fore
SplineSet
459 144 m 1,0,-1
 61 521 l 1,1,-1
 141 600 l 1,2,-1
 539 223 l 1,3,-1
 459 144 l 1,0,-1
141 144 m 1,4,-1
 61 223 l 1,5,-1
 459 600 l 1,6,-1
 539 521 l 1,7,-1
 141 144 l 1,4,-1
EndSplineSet
Validated: 5
Substitution2: "'pnum' Proportional Numbers in Latin lookup 18 subtable" multiply
Substitution2: "'aalt' Access All Alternates in Latin lookup 0 subtable" multiply
EndChar

StartChar: divide.tf
Encoding: 65681 -1 450
Width: 600
Flags: W
LayerCount: 2
Fore
SplineSet
62 317 m 1,0,-1
 62 425 l 1,1,-1
 538 425 l 1,2,-1
 538 317 l 1,3,-1
 62 317 l 1,0,-1
301 478 m 0,4,5
 267 478 267 478 245 498.5 c 128,-1,6
 223 519 223 519 223 553 c 0,7,8
 223 585 223 585 245 606 c 128,-1,9
 267 627 267 627 301 627 c 0,10,11
 331 627 331 627 354 606 c 128,-1,12
 377 585 377 585 377 553 c 0,13,14
 377 519 377 519 354 498.5 c 128,-1,15
 331 478 331 478 301 478 c 0,4,5
301 116 m 0,16,17
 267 116 267 116 245 136.5 c 128,-1,18
 223 157 223 157 223 191 c 0,19,20
 223 223 223 223 245 244 c 128,-1,21
 267 265 267 265 301 265 c 0,22,23
 331 265 331 265 354 244 c 128,-1,24
 377 223 377 223 377 191 c 0,25,26
 377 157 377 157 354 136.5 c 128,-1,27
 331 116 331 116 301 116 c 0,16,17
EndSplineSet
Validated: 1
Substitution2: "'pnum' Proportional Numbers in Latin lookup 18 subtable" divide
Substitution2: "'aalt' Access All Alternates in Latin lookup 0 subtable" divide
EndChar

StartChar: equal.tf
Encoding: 65682 -1 451
Width: 600
Flags: W
LayerCount: 2
Fore
SplineSet
62 417 m 1,0,-1
 62 525 l 1,1,-1
 538 525 l 1,2,-1
 538 417 l 1,3,-1
 62 417 l 1,0,-1
62 217 m 1,4,-1
 62 325 l 1,5,-1
 538 325 l 1,6,-1
 538 217 l 1,7,-1
 62 217 l 1,4,-1
EndSplineSet
Validated: 1
Substitution2: "'pnum' Proportional Numbers in Latin lookup 18 subtable" equal
Substitution2: "'aalt' Access All Alternates in Latin lookup 0 subtable" equal
EndChar

StartChar: greater.tf
Encoding: 65683 -1 452
Width: 600
Flags: W
LayerCount: 2
Fore
SplineSet
58 162 m 1,0,-1
 58 277 l 1,1,-1
 432 382 l 1,2,-1
 432 360 l 1,3,-1
 58 465 l 1,4,-1
 58 580 l 1,5,-1
 534 430 l 1,6,-1
 534 312 l 1,7,-1
 58 162 l 1,0,-1
EndSplineSet
Validated: 5
Substitution2: "'pnum' Proportional Numbers in Latin lookup 18 subtable" greater
Substitution2: "'aalt' Access All Alternates in Latin lookup 0 subtable" greater
EndChar

StartChar: less.tf
Encoding: 65684 -1 453
Width: 600
Flags: W
LayerCount: 2
Fore
SplineSet
501 580 m 1,0,-1
 501 465 l 1,1,-1
 168 360 l 1,2,-1
 168 382 l 1,3,-1
 501 277 l 1,4,-1
 501 162 l 1,5,-1
 50 312 l 1,6,-1
 50 430 l 1,7,-1
 501 580 l 1,0,-1
EndSplineSet
Validated: 5
Substitution2: "'pnum' Proportional Numbers in Latin lookup 18 subtable" less
Substitution2: "'aalt' Access All Alternates in Latin lookup 0 subtable" less
EndChar

StartChar: percent.tf
Encoding: 65685 -1 454
Width: 600
Flags: W
LayerCount: 2
Fore
SplineSet
20 0 m 1,0,-1
 485 720 l 1,1,-1
 582 720 l 1,2,-1
 117 0 l 1,3,-1
 20 0 l 1,0,-1
445 -10 m 0,4,5
 409 -10 409 -10 376.5 10 c 128,-1,6
 344 30 344 30 323.5 71.5 c 128,-1,7
 303 113 303 113 303 175 c 0,8,9
 303 238 303 238 323.5 278.5 c 128,-1,10
 344 319 344 319 376.5 339 c 128,-1,11
 409 359 409 359 445 359 c 0,12,13
 483 359 483 359 515.5 339 c 128,-1,14
 548 319 548 319 568 278.5 c 128,-1,15
 588 238 588 238 588 175 c 0,16,17
 588 113 588 113 567.5 71.5 c 128,-1,18
 547 30 547 30 514.5 10 c 128,-1,19
 482 -10 482 -10 445 -10 c 0,4,5
445 65 m 0,20,21
 463 65 463 65 478.5 88.5 c 128,-1,22
 494 112 494 112 494 176 c 0,23,24
 494 238 494 238 479.5 261 c 128,-1,25
 465 284 465 284 446 284 c 0,26,27
 426 284 426 284 411.5 261.5 c 128,-1,28
 397 239 397 239 397 176 c 0,29,30
 397 112 397 112 411.5 88.5 c 128,-1,31
 426 65 426 65 445 65 c 0,20,21
154 361 m 256,32,33
 117 361 117 361 85 381 c 128,-1,34
 53 401 53 401 32.5 442.5 c 128,-1,35
 12 484 12 484 12 546 c 0,36,37
 12 609 12 609 32.5 649.5 c 128,-1,38
 53 690 53 690 85 710 c 128,-1,39
 117 730 117 730 154 730 c 0,40,41
 192 730 192 730 224.5 710 c 128,-1,42
 257 690 257 690 277 649.5 c 128,-1,43
 297 609 297 609 297 546 c 0,44,45
 297 484 297 484 276.5 442.5 c 128,-1,46
 256 401 256 401 223.5 381 c 128,-1,47
 191 361 191 361 154 361 c 256,32,33
154 436 m 0,48,49
 172 436 172 436 187.5 459.5 c 128,-1,50
 203 483 203 483 203 547 c 0,51,52
 203 609 203 609 188.5 632 c 128,-1,53
 174 655 174 655 155 655 c 0,54,55
 135 655 135 655 120.5 632.5 c 128,-1,56
 106 610 106 610 106 547 c 0,57,58
 106 483 106 483 120.5 459.5 c 128,-1,59
 135 436 135 436 154 436 c 0,48,49
EndSplineSet
Validated: 1
Substitution2: "'pnum' Proportional Numbers in Latin lookup 18 subtable" percent
Substitution2: "'aalt' Access All Alternates in Latin lookup 0 subtable" percent
EndChar

StartChar: perthousand.tf
Encoding: 65686 -1 455
Width: 600
Flags: W
LayerCount: 2
Fore
SplineSet
58 277 m 1,0,-1
 36 348 l 1,1,-1
 530 498 l 1,2,-1
 552 427 l 1,3,-1
 58 277 l 1,0,-1
260 -10 m 256,4,5
 207 -10 207 -10 173.5 31.5 c 128,-1,6
 140 73 140 73 140 142 c 0,7,8
 140 210 140 210 173 251.5 c 128,-1,9
 206 293 206 293 260 293 c 256,10,11
 314 293 314 293 347.5 252 c 128,-1,12
 381 211 381 211 381 142 c 256,13,14
 381 73 381 73 347 31.5 c 128,-1,15
 313 -10 313 -10 260 -10 c 256,4,5
260 55 m 0,16,17
 279 55 279 55 290.5 77.5 c 128,-1,18
 302 100 302 100 302 143 c 0,19,20
 302 184 302 184 291 206 c 128,-1,21
 280 228 280 228 260 228 c 256,22,23
 240 228 240 228 229.5 206 c 128,-1,24
 219 184 219 184 219 143 c 0,25,26
 219 101 219 101 229.5 78 c 128,-1,27
 240 55 240 55 260 55 c 0,16,17
449 -10 m 256,28,29
 396 -10 396 -10 362.5 31.5 c 128,-1,30
 329 73 329 73 329 142 c 0,31,32
 329 210 329 210 362 251.5 c 128,-1,33
 395 293 395 293 449 293 c 256,34,35
 503 293 503 293 536.5 252 c 128,-1,36
 570 211 570 211 570 142 c 256,37,38
 570 73 570 73 536 31.5 c 128,-1,39
 502 -10 502 -10 449 -10 c 256,28,29
449 55 m 0,40,41
 468 55 468 55 479.5 77.5 c 128,-1,42
 491 100 491 100 491 143 c 0,43,44
 491 184 491 184 480 206 c 128,-1,45
 469 228 469 228 449 228 c 256,46,47
 429 228 429 228 418.5 206 c 128,-1,48
 408 184 408 184 408 143 c 0,49,50
 408 101 408 101 418.5 78 c 128,-1,51
 429 55 429 55 449 55 c 0,40,41
150 427 m 256,52,53
 97 427 97 427 63.5 468.5 c 128,-1,54
 30 510 30 510 30 579 c 0,55,56
 30 647 30 647 63 688.5 c 128,-1,57
 96 730 96 730 150 730 c 256,58,59
 204 730 204 730 237.5 689 c 128,-1,60
 271 648 271 648 271 579 c 256,61,62
 271 510 271 510 237 468.5 c 128,-1,63
 203 427 203 427 150 427 c 256,52,53
150 492 m 0,64,65
 169 492 169 492 180.5 514.5 c 128,-1,66
 192 537 192 537 192 580 c 0,67,68
 192 621 192 621 181 643 c 128,-1,69
 170 665 170 665 150 665 c 256,70,71
 130 665 130 665 119.5 643 c 128,-1,72
 109 621 109 621 109 580 c 0,73,74
 109 538 109 538 119.5 515 c 128,-1,75
 130 492 130 492 150 492 c 0,64,65
EndSplineSet
Validated: 5
Substitution2: "'pnum' Proportional Numbers in Latin lookup 18 subtable" perthousand
Substitution2: "'aalt' Access All Alternates in Latin lookup 0 subtable" perthousand
EndChar

StartChar: arrowup
Encoding: 8593 8593 456
Width: 820
Flags: W
LayerCount: 2
Fore
SplineSet
340 0 m 1,0,-1
 340 644 l 1,1,-1
 402 553 l 1,2,-1
 60 210 l 1,3,-1
 60 401 l 1,4,-1
 410 750 l 1,5,-1
 760 401 l 1,6,-1
 760 210 l 1,7,-1
 418 553 l 1,8,-1
 480 644 l 1,9,-1
 480 0 l 1,10,-1
 340 0 l 1,0,-1
EndSplineSet
Validated: 5
EndChar

StartChar: uni2197
Encoding: 8599 8599 457
Width: 750
Flags: W
LayerCount: 2
Fore
SplineSet
109 190 m 1,0,-1
 565 645 l 1,1,-1
 544 537 l 1,2,-1
 60 536 l 1,3,-1
 195 671 l 1,4,-1
 689 670 l 1,5,-1
 690 176 l 1,6,-1
 555 41 l 1,7,-1
 556 525 l 1,8,-1
 664 546 l 1,9,-1
 208 91 l 1,10,-1
 109 190 l 1,0,-1
EndSplineSet
Validated: 5
EndChar

StartChar: arrowright
Encoding: 8594 8594 458
Width: 870
Flags: W
LayerCount: 2
Fore
SplineSet
60 430 m 1,0,-1
 704 430 l 1,1,-1
 613 368 l 1,2,-1
 270 710 l 1,3,-1
 461 710 l 1,4,-1
 810 360 l 1,5,-1
 461 10 l 1,6,-1
 270 10 l 1,7,-1
 613 352 l 1,8,-1
 704 290 l 1,9,-1
 60 290 l 1,10,-1
 60 430 l 1,0,-1
EndSplineSet
Validated: 5
EndChar

StartChar: uni2198
Encoding: 8600 8600 459
Width: 750
Flags: W
LayerCount: 2
Fore
SplineSet
209 626 m 1,0,-1
 664 170 l 1,1,-1
 556 191 l 1,2,-1
 555 675 l 1,3,-1
 690 540 l 1,4,-1
 689 46 l 1,5,-1
 195 45 l 1,6,-1
 60 180 l 1,7,-1
 544 179 l 1,8,-1
 565 71 l 1,9,-1
 110 527 l 1,10,-1
 209 626 l 1,0,-1
EndSplineSet
Validated: 5
EndChar

StartChar: arrowdown
Encoding: 8595 8595 460
Width: 820
Flags: W
LayerCount: 2
Fore
SplineSet
340 720 m 1,0,-1
 480 720 l 1,1,-1
 480 76 l 1,2,-1
 418 167 l 1,3,-1
 760 510 l 1,4,-1
 760 319 l 1,5,-1
 410 -30 l 1,6,-1
 60 319 l 1,7,-1
 60 510 l 1,8,-1
 402 167 l 1,9,-1
 340 76 l 1,10,-1
 340 720 l 1,0,-1
EndSplineSet
Validated: 5
EndChar

StartChar: uni2199
Encoding: 8601 8601 461
Width: 750
Flags: W
LayerCount: 2
Fore
SplineSet
641 526 m 1,0,-1
 185 71 l 1,1,-1
 206 179 l 1,2,-1
 690 180 l 1,3,-1
 555 45 l 1,4,-1
 61 46 l 1,5,-1
 60 540 l 1,6,-1
 195 675 l 1,7,-1
 194 191 l 1,8,-1
 86 170 l 1,9,-1
 542 625 l 1,10,-1
 641 526 l 1,0,-1
EndSplineSet
Validated: 5
EndChar

StartChar: arrowleft
Encoding: 8592 8592 462
Width: 870
Flags: W
LayerCount: 2
Fore
SplineSet
810 290 m 1,0,-1
 166 290 l 1,1,-1
 257 352 l 1,2,-1
 600 10 l 1,3,-1
 409 10 l 1,4,-1
 60 360 l 1,5,-1
 409 710 l 1,6,-1
 600 710 l 1,7,-1
 257 368 l 1,8,-1
 166 430 l 1,9,-1
 810 430 l 1,10,-1
 810 290 l 1,0,-1
EndSplineSet
Validated: 5
EndChar

StartChar: uni2196
Encoding: 8598 8598 463
Width: 750
Flags: W
LayerCount: 2
Fore
SplineSet
541 94 m 1,0,-1
 86 550 l 1,1,-1
 194 529 l 1,2,-1
 195 45 l 1,3,-1
 60 180 l 1,4,-1
 61 674 l 1,5,-1
 555 675 l 1,6,-1
 690 540 l 1,7,-1
 206 541 l 1,8,-1
 185 649 l 1,9,-1
 640 193 l 1,10,-1
 541 94 l 1,0,-1
EndSplineSet
Validated: 5
EndChar

StartChar: arrowboth
Encoding: 8596 8596 464
Width: 1220
Flags: W
LayerCount: 2
Fore
SplineSet
409 10 m 1,0,-1
 60 360 l 1,1,-1
 409 710 l 1,2,-1
 600 710 l 1,3,-1
 319 430 l 1,4,-1
 901 430 l 1,5,-1
 620 710 l 1,6,-1
 811 710 l 1,7,-1
 1160 360 l 1,8,-1
 811 10 l 1,9,-1
 620 10 l 1,10,-1
 901 290 l 1,11,-1
 319 290 l 1,12,-1
 600 10 l 1,13,-1
 409 10 l 1,0,-1
EndSplineSet
Validated: 1
EndChar

StartChar: arrowupdn
Encoding: 8597 8597 465
Width: 820
Flags: W
LayerCount: 2
Fore
SplineSet
410 -190 m 1,0,-1
 60 159 l 1,1,-1
 60 350 l 1,2,-1
 340 69 l 1,3,-1
 340 651 l 1,4,-1
 60 370 l 1,5,-1
 60 561 l 1,6,-1
 410 910 l 1,7,-1
 760 561 l 1,8,-1
 760 370 l 1,9,-1
 480 651 l 1,10,-1
 480 69 l 1,11,-1
 760 350 l 1,12,-1
 760 159 l 1,13,-1
 410 -190 l 1,0,-1
EndSplineSet
Validated: 1
EndChar

StartChar: uni0308
Encoding: 776 776 466
Width: 0
GlyphClass: 4
Flags: W
AnchorPoint: "Anchor-7" 255 740 basemark 0
AnchorPoint: "Anchor-7" 255 510 mark 0
AnchorPoint: "Anchor-4" 255 510 mark 0
AnchorPoint: "Anchor-0" 255 510 mark 0
LayerCount: 2
Fore
SplineSet
290 577 m 1,0,-1
 290 740 l 1,1,-1
 450 740 l 1,2,-1
 450 577 l 1,3,-1
 290 577 l 1,0,-1
60 577 m 1,4,-1
 60 740 l 1,5,-1
 220 740 l 1,6,-1
 220 577 l 1,7,-1
 60 577 l 1,4,-1
EndSplineSet
Validated: 1
Substitution2: "'ss01' Style Set 1 in Latin lookup 22 subtable" uni0308.ss01
Substitution2: "'aalt' Access All Alternates in Latin lookup 0 subtable" uni0308.ss01
EndChar

StartChar: uni0307
Encoding: 775 775 467
Width: 0
GlyphClass: 4
Flags: W
AnchorPoint: "Anchor-7" 140 740 basemark 0
AnchorPoint: "Anchor-7" 140 510 mark 0
AnchorPoint: "Anchor-4" 140 510 mark 0
AnchorPoint: "Anchor-0" 140 510 mark 0
LayerCount: 2
Fore
SplineSet
60 578 m 1,0,-1
 60 740 l 1,1,-1
 220 740 l 1,2,-1
 220 578 l 1,3,-1
 60 578 l 1,0,-1
EndSplineSet
Validated: 1
Substitution2: "'ss01' Style Set 1 in Latin lookup 22 subtable" uni0307.ss01
Substitution2: "'aalt' Access All Alternates in Latin lookup 0 subtable" uni0307.ss01
EndChar

StartChar: gravecomb
Encoding: 768 768 468
Width: 0
GlyphClass: 4
Flags: W
AnchorPoint: "Anchor-7" 262 740 basemark 0
AnchorPoint: "Anchor-7" 262 510 mark 0
AnchorPoint: "Anchor-4" 262 510 mark 0
AnchorPoint: "Anchor-0" 262 510 mark 0
LayerCount: 2
Fore
SplineSet
225 583 m 1,0,-1
 60 740 l 1,1,-1
 258 740 l 1,2,-1
 357 583 l 1,3,-1
 225 583 l 1,0,-1
EndSplineSet
Validated: 1
EndChar

StartChar: acutecomb
Encoding: 769 769 469
Width: 0
GlyphClass: 4
Flags: W
AnchorPoint: "Anchor-7" 155 740 basemark 0
AnchorPoint: "Anchor-7" 155 510 mark 0
AnchorPoint: "Anchor-4" 155 510 mark 0
AnchorPoint: "Anchor-0" 155 510 mark 0
LayerCount: 2
Fore
SplineSet
192 583 m 1,0,-1
 60 583 l 1,1,-1
 159 740 l 1,2,-1
 357 740 l 1,3,-1
 192 583 l 1,0,-1
EndSplineSet
Validated: 1
EndChar

StartChar: uni030B
Encoding: 779 779 470
Width: 0
GlyphClass: 4
Flags: W
AnchorPoint: "Anchor-7" 243 740 basemark 0
AnchorPoint: "Anchor-7" 243 510 mark 0
AnchorPoint: "Anchor-4" 243 510 mark 0
AnchorPoint: "Anchor-0" 243 510 mark 0
LayerCount: 2
Fore
SplineSet
172 583 m 1,0,-1
 60 583 l 1,1,-1
 119 740 l 1,2,-1
 287 740 l 1,3,-1
 172 583 l 1,0,-1
392 583 m 1,4,-1
 280 583 l 1,5,-1
 339 740 l 1,6,-1
 507 740 l 1,7,-1
 392 583 l 1,4,-1
EndSplineSet
Validated: 1
EndChar

StartChar: uni030C.alt
Encoding: 65687 -1 471
Width: 0
GlyphClass: 4
Flags: W
AnchorPoint: "Anchor-1" 60 720 mark 0
LayerCount: 2
Fore
SplineSet
160 483 m 1,0,-1
 60 483 l 1,1,-1
 60 720 l 1,2,-1
 186 720 l 1,3,-1
 160 483 l 1,0,-1
EndSplineSet
Validated: 1
EndChar

StartChar: uni0302
Encoding: 770 770 472
Width: 0
GlyphClass: 4
Flags: W
AnchorPoint: "Anchor-7" 264 740 basemark 0
AnchorPoint: "Anchor-7" 264 510 mark 0
AnchorPoint: "Anchor-4" 264 510 mark 0
AnchorPoint: "Anchor-0" 264 510 mark 0
LayerCount: 2
Fore
SplineSet
60 583 m 1,0,-1
 186 740 l 1,1,-1
 342 740 l 1,2,-1
 468 583 l 1,3,-1
 343 583 l 1,4,-1
 202 710 l 1,5,-1
 326 710 l 1,6,-1
 185 583 l 1,7,-1
 60 583 l 1,0,-1
EndSplineSet
Validated: 5
EndChar

StartChar: uni030C
Encoding: 780 780 473
Width: 0
GlyphClass: 4
Flags: W
AnchorPoint: "Anchor-7" 264 740 basemark 0
AnchorPoint: "Anchor-7" 264 510 mark 0
AnchorPoint: "Anchor-4" 264 510 mark 0
AnchorPoint: "Anchor-0" 264 510 mark 0
LayerCount: 2
Fore
SplineSet
186 583 m 1,0,-1
 60 740 l 1,1,-1
 185 740 l 1,2,-1
 326 613 l 1,3,-1
 202 613 l 1,4,-1
 343 740 l 1,5,-1
 468 740 l 1,6,-1
 342 583 l 1,7,-1
 186 583 l 1,0,-1
EndSplineSet
Validated: 5
EndChar

StartChar: uni0306
Encoding: 774 774 474
Width: 0
GlyphClass: 4
Flags: W
AnchorPoint: "Anchor-7" 234 740 basemark 0
AnchorPoint: "Anchor-7" 234 510 mark 0
AnchorPoint: "Anchor-4" 234 510 mark 0
AnchorPoint: "Anchor-0" 234 510 mark 0
LayerCount: 2
Fore
SplineSet
234 574 m 256,0,1
 183 574 183 574 144 595.5 c 128,-1,2
 105 617 105 617 82.5 655 c 128,-1,3
 60 693 60 693 60 740 c 1,4,-1
 160 740 l 1,5,6
 160 711 160 711 180 694.5 c 128,-1,7
 200 678 200 678 234 678 c 0,8,9
 269 678 269 678 288.5 694.5 c 128,-1,10
 308 711 308 711 308 740 c 1,11,-1
 408 740 l 1,12,13
 408 693 408 693 385.5 655.5 c 128,-1,14
 363 618 363 618 324 596 c 128,-1,15
 285 574 285 574 234 574 c 256,0,1
EndSplineSet
Validated: 1
EndChar

StartChar: uni030A
Encoding: 778 778 475
Width: 0
GlyphClass: 4
Flags: W
AnchorPoint: "Anchor-7" 168 776 basemark 0
AnchorPoint: "Anchor-7" 168 510 mark 0
AnchorPoint: "Anchor-4" 168 510 mark 0
AnchorPoint: "Anchor-0" 168 510 mark 0
LayerCount: 2
Fore
SplineSet
168 561 m 256,0,1
 122 561 122 561 91 592.5 c 128,-1,2
 60 624 60 624 60 669 c 0,3,4
 60 713 60 713 91 744.5 c 128,-1,5
 122 776 122 776 168 776 c 256,6,7
 214 776 214 776 244.5 744.5 c 128,-1,8
 275 713 275 713 275 669 c 0,9,10
 275 624 275 624 244.5 592.5 c 128,-1,11
 214 561 214 561 168 561 c 256,0,1
168 635 m 0,12,13
 182 635 182 635 191 645 c 128,-1,14
 200 655 200 655 200 669 c 256,15,16
 200 683 200 683 191 692.5 c 128,-1,17
 182 702 182 702 168 702 c 0,18,19
 153 702 153 702 144 692.5 c 128,-1,20
 135 683 135 683 135 669 c 256,21,22
 135 655 135 655 144 645 c 128,-1,23
 153 635 153 635 168 635 c 0,12,13
EndSplineSet
Validated: 1
EndChar

StartChar: tildecomb
Encoding: 771 771 476
Width: 0
GlyphClass: 4
Flags: W
AnchorPoint: "Anchor-7" 273 742 basemark 0
AnchorPoint: "Anchor-7" 273 510 mark 0
AnchorPoint: "Anchor-4" 273 510 mark 0
AnchorPoint: "Anchor-0" 273 510 mark 0
LayerCount: 2
Fore
SplineSet
348 591 m 0,0,1
 321 591 321 591 300.5 598.5 c 128,-1,2
 280 606 280 606 262.5 616.5 c 128,-1,3
 245 627 245 627 228.5 634.5 c 128,-1,4
 212 642 212 642 195 642 c 0,5,6
 173 642 173 642 161.5 628.5 c 128,-1,7
 150 615 150 615 150 596 c 1,8,-1
 60 596 l 1,9,10
 60 634 60 634 76 667 c 128,-1,11
 92 700 92 700 123.5 721 c 128,-1,12
 155 742 155 742 200 742 c 0,13,14
 228 742 228 742 248.5 734.5 c 128,-1,15
 269 727 269 727 285 716.5 c 128,-1,16
 301 706 301 706 316.5 698.5 c 128,-1,17
 332 691 332 691 350 691 c 0,18,19
 373 691 373 691 384.5 704.5 c 128,-1,20
 396 718 396 718 396 737 c 1,21,-1
 486 737 l 1,22,23
 486 699 486 699 469.5 665.5 c 128,-1,24
 453 632 453 632 422.5 611.5 c 128,-1,25
 392 591 392 591 348 591 c 0,0,1
EndSplineSet
Validated: 1
EndChar

StartChar: uni0304
Encoding: 772 772 477
Width: 0
GlyphClass: 4
Flags: W
AnchorPoint: "Anchor-7" 244 725 basemark 0
AnchorPoint: "Anchor-7" 244 510 mark 0
AnchorPoint: "Anchor-4" 244 510 mark 0
AnchorPoint: "Anchor-0" 244 510 mark 0
LayerCount: 2
Fore
SplineSet
60 617 m 1,0,-1
 60 725 l 1,1,-1
 427 725 l 1,2,-1
 427 617 l 1,3,-1
 60 617 l 1,0,-1
EndSplineSet
Validated: 1
EndChar

StartChar: uni0312
Encoding: 786 786 478
Width: 0
GlyphClass: 4
Flags: W
AnchorPoint: "Anchor-7" 145 859 basemark 0
AnchorPoint: "Anchor-7" 145 510 mark 0
AnchorPoint: "Anchor-4" 145 510 mark 0
AnchorPoint: "Anchor-0" 145 510 mark 0
LayerCount: 2
Fore
SplineSet
68 584 m 1,0,-1
 68 700 l 2,1,2
 68 772 68 772 109.5 815.5 c 128,-1,3
 151 859 151 859 221 859 c 1,4,-1
 221 792 l 1,5,6
 184 792 184 792 165.5 771 c 128,-1,7
 147 750 147 750 147 711 c 1,8,-1
 94 723 l 1,9,-1
 221 723 l 1,10,-1
 221 584 l 1,11,-1
 68 584 l 1,0,-1
EndSplineSet
Validated: 5
Substitution2: "'ss01' Style Set 1 in Latin lookup 22 subtable" uni0312.ss01
Substitution2: "'aalt' Access All Alternates in Latin lookup 0 subtable" uni0312.ss01
EndChar

StartChar: uni0326
Encoding: 806 806 479
Width: 0
GlyphClass: 4
Flags: W
AnchorPoint: "Anchor-6" 145 -350 basemark 0
AnchorPoint: "Anchor-6" 145 0 mark 0
AnchorPoint: "Anchor-5" 145 0 mark 0
AnchorPoint: "Anchor-2" 145 0 mark 0
LayerCount: 2
Fore
SplineSet
68 -350 m 1,0,-1
 68 -283 l 1,1,2
 106 -283 106 -283 124 -262 c 128,-1,3
 142 -241 142 -241 142 -202 c 1,4,-1
 195 -214 l 1,5,-1
 68 -214 l 1,6,-1
 68 -75 l 1,7,-1
 221 -75 l 1,8,-1
 221 -191 l 2,9,10
 221 -263 221 -263 179.5 -306.5 c 128,-1,11
 138 -350 138 -350 68 -350 c 1,0,-1
EndSplineSet
Validated: 5
Substitution2: "'ss01' Style Set 1 in Latin lookup 22 subtable" uni0326.ss01
Substitution2: "'aalt' Access All Alternates in Latin lookup 0 subtable" uni0326.ss01
EndChar

StartChar: uni0327
Encoding: 807 807 480
Width: 0
GlyphClass: 4
Flags: W
AnchorPoint: "Anchor-6" 193 -215 basemark 0
AnchorPoint: "Anchor-6" 203 0 mark 0
AnchorPoint: "Anchor-5" 203 0 mark 0
AnchorPoint: "Anchor-2" 203 0 mark 0
LayerCount: 2
Fore
SplineSet
197 -215 m 256,0,1
 135 -215 135 -215 98.5 -189.5 c 128,-1,2
 62 -164 62 -164 60 -119 c 1,3,-1
 158 -119 l 1,4,5
 160 -132 160 -132 169.5 -139 c 128,-1,6
 179 -146 179 -146 195 -146 c 0,7,8
 206 -146 206 -146 215 -140.5 c 128,-1,9
 224 -135 224 -135 224 -125 c 0,10,11
 224 -111 224 -111 206 -103.5 c 128,-1,12
 188 -96 188 -96 138 -93 c 1,13,-1
 165 12 l 1,14,-1
 248 12 l 1,15,-1
 237 -31 l 1,16,17
 280 -41 280 -41 302.5 -64.5 c 128,-1,18
 325 -88 325 -88 325 -124 c 0,19,20
 325 -162 325 -162 292 -188.5 c 128,-1,21
 259 -215 259 -215 197 -215 c 256,0,1
EndSplineSet
Validated: 1
EndChar

StartChar: uni0328
Encoding: 808 808 481
Width: 0
GlyphClass: 4
Flags: W
AnchorPoint: "Anchor-3" 247 0 mark 0
LayerCount: 2
Fore
SplineSet
176 -216 m 0,0,1
 121 -216 121 -216 90.5 -191.5 c 128,-1,2
 60 -167 60 -167 60 -127 c 0,3,4
 60 -83 60 -83 94.5 -48 c 128,-1,5
 129 -13 129 -13 187 17 c 1,6,-1
 247 0 l 1,7,8
 198 -38 198 -38 179.5 -62.5 c 128,-1,9
 161 -87 161 -87 161 -107 c 0,10,11
 161 -123 161 -123 170 -131.5 c 128,-1,12
 179 -140 179 -140 192 -140 c 0,13,14
 214 -140 214 -140 232 -126 c 1,15,-1
 259 -196 l 1,16,17
 245 -205 245 -205 225 -210.5 c 128,-1,18
 205 -216 205 -216 176 -216 c 0,0,1
EndSplineSet
Validated: 1
EndChar

StartChar: uni0308.ss01
Encoding: 65688 -1 482
Width: 0
GlyphClass: 4
Flags: W
AnchorPoint: "Anchor-7" 260 754 basemark 0
AnchorPoint: "Anchor-7" 260 510 mark 0
AnchorPoint: "Anchor-4" 260 510 mark 0
AnchorPoint: "Anchor-0" 260 510 mark 0
LayerCount: 2
Fore
SplineSet
145 581 m 256,0,1
 109 581 109 581 84.5 606.5 c 128,-1,2
 60 632 60 632 60 669 c 256,3,4
 60 706 60 706 84.5 730 c 128,-1,5
 109 754 109 754 145 754 c 256,6,7
 181 754 181 754 205.5 730 c 128,-1,8
 230 706 230 706 230 669 c 256,9,10
 230 632 230 632 205.5 606.5 c 128,-1,11
 181 581 181 581 145 581 c 256,0,1
375 581 m 256,12,13
 339 581 339 581 314.5 606.5 c 128,-1,14
 290 632 290 632 290 669 c 256,15,16
 290 706 290 706 314.5 730 c 128,-1,17
 339 754 339 754 375 754 c 256,18,19
 411 754 411 754 435.5 730 c 128,-1,20
 460 706 460 706 460 669 c 256,21,22
 460 632 460 632 435.5 606.5 c 128,-1,23
 411 581 411 581 375 581 c 256,12,13
EndSplineSet
Validated: 1
EndChar

StartChar: uni0307.ss01
Encoding: 65689 -1 483
Width: 0
GlyphClass: 4
Flags: W
AnchorPoint: "Anchor-7" 155 755 basemark 0
AnchorPoint: "Anchor-7" 155 510 mark 0
AnchorPoint: "Anchor-4" 155 510 mark 0
AnchorPoint: "Anchor-0" 155 510 mark 0
LayerCount: 2
Fore
SplineSet
157 562 m 0,0,1
 117 562 117 562 88.5 590 c 128,-1,2
 60 618 60 618 60 658 c 0,3,4
 60 702 60 702 88.5 728.5 c 128,-1,5
 117 755 117 755 157 755 c 0,6,7
 195 755 195 755 222.5 728.5 c 128,-1,8
 250 702 250 702 250 658 c 0,9,10
 250 618 250 618 222.5 590 c 128,-1,11
 195 562 195 562 157 562 c 0,0,1
EndSplineSet
Validated: 1
EndChar

StartChar: uni0312.ss01
Encoding: 65690 -1 484
Width: 0
GlyphClass: 4
Flags: W
AnchorPoint: "Anchor-7" 145 859 basemark 0
AnchorPoint: "Anchor-7" 145 510 mark 0
AnchorPoint: "Anchor-4" 145 510 mark 0
AnchorPoint: "Anchor-0" 145 510 mark 0
LayerCount: 2
Fore
SplineSet
148 576 m 0,0,1
 111 576 111 576 85.5 602.5 c 128,-1,2
 60 629 60 629 60 682 c 0,3,4
 60 730 60 730 78.5 770.5 c 128,-1,5
 97 811 97 811 131 835 c 128,-1,6
 165 859 165 859 212 859 c 1,7,-1
 212 792 l 1,8,9
 174 792 174 792 156.5 771 c 128,-1,10
 139 750 139 750 139 711 c 1,11,-1
 94 712 l 1,12,13
 105 720 105 720 119 725.5 c 128,-1,14
 133 731 133 731 145 731 c 0,15,16
 180 731 180 731 204.5 708.5 c 128,-1,17
 229 686 229 686 229 653 c 256,18,19
 229 620 229 620 205.5 598 c 128,-1,20
 182 576 182 576 148 576 c 0,0,1
EndSplineSet
Validated: 5
EndChar

StartChar: uni0326.ss01
Encoding: 65691 -1 485
Width: 0
GlyphClass: 4
Flags: W
AnchorPoint: "Anchor-6" 145 -350 basemark 0
AnchorPoint: "Anchor-6" 145 0 mark 0
AnchorPoint: "Anchor-5" 145 0 mark 0
AnchorPoint: "Anchor-2" 145 0 mark 0
LayerCount: 2
Fore
SplineSet
77 -350 m 1,0,-1
 77 -283 l 1,1,2
 115 -283 115 -283 132.5 -262 c 128,-1,3
 150 -241 150 -241 150 -202 c 1,4,-1
 195 -203 l 1,5,6
 185 -211 185 -211 170.5 -216.5 c 128,-1,7
 156 -222 156 -222 144 -222 c 0,8,9
 109 -222 109 -222 84.5 -199.5 c 128,-1,10
 60 -177 60 -177 60 -144 c 256,11,12
 60 -111 60 -111 83.5 -89 c 128,-1,13
 107 -67 107 -67 141 -67 c 0,14,15
 179 -67 179 -67 204 -93.5 c 128,-1,16
 229 -120 229 -120 229 -173 c 0,17,18
 229 -221 229 -221 210.5 -261 c 128,-1,19
 192 -301 192 -301 158 -325.5 c 128,-1,20
 124 -350 124 -350 77 -350 c 1,0,-1
EndSplineSet
Validated: 5
EndChar

